SplineFontDB: 3.0
FontName: LiberationSans-Bold
FullName: Liberation Sans Bold
FamilyName: Liberation Sans
Weight: Bold
Copyright: Digitized data © 2007 Ascender Corporation. All rights reserved.
Version: 1.04
ItalicAngle: 0
UnderlinePosition: -538
UnderlineWidth: 215
Ascent: 1638
Descent: 410
LayerCount: 2
Layer: 0 1 "Back" 
Layer: 1 1 "Fore" 
XUID: [1021 682 1963032581 8842470]
FSType: 8
OS2Version: 3
OS2_WeightWidthSlopeOnly: 0
OS2_UseTypoMetrics: 1
CreationTime: 1123372800
ModificationTime: 1211956922
PfmFamily: 17
TTFWeight: 700
TTFWidth: 5
LineGap: 67
VLineGap: 0
Panose: 2 11 7 4 2 2 2 2 2 4
OS2TypoAscent: -147
OS2TypoAOffset: 1
OS2TypoDescent: -21
OS2TypoDOffset: 1
OS2TypoLinegap: 307
OS2WinAscent: -262
OS2WinAOffset: 1
OS2WinDescent: -187
OS2WinDOffset: 1
HheadAscent: -262
HheadAOffset: 1
HheadDescent: 187
HheadDOffset: 1
OS2SubXSize: 1434
OS2SubYSize: 1331
OS2SubXOff: 0
OS2SubYOff: 283
OS2SupXSize: 1434
OS2SupYSize: 1331
OS2SupXOff: 0
OS2SupYOff: 977
OS2StrikeYSize: 102
OS2StrikeYPos: 530
OS2FamilyClass: 2053
OS2Vendor: '1ASC'
OS2CodePages: 6000009f.dfd70000
OS2UnicodeRanges: a00002af.500078fb.00000000.00000000
Lookup: 258 0 0 "'kern' Horizontal Kerning lookup 0"  {"'kern' Horizontal Kerning lookup 0 subtable"  } ['kern' ('DFLT' <'dflt' > 'cyrl' <'dflt' > 'grek' <'dflt' > 'latn' <'dflt' > ) ]
DEI: 0
TtTable: prep
PUSHW_8
 80
 263
 1
 47
 263
 1
 175
 260
NPUSHB
 71
 1
 208
 253
 1
 191
 253
 1
 16
 253
 1
 111
 251
 1
 64
 251
 1
 128
 245
 144
 245
 160
 245
 3
 241
 240
 53
 31
 47
 240
 159
 240
 2
 95
 239
 1
 47
 239
 95
 239
 111
 239
 159
 239
 223
 239
 5
 230
 228
 32
 31
 229
 228
 61
 31
 226
 224
 39
 31
 225
 224
 61
 31
 223
 61
 221
 85
 222
 61
 3
 85
 221
PUSHW_1
 286
PUSHB_3
 60
 31
 47
NPUSHW
 11
 286
 1
 16
 286
 32
 286
 64
 286
 3
 -64
 286
NPUSHB
 40
 25
 28
 70
 220
 3
 255
 31
 0
 219
 1
 218
 4
 60
 31
 212
 210
 28
 31
 211
 210
 38
 31
 96
 209
 144
 209
 192
 209
 3
 96
 209
 144
 209
 176
 209
 192
 209
 224
 209
 5
PUSHW_1

StartChar: .notdef
Encoding: 0 -1 0
Width: 1536
Flags: W
LayerCount: 2
Fore
SplineSet
205 1409 m 1,0,-1
 1330 1409 l 1,1,-1
 1330 0 l 1,2,-1
 205 0 l 1,3,-1
 205 1409 l 1,0,-1
281 1333 m 1,4,-1
 281 76 l 1,5,-1
 1254 76 l 1,6,-1
 1254 1333 l 1,7,-1
 281 1333 l 1,4,-1
EndSplineSet
EndChar

StartChar: exclam
Encoding: 4 33 4
Width: 682
GlyphClass: 2
Flags: W
LayerCount: 2
Fore
SplineSet
455 426 m 1,0,-1
 225 426 l 1,1,-1
 193 1409 l 1,2,-1
 487 1409 l 1,3,-1
 455 426 l 1,0,-1
193 0 m 1,4,-1
 193 270 l 1,5,-1
 481 270 l 1,6,-1
 481 0 l 1,7,-1
 193 0 l 1,4,-1
EndSplineSet
EndChar

StartChar: quotedbl
Encoding: 5 34 5
Width: 971
GlyphClass: 2
Flags: W
LayerCount: 2
Fore
SplineSet
807 898 m 1,0,-1
 588 898 l 1,1,-1
 561 1409 l 1,2,-1
 836 1409 l 1,3,-1
 807 898 l 1,0,-1
381 898 m 1,4,-1
 162 898 l 1,5,-1
 135 1409 l 1,6,-1
 408 1409 l 1,7,-1
 381 898 l 1,4,-1
EndSplineSet
EndChar

StartChar: numbersign
Encoding: 6 35 6
Width: 1139
GlyphClass: 2
Flags: W
LayerCount: 2
Fore
SplineSet
909 862 m 1,0,-1
 840 530 l 1,1,-1
 1055 530 l 1,2,-1
 1055 381 l 1,3,-1
 809 381 l 1,4,-1
 727 0 l 1,5,-1
 571 0 l 1,6,-1
 651 381 l 1,7,-1
 344 381 l 1,8,-1
 264 0 l 1,9,-1
 111 0 l 1,10,-1
 190 381 l 1,11,-1
 35 381 l 1,12,-1
 35 530 l 1,13,-1
 223 530 l 1,14,-1
 293 862 l 1,15,-1
 86 862 l 1,16,-1
 86 1010 l 1,17,-1
 324 1010 l 1,18,-1
 408 1395 l 1,19,-1
 561 1395 l 1,20,-1
 479 1010 l 1,21,-1
 786 1010 l 1,22,-1
 870 1395 l 1,23,-1
 1026 1395 l 1,24,-1
 942 1010 l 1,25,-1
 1106 1010 l 1,26,-1
 1106 862 l 1,27,-1
 909 862 l 1,0,-1
449 862 m 1,28,-1
 377 530 l 1,29,-1
 686 530 l 1,30,-1
 756 862 l 1,31,-1
 449 862 l 1,28,-1
EndSplineSet
EndChar

StartChar: dollar
Encoding: 7 36 7
Width: 1139
GlyphClass: 2
Flags: W
LayerCount: 2
Fore
SplineSet
1110 412 m 0,0,1
 1110 327 1110 327 1082 257.5 c 128,-1,2
 1054 188 1054 188 995.5 137.5 c 128,-1,3
 937 87 937 87 846 57.5 c 128,-1,4
 755 28 755 28 629 23 c 1,5,-1
 629 -152 l 1,6,-1
 520 -152 l 1,7,-1
 520 20 l 1,8,9
 406 24 406 24 321.5 51 c 128,-1,10
 237 78 237 78 177.5 127 c 128,-1,11
 118 176 118 176 81.5 246.5 c 128,-1,12
 45 317 45 317 27 408 c 1,13,-1
 283 455 l 1,14,15
 291 407 291 407 306.5 367.5 c 128,-1,16
 322 328 322 328 349 299 c 128,-1,17
 376 270 376 270 417.5 251.5 c 128,-1,18
 459 233 459 233 520 227 c 1,19,-1
 520 618 l 1,20,21
 517 620 517 620 505 622.5 c 128,-1,22
 493 625 493 625 489 625 c 1,23,24
 411 643 411 643 336 669.5 c 128,-1,25
 261 696 261 696 202.5 741.5 c 128,-1,26
 144 787 144 787 108 856.5 c 128,-1,27
 72 926 72 926 72 1030 c 0,28,29
 72 1121 72 1121 105 1186.5 c 128,-1,30
 138 1252 138 1252 197.5 1295 c 128,-1,31
 257 1338 257 1338 339.5 1360 c 128,-1,32
 422 1382 422 1382 520 1386 c 1,33,-1
 520 1520 l 1,34,-1
 629 1520 l 1,35,-1
 629 1386 l 1,36,37
 736 1382 736 1382 811 1358 c 128,-1,38
 886 1334 886 1334 938 1290.5 c 128,-1,39
 990 1247 990 1247 1022 1183.5 c 128,-1,40
 1054 1120 1054 1120 1075 1036 c 1,41,-1
 811 997 l 1,42,43
 796 1084 796 1084 752.5 1131.5 c 128,-1,44
 709 1179 709 1179 629 1190 c 1,45,-1
 629 838 l 1,46,47
 634 836 634 836 639.5 836 c 128,-1,48
 645 836 645 836 651 834 c 0,49,50
 737 814 737 814 819.5 787 c 128,-1,51
 902 760 902 760 966.5 714 c 128,-1,52
 1031 668 1031 668 1070.5 595.5 c 128,-1,53
 1110 523 1110 523 1110 412 c 0,0,1
520 1194 m 1,54,55
 467 1190 467 1190 431.5 1176 c 128,-1,56
 396 1162 396 1162 374 1140.5 c 128,-1,57
 352 1119 352 1119 343 1091.5 c 128,-1,58
 334 1064 334 1064 334 1034 c 0,59,60
 334 991 334 991 348 963.5 c 128,-1,61
 362 936 362 936 387 918 c 128,-1,62
 412 900 412 900 446 887.5 c 128,-1,63
 480 875 480 875 520 862 c 1,64,-1
 520 1194 l 1,54,55
850 408 m 0,65,66
 850 457 850 457 833 487.5 c 128,-1,67
 816 518 816 518 786 537 c 128,-1,68
 756 556 756 556 715.5 568.5 c 128,-1,69
 675 581 675 581 629 594 c 1,70,-1
 629 227 l 1,71,72
 735 234 735 234 792.5 277 c 128,-1,73
 850 320 850 320 850 408 c 0,65,66
EndSplineSet
EndChar

StartChar: percent
Encoding: 8 37 8
Width: 1821
GlyphClass: 2
Flags: W
LayerCount: 2
Fore
SplineSet
1767 432 m 0,0,1
 1767 307 1767 307 1739 221 c 128,-1,2
 1711 135 1711 135 1663 82.5 c 128,-1,3
 1615 30 1615 30 1550.5 7 c 128,-1,4
 1486 -16 1486 -16 1413 -16 c 0,5,6
 1338 -16 1338 -16 1273.5 7 c 128,-1,7
 1209 30 1209 30 1161.5 82.5 c 128,-1,8
 1114 135 1114 135 1086.5 221 c 128,-1,9
 1059 307 1059 307 1059 432 c 0,10,11
 1059 564 1059 564 1086.5 650.5 c 128,-1,12
 1114 737 1114 737 1162 788.5 c 128,-1,13
 1210 840 1210 840 1275.5 860.5 c 128,-1,14
 1341 881 1341 881 1417 881 c 0,15,16
 1489 881 1489 881 1553 860.5 c 128,-1,17
 1617 840 1617 840 1664.5 788.5 c 128,-1,18
 1712 737 1712 737 1739.5 650.5 c 128,-1,19
 1767 564 1767 564 1767 432 c 0,0,1
552 0 m 1,20,-1
 346 0 l 1,21,-1
 1266 1409 l 1,22,-1
 1475 1409 l 1,23,-1
 552 0 l 1,20,-1
408 1425 m 0,24,25
 480 1425 480 1425 544 1404.5 c 128,-1,26
 608 1384 608 1384 656 1333 c 128,-1,27
 704 1282 704 1282 732 1195.5 c 128,-1,28
 760 1109 760 1109 760 977 c 0,29,30
 760 852 760 852 732 766 c 128,-1,31
 704 680 704 680 655.5 627 c 128,-1,32
 607 574 607 574 542 551 c 128,-1,33
 477 528 477 528 403 528 c 0,34,35
 330 528 330 528 265.5 551 c 128,-1,36
 201 574 201 574 153.5 626.5 c 128,-1,37
 106 679 106 679 78.5 765 c 128,-1,38
 51 851 51 851 51 977 c 0,39,40
 51 1109 51 1109 78 1195.5 c 128,-1,41
 105 1282 105 1282 153 1333 c 128,-1,42
 201 1384 201 1384 266.5 1404.5 c 128,-1,43
 332 1425 332 1425 408 1425 c 0,24,25
1552 432 m 0,44,45
 1552 519 1552 519 1543.5 576 c 128,-1,46
 1535 633 1535 633 1518 666.5 c 128,-1,47
 1501 700 1501 700 1476 713.5 c 128,-1,48
 1451 727 1451 727 1417 727 c 0,49,50
 1380 727 1380 727 1353.5 713.5 c 128,-1,51
 1327 700 1327 700 1310 666 c 128,-1,52
 1293 632 1293 632 1284.5 575 c 128,-1,53
 1276 518 1276 518 1276 432 c 0,54,55
 1276 348 1276 348 1284 292.5 c 128,-1,56
 1292 237 1292 237 1309.5 203 c 128,-1,57
 1327 169 1327 169 1353 155 c 128,-1,58
 1379 141 1379 141 1415 141 c 0,59,60
 1448 141 1448 141 1473.5 155 c 128,-1,61
 1499 169 1499 169 1516.5 202.5 c 128,-1,62
 1534 236 1534 236 1543 292 c 128,-1,63
 1552 348 1552 348 1552 432 c 0,44,45
543 977 m 0,64,65
 543 1063 543 1063 534.5 1119.5 c 128,-1,66
 526 1176 526 1176 509 1209.5 c 128,-1,67
 492 1243 492 1243 467 1256.5 c 128,-1,68
 442 1270 442 1270 408 1270 c 0,69,70
 371 1270 371 1270 344 1256 c 128,-1,71
 317 1242 317 1242 300 1208.5 c 128,-1,72
 283 1175 283 1175 274.5 1118.5 c 128,-1,73
 266 1062 266 1062 266 977 c 0,74,75
 266 893 266 893 274.5 837 c 128,-1,76
 283 781 283 781 300.5 747 c 128,-1,77
 318 713 318 713 344 698.5 c 128,-1,78
 370 684 370 684 406 684 c 0,79,80
 440 684 440 684 465.5 698 c 128,-1,81
 491 712 491 712 508.5 746 c 128,-1,82
 526 780 526 780 534.5 836.5 c 128,-1,83
 543 893 543 893 543 977 c 0,64,65
EndSplineSet
EndChar

StartChar: ampersand
Encoding: 9 38 9
Width: 1479
GlyphClass: 2
Flags: W
LayerCount: 2
Fore
SplineSet
90 385 m 0,0,1
 90 464 90 464 115.5 528 c 128,-1,2
 141 592 141 592 186 644 c 128,-1,3
 231 696 231 696 293 737.5 c 128,-1,4
 355 779 355 779 428 813 c 1,5,6
 396 878 396 878 375 952 c 128,-1,7
 354 1026 354 1026 354 1092 c 256,8,9
 354 1158 354 1158 374 1217 c 128,-1,10
 394 1276 394 1276 439 1320.5 c 128,-1,11
 484 1365 484 1365 556 1391 c 128,-1,12
 628 1417 628 1417 731 1417 c 0,13,14
 812 1417 812 1417 878.5 1397.5 c 128,-1,15
 945 1378 945 1378 993 1340 c 128,-1,16
 1041 1302 1041 1302 1067.5 1247 c 128,-1,17
 1094 1192 1094 1192 1094 1120 c 0,18,19
 1094 1047 1094 1047 1061 990.5 c 128,-1,20
 1028 934 1028 934 973.5 888.5 c 128,-1,21
 919 843 919 843 848 805.5 c 128,-1,22
 777 768 777 768 702 733 c 1,23,24
 753 643 753 643 814 559.5 c 128,-1,25
 875 476 875 476 946 397 c 1,26,27
 1002 482 1002 482 1040 571.5 c 128,-1,28
 1078 661 1078 661 1104 760 c 1,29,-1
 1313 690 l 1,30,31
 1279 573 1279 573 1232 470 c 128,-1,32
 1185 367 1185 367 1120 270 c 1,33,34
 1165 232 1165 232 1210 214.5 c 128,-1,35
 1255 197 1255 197 1298 197 c 0,36,37
 1330 197 1330 197 1359.5 201 c 128,-1,38
 1389 205 1389 205 1415 213 c 1,39,-1
 1415 10 l 1,40,41
 1360 -12 1360 -12 1284 -12 c 0,42,43
 1233 -12 1233 -12 1186 -2 c 128,-1,44
 1139 8 1139 8 1097 24.5 c 128,-1,45
 1055 41 1055 41 1019 63 c 128,-1,46
 983 85 983 85 954 109 c 1,47,48
 921 84 921 84 880.5 60.5 c 128,-1,49
 840 37 840 37 792.5 19 c 128,-1,50
 745 1 745 1 690.5 -9.5 c 128,-1,51
 636 -20 636 -20 575 -20 c 0,52,53
 449 -20 449 -20 357 11 c 128,-1,54
 265 42 265 42 206 96 c 128,-1,55
 147 150 147 150 118.5 224 c 128,-1,56
 90 298 90 298 90 385 c 0,0,1
870 1118 m 0,57,58
 870 1175 870 1175 832 1211 c 128,-1,59
 794 1247 794 1247 729 1247 c 0,60,61
 652 1247 652 1247 611.5 1204 c 128,-1,62
 571 1161 571 1161 571 1090 c 0,63,64
 571 1042 571 1042 586.5 992 c 128,-1,65
 602 942 602 942 625 897 c 1,66,67
 676 919 676 919 721 941.5 c 128,-1,68
 766 964 766 964 799 990.5 c 128,-1,69
 832 1017 832 1017 851 1048 c 128,-1,70
 870 1079 870 1079 870 1118 c 0,57,58
788 246 m 1,71,72
 711 332 711 332 642 426 c 128,-1,73
 573 520 573 520 516 623 c 1,74,75
 433 584 433 584 388.5 527 c 128,-1,76
 344 470 344 470 344 389 c 0,77,78
 344 343 344 343 359.5 303 c 128,-1,79
 375 263 375 263 405 233.5 c 128,-1,80
 435 204 435 204 480.5 187 c 128,-1,81
 526 170 526 170 586 170 c 0,82,83
 651 170 651 170 703.5 194 c 128,-1,84
 756 218 756 218 788 246 c 1,71,72
EndSplineSet
EndChar

StartChar: quotesingle
Encoding: 10 39 10
Width: 487
GlyphClass: 2
Flags: W
LayerCount: 2
Fore
SplineSet
354 898 m 1,0,-1
 135 898 l 1,1,-1
 109 1409 l 1,2,-1
 381 1409 l 1,3,-1
 354 898 l 1,0,-1
EndSplineSet
EndChar

StartChar: parenleft
Encoding: 11 40 11
Width: 682
GlyphClass: 2
Flags: W
LayerCount: 2
Fore
SplineSet
399 -425 m 1,0,1
 322 -314 322 -314 266 -204 c 128,-1,2
 210 -94 210 -94 173.5 22 c 128,-1,3
 137 138 137 138 119.5 263.5 c 128,-1,4
 102 389 102 389 102 531 c 0,5,6
 102 674 102 674 119.5 798.5 c 128,-1,7
 137 923 137 923 173.5 1038.5 c 128,-1,8
 210 1154 210 1154 266 1263.5 c 128,-1,9
 322 1373 322 1373 399 1484 c 1,10,-1
 680 1484 l 1,11,12
 600 1368 600 1368 543 1255 c 128,-1,13
 486 1142 486 1142 449.5 1026 c 128,-1,14
 413 910 413 910 396 787.5 c 128,-1,15
 379 665 379 665 379 530 c 0,16,17
 379 394 379 394 396 271.5 c 128,-1,18
 413 149 413 149 449.5 33 c 128,-1,19
 486 -83 486 -83 543 -195.5 c 128,-1,20
 600 -308 600 -308 680 -425 c 1,21,-1
 399 -425 l 1,0,1
EndSplineSet
EndChar

StartChar: parenright
Encoding: 12 41 12
Width: 682
GlyphClass: 2
Flags: W
LayerCount: 2
Fore
SplineSet
2 -425 m 1,0,1
 82 -308 82 -308 139 -195.5 c 128,-1,2
 196 -83 196 -83 232.5 33 c 128,-1,3
 269 149 269 149 286 271.5 c 128,-1,4
 303 394 303 394 303 530 c 0,5,6
 303 665 303 665 286 787.5 c 128,-1,7
 269 910 269 910 232.5 1026 c 128,-1,8
 196 1142 196 1142 139 1255 c 128,-1,9
 82 1368 82 1368 2 1484 c 1,10,-1
 283 1484 l 1,11,12
 360 1373 360 1373 416 1263.5 c 128,-1,13
 472 1154 472 1154 508.5 1038.5 c 128,-1,14
 545 923 545 923 562.5 798.5 c 128,-1,15
 580 674 580 674 580 531 c 0,16,17
 580 389 580 389 562.5 263.5 c 128,-1,18
 545 138 545 138 508.5 22 c 128,-1,19
 472 -94 472 -94 416 -204 c 128,-1,20
 360 -314 360 -314 283 -425 c 1,21,-1
 2 -425 l 1,0,1
EndSplineSet
EndChar

StartChar: asterisk
Encoding: 13 42 13
Width: 797
GlyphClass: 2
Flags: W
LayerCount: 2
Fore
SplineSet
492 1135 m 1,0,-1
 727 1239 l 1,1,-1
 795 1042 l 1,2,-1
 545 981 l 1,3,-1
 731 768 l 1,4,-1
 547 647 l 1,5,-1
 401 899 l 1,6,-1
 252 647 l 1,7,-1
 66 770 l 1,8,-1
 256 981 l 1,9,-1
 6 1042 l 1,10,-1
 74 1239 l 1,11,-1
 313 1135 l 1,12,-1
 295 1409 l 1,13,-1
 510 1409 l 1,14,-1
 492 1135 l 1,0,-1
EndSplineSet
EndChar

StartChar: plus
Encoding: 14 43 14
Width: 1196
GlyphClass: 2
Flags: W
LayerCount: 2
Fore
SplineSet
711 569 m 1,0,-1
 711 161 l 1,1,-1
 485 161 l 1,2,-1
 485 569 l 1,3,-1
 86 569 l 1,4,-1
 86 793 l 1,5,-1
 485 793 l 1,6,-1
 485 1201 l 1,7,-1
 711 1201 l 1,8,-1
 711 793 l 1,9,-1
 1113 793 l 1,10,-1
 1113 569 l 1,11,-1
 711 569 l 1,0,-1
EndSplineSet
EndChar

StartChar: comma
Encoding: 15 44 15
Width: 569
GlyphClass: 2
Flags: W
LayerCount: 2
Fore
SplineSet
432 66 m 2,0,1
 432 -1 432 -1 424.5 -56 c 128,-1,2
 417 -111 417 -111 403 -157.5 c 128,-1,3
 389 -204 389 -204 369 -243 c 128,-1,4
 349 -282 349 -282 324 -317 c 1,5,-1
 139 -317 l 1,6,7
 168 -282 168 -282 192 -243 c 128,-1,8
 216 -204 216 -204 234 -163 c 128,-1,9
 252 -122 252 -122 262 -81 c 128,-1,10
 272 -40 272 -40 272 0 c 1,11,-1
 143 0 l 1,12,-1
 143 305 l 1,13,-1
 432 305 l 1,14,-1
 432 66 l 2,0,1
EndSplineSet
EndChar

StartChar: hyphen
Encoding: 16 45 16
AltUni2: 0000ad.ffffffff.0
Width: 682
GlyphClass: 2
Flags: W
LayerCount: 2
Fore
SplineSet
80 409 m 1,0,-1
 80 653 l 1,1,-1
 600 653 l 1,2,-1
 600 409 l 1,3,-1
 80 409 l 1,0,-1
EndSplineSet
EndChar

StartChar: period
Encoding: 17 46 17
Width: 569
GlyphClass: 2
Flags: W
LayerCount: 2
Fore
SplineSet
139 0 m 1,0,-1
 139 305 l 1,1,-1
 428 305 l 1,2,-1
 428 0 l 1,3,-1
 139 0 l 1,0,-1
EndSplineSet
EndChar

StartChar: slash
Encoding: 18 47 18
Width: 569
GlyphClass: 2
Flags: W
LayerCount: 2
Fore
SplineSet
20 -41 m 1,0,-1
 311 1484 l 1,1,-1
 549 1484 l 1,2,-1
 263 -41 l 1,3,-1
 20 -41 l 1,0,-1
EndSplineSet
EndChar

StartChar: zero
Encoding: 19 48 19
Width: 1139
GlyphClass: 2
Flags: W
LayerCount: 2
Fore
SplineSet
1055 705 m 0,0,1
 1055 503 1055 503 1018 364.5 c 128,-1,2
 981 226 981 226 915.5 140.5 c 128,-1,3
 850 55 850 55 760.5 17.5 c 128,-1,4
 671 -20 671 -20 565 -20 c 256,5,6
 459 -20 459 -20 370 17 c 128,-1,7
 281 54 281 54 217 139.5 c 128,-1,8
 153 225 153 225 117 363.5 c 128,-1,9
 81 502 81 502 81 705 c 0,10,11
 81 918 81 918 116.5 1057.5 c 128,-1,12
 152 1197 152 1197 217 1280 c 128,-1,13
 282 1363 282 1363 372.5 1396.5 c 128,-1,14
 463 1430 463 1430 573 1430 c 0,15,16
 676 1430 676 1430 764.5 1396.5 c 128,-1,17
 853 1363 853 1363 917.5 1280 c 128,-1,18
 982 1197 982 1197 1018.5 1057.5 c 128,-1,19
 1055 918 1055 918 1055 705 c 0,0,1
773 705 m 0,20,21
 773 854 773 854 762 951.5 c 128,-1,22
 751 1049 751 1049 727 1106.5 c 128,-1,23
 703 1164 703 1164 664.5 1187 c 128,-1,24
 626 1210 626 1210 571 1210 c 0,25,26
 512 1210 512 1210 472 1186.5 c 128,-1,27
 432 1163 432 1163 407.5 1105 c 128,-1,28
 383 1047 383 1047 372.5 949.5 c 128,-1,29
 362 852 362 852 362 705 c 0,30,31
 362 560 362 560 373 463 c 128,-1,32
 384 366 384 366 408 307.5 c 128,-1,33
 432 249 432 249 471 225 c 128,-1,34
 510 201 510 201 567 201 c 0,35,36
 622 201 622 201 661 225 c 128,-1,37
 700 249 700 249 725 307.5 c 128,-1,38
 750 366 750 366 761.5 463 c 128,-1,39
 773 560 773 560 773 705 c 0,20,21
EndSplineSet
EndChar

StartChar: one
Encoding: 20 49 20
Width: 1139
GlyphClass: 2
Flags: W
LayerCount: 2
Fore
SplineSet
129 0 m 1,0,-1
 129 209 l 1,1,-1
 478 209 l 1,2,-1
 478 1170 l 1,3,-1
 140 959 l 1,4,-1
 140 1180 l 1,5,-1
 493 1409 l 1,6,-1
 759 1409 l 1,7,-1
 759 209 l 1,8,-1
 1082 209 l 1,9,-1
 1082 0 l 1,10,-1
 129 0 l 1,0,-1
EndSplineSet
EndChar

StartChar: two
Encoding: 21 50 21
Width: 1139
GlyphClass: 2
Flags: W
LayerCount: 2
Fore
SplineSet
71 0 m 1,0,-1
 71 195 l 1,1,2
 119 300 119 300 188 384.5 c 128,-1,3
 257 469 257 469 332.5 539.5 c 128,-1,4
 408 610 408 610 482.5 670.5 c 128,-1,5
 557 731 557 731 616.5 787.5 c 128,-1,6
 676 844 676 844 713 901 c 128,-1,7
 750 958 750 958 750 1022 c 0,8,9
 750 1116 750 1116 703 1161 c 128,-1,10
 656 1206 656 1206 565 1206 c 0,11,12
 475 1206 475 1206 427.5 1157.5 c 128,-1,13
 380 1109 380 1109 366 1012 c 1,14,-1
 83 1028 l 1,15,16
 93 1111 93 1111 124 1184 c 128,-1,17
 155 1257 155 1257 212.5 1312 c 128,-1,18
 270 1367 270 1367 356.5 1398.5 c 128,-1,19
 443 1430 443 1430 563 1430 c 0,20,21
 677 1430 677 1430 765 1403.5 c 128,-1,22
 853 1377 853 1377 913 1326 c 128,-1,23
 973 1275 973 1275 1004 1201.5 c 128,-1,24
 1035 1128 1035 1128 1035 1034 c 0,25,26
 1035 935 1035 935 996 855 c 128,-1,27
 957 775 957 775 896 707.5 c 128,-1,28
 835 640 835 640 760.5 581 c 128,-1,29
 686 522 686 522 616 466 c 128,-1,30
 546 410 546 410 488.5 353 c 128,-1,31
 431 296 431 296 403 231 c 1,32,-1
 1057 231 l 1,33,-1
 1057 0 l 1,34,-1
 71 0 l 1,0,-1
EndSplineSet
EndChar

StartChar: three
Encoding: 22 51 22
Width: 1139
GlyphClass: 2
Flags: W
LayerCount: 2
Fore
SplineSet
1065 391 m 0,0,1
 1065 295 1065 295 1033.5 218.5 c 128,-1,2
 1002 142 1002 142 939 88 c 128,-1,3
 876 34 876 34 782.5 5.5 c 128,-1,4
 689 -23 689 -23 565 -23 c 0,5,6
 427 -23 427 -23 332.5 12 c 128,-1,7
 238 47 238 47 177.5 104.5 c 128,-1,8
 117 162 117 162 86.5 235 c 128,-1,9
 56 308 56 308 47 383 c 1,10,-1
 333 408 l 1,11,12
 339 363 339 363 355.5 325.5 c 128,-1,13
 372 288 372 288 400 261 c 128,-1,14
 428 234 428 234 468.5 219.5 c 128,-1,15
 509 205 509 205 564 205 c 0,16,17
 665 205 665 205 721 255 c 128,-1,18
 777 305 777 305 777 408 c 0,19,20
 777 471 777 471 750.5 509 c 128,-1,21
 724 547 724 547 683.5 567.5 c 128,-1,22
 643 588 643 588 596 595 c 128,-1,23
 549 602 549 602 507 602 c 2,24,-1
 409 602 l 1,25,-1
 409 829 l 1,26,-1
 501 829 l 2,27,28
 543 829 543 829 586.5 837 c 128,-1,29
 630 845 630 845 665 866 c 128,-1,30
 700 887 700 887 722 924.5 c 128,-1,31
 744 962 744 962 744 1020 c 0,32,33
 744 1107 744 1107 695.5 1156.5 c 128,-1,34
 647 1206 647 1206 554 1206 c 0,35,36
 467 1206 467 1206 413.5 1158 c 128,-1,37
 360 1110 360 1110 352 1022 c 1,38,-1
 71 1042 l 1,39,40
 83 1141 83 1141 125.5 1214 c 128,-1,41
 168 1287 168 1287 232.5 1335 c 128,-1,42
 297 1383 297 1383 381 1406.5 c 128,-1,43
 465 1430 465 1430 559 1430 c 0,44,45
 683 1430 683 1430 772 1400 c 128,-1,46
 861 1370 861 1370 918 1319 c 128,-1,47
 975 1268 975 1268 1002 1200 c 128,-1,48
 1029 1132 1029 1132 1029 1055 c 0,49,50
 1029 993 1029 993 1011 939.5 c 128,-1,51
 993 886 993 886 956.5 843.5 c 128,-1,52
 920 801 920 801 863 770.5 c 128,-1,53
 806 740 806 740 728 725 c 1,54,-1
 728 721 l 1,55,56
 815 711 815 711 879 681.5 c 128,-1,57
 943 652 943 652 984 608 c 128,-1,58
 1025 564 1025 564 1045 508.5 c 128,-1,59
 1065 453 1065 453 1065 391 c 0,0,1
EndSplineSet
EndChar

StartChar: four
Encoding: 23 52 23
Width: 1139
GlyphClass: 2
Flags: W
LayerCount: 2
Fore
SplineSet
940 287 m 1,0,-1
 940 0 l 1,1,-1
 672 0 l 1,2,-1
 672 287 l 1,3,-1
 31 287 l 1,4,-1
 31 498 l 1,5,-1
 626 1409 l 1,6,-1
 940 1409 l 1,7,-1
 940 496 l 1,8,-1
 1128 496 l 1,9,-1
 1128 287 l 1,10,-1
 940 287 l 1,0,-1
672 957 m 2,11,12
 672 974 672 974 672.5 1001.5 c 128,-1,13
 673 1029 673 1029 674.5 1058 c 128,-1,14
 676 1087 676 1087 677.5 1113.5 c 128,-1,15
 679 1140 679 1140 681 1155 c 1,16,17
 676 1144 676 1144 665 1123.5 c 128,-1,18
 654 1103 654 1103 640.5 1079.5 c 128,-1,19
 627 1056 627 1056 612.5 1033 c 128,-1,20
 598 1010 598 1010 587 993 c 2,21,-1
 260 496 l 1,22,-1
 672 496 l 1,23,-1
 672 957 l 2,11,12
EndSplineSet
EndChar

StartChar: five
Encoding: 24 53 24
Width: 1139
GlyphClass: 2
Flags: W
LayerCount: 2
Fore
SplineSet
1082 469 m 0,0,1
 1082 363 1082 363 1048.5 273.5 c 128,-1,2
 1015 184 1015 184 949 118.5 c 128,-1,3
 883 53 883 53 785.5 16.5 c 128,-1,4
 688 -20 688 -20 560 -20 c 0,5,6
 442 -20 442 -20 354 8.5 c 128,-1,7
 266 37 266 37 205.5 87.5 c 128,-1,8
 145 138 145 138 110.5 206 c 128,-1,9
 76 274 76 274 63 352 c 1,10,-1
 344 375 l 1,11,12
 352 342 352 342 366.5 311 c 128,-1,13
 381 280 381 280 407 256 c 128,-1,14
 433 232 433 232 471 217.5 c 128,-1,15
 509 203 509 203 563 203 c 0,16,17
 668 203 668 203 730.5 270 c 128,-1,18
 793 337 793 337 793 463 c 0,19,20
 793 519 793 519 777.5 564 c 128,-1,21
 762 609 762 609 733.5 641 c 128,-1,22
 705 673 705 673 663.5 690 c 128,-1,23
 622 707 622 707 569 707 c 0,24,25
 499 707 499 707 454 680.5 c 128,-1,26
 409 654 409 654 378 616 c 1,27,-1
 104 616 l 1,28,-1
 153 1409 l 1,29,-1
 1000 1409 l 1,30,-1
 1000 1200 l 1,31,-1
 408 1200 l 1,32,-1
 385 844 l 1,33,34
 427 881 427 881 491 907.5 c 128,-1,35
 555 934 555 934 640 934 c 0,36,37
 744 934 744 934 826 900 c 128,-1,38
 908 866 908 866 965 805 c 128,-1,39
 1022 744 1022 744 1052 658.5 c 128,-1,40
 1082 573 1082 573 1082 469 c 0,0,1
EndSplineSet
EndChar

StartChar: six
Encoding: 25 54 25
Width: 1139
GlyphClass: 2
Flags: W
LayerCount: 2
Fore
SplineSet
1065 461 m 0,0,1
 1065 355 1065 355 1035 266.5 c 128,-1,2
 1005 178 1005 178 945.5 114.5 c 128,-1,3
 886 51 886 51 797 15.5 c 128,-1,4
 708 -20 708 -20 591 -20 c 0,5,6
 342 -20 342 -20 208.5 154.5 c 128,-1,7
 75 329 75 329 75 672 c 0,8,9
 75 1049 75 1049 210.5 1239.5 c 128,-1,10
 346 1430 346 1430 598 1430 c 0,11,12
 682 1430 682 1430 751 1412.5 c 128,-1,13
 820 1395 820 1395 874 1356 c 128,-1,14
 928 1317 928 1317 966 1255.5 c 128,-1,15
 1004 1194 1004 1194 1027 1106 c 1,16,-1
 762 1069 l 1,17,18
 742 1143 742 1143 697 1175.5 c 128,-1,19
 652 1208 652 1208 592 1208 c 0,20,21
 479 1208 479 1208 414.5 1095 c 128,-1,22
 350 982 350 982 350 752 c 1,23,24
 395 827 395 827 475 867 c 128,-1,25
 555 907 555 907 656 907 c 0,26,27
 749 907 749 907 824.5 876.5 c 128,-1,28
 900 846 900 846 953.5 788.5 c 128,-1,29
 1007 731 1007 731 1036 648 c 128,-1,30
 1065 565 1065 565 1065 461 c 0,0,1
783 453 m 0,31,32
 783 510 783 510 770 555.5 c 128,-1,33
 757 601 757 601 730.5 633 c 128,-1,34
 704 665 704 665 665 682.5 c 128,-1,35
 626 700 626 700 575 700 c 0,36,37
 538 700 538 700 501 688 c 128,-1,38
 464 676 464 676 435 649.5 c 128,-1,39
 406 623 406 623 388 582 c 128,-1,40
 370 541 370 541 370 483 c 0,41,42
 370 423 370 423 385 371 c 128,-1,43
 400 319 400 319 427.5 280.5 c 128,-1,44
 455 242 455 242 494 220.5 c 128,-1,45
 533 199 533 199 582 199 c 0,46,47
 677 199 677 199 730 266.5 c 128,-1,48
 783 334 783 334 783 453 c 0,31,32
EndSplineSet
EndChar

StartChar: seven
Encoding: 26 55 26
Width: 1139
GlyphClass: 2
Flags: W
LayerCount: 2
Fore
SplineSet
1049 1186 m 1,0,1
 954 1036 954 1036 869.5 895 c 128,-1,2
 785 754 785 754 722 611.5 c 128,-1,3
 659 469 659 469 622.5 318.5 c 128,-1,4
 586 168 586 168 586 0 c 1,5,-1
 293 0 l 1,6,7
 293 167 293 167 332.5 317.5 c 128,-1,8
 372 468 372 468 440 611 c 128,-1,9
 508 754 508 754 598 893.5 c 128,-1,10
 688 1033 688 1033 788 1178 c 1,11,-1
 88 1178 l 1,12,-1
 88 1409 l 1,13,-1
 1049 1409 l 1,14,-1
 1049 1186 l 1,0,1
EndSplineSet
EndChar

StartChar: eight
Encoding: 27 56 27
Width: 1139
GlyphClass: 2
Flags: W
LayerCount: 2
Fore
SplineSet
1076 397 m 0,0,1
 1076 306 1076 306 1046 229.5 c 128,-1,2
 1016 153 1016 153 954 97.5 c 128,-1,3
 892 42 892 42 797 11 c 128,-1,4
 702 -20 702 -20 571 -20 c 0,5,6
 441 -20 441 -20 345.5 11 c 128,-1,7
 250 42 250 42 187.5 97.5 c 128,-1,8
 125 153 125 153 95 229 c 128,-1,9
 65 305 65 305 65 395 c 0,10,11
 65 472 65 472 89 531.5 c 128,-1,12
 113 591 113 591 153 634 c 128,-1,13
 193 677 193 677 245 702.5 c 128,-1,14
 297 728 297 728 352 737 c 1,15,-1
 352 741 l 1,16,17
 293 754 293 754 246 784 c 128,-1,18
 199 814 199 814 166 856 c 128,-1,19
 133 898 133 898 115.5 949.5 c 128,-1,20
 98 1001 98 1001 98 1057 c 0,21,22
 98 1141 98 1141 128.5 1210 c 128,-1,23
 159 1279 159 1279 218 1328 c 128,-1,24
 277 1377 277 1377 364.5 1403.5 c 128,-1,25
 452 1430 452 1430 567 1430 c 0,26,27
 690 1430 690 1430 779.5 1402.5 c 128,-1,28
 869 1375 869 1375 927 1325.5 c 128,-1,29
 985 1276 985 1276 1013 1207 c 128,-1,30
 1041 1138 1041 1138 1041 1055 c 0,31,32
 1041 1000 1041 1000 1023.5 948.5 c 128,-1,33
 1006 897 1006 897 973 855 c 128,-1,34
 940 813 940 813 892.5 784 c 128,-1,35
 845 755 845 755 785 743 c 1,36,-1
 785 739 l 1,37,38
 847 729 847 729 900.5 702.5 c 128,-1,39
 954 676 954 676 993 633.5 c 128,-1,40
 1032 591 1032 591 1054 531.5 c 128,-1,41
 1076 472 1076 472 1076 397 c 0,0,1
752 1040 m 0,42,43
 752 1082 752 1082 743 1117.5 c 128,-1,44
 734 1153 734 1153 713 1178.5 c 128,-1,45
 692 1204 692 1204 656.5 1218.5 c 128,-1,46
 621 1233 621 1233 567 1233 c 0,47,48
 515 1233 515 1233 480 1218.5 c 128,-1,49
 445 1204 445 1204 424 1178.5 c 128,-1,50
 403 1153 403 1153 394 1117.5 c 128,-1,51
 385 1082 385 1082 385 1040 c 0,52,53
 385 1003 385 1003 392.5 967 c 128,-1,54
 400 931 400 931 420 902.5 c 128,-1,55
 440 874 440 874 476 856 c 128,-1,56
 512 838 512 838 569 838 c 0,57,58
 629 838 629 838 665.5 856 c 128,-1,59
 702 874 702 874 721 903 c 128,-1,60
 740 932 740 932 746 968 c 128,-1,61
 752 1004 752 1004 752 1040 c 0,42,43
785 420 m 0,62,63
 785 463 785 463 775.5 503 c 128,-1,64
 766 543 766 543 741.5 573.5 c 128,-1,65
 717 604 717 604 674 622.5 c 128,-1,66
 631 641 631 641 565 641 c 0,67,68
 505 641 505 641 464.5 622.5 c 128,-1,69
 424 604 424 604 399.5 573 c 128,-1,70
 375 542 375 542 364.5 501.5 c 128,-1,71
 354 461 354 461 354 416 c 0,72,73
 354 363 354 363 364.5 319 c 128,-1,74
 375 275 375 275 400.5 243.5 c 128,-1,75
 426 212 426 212 468 195 c 128,-1,76
 510 178 510 178 573 178 c 256,77,78
 636 178 636 178 677 195.5 c 128,-1,79
 718 213 718 213 742 245 c 128,-1,80
 766 277 766 277 775.5 321.5 c 128,-1,81
 785 366 785 366 785 420 c 0,62,63
EndSplineSet
EndChar

StartChar: nine
Encoding: 28 57 28
Width: 1139
GlyphClass: 2
Flags: W
LayerCount: 2
Fore
SplineSet
1063 727 m 0,0,1
 1063 352 1063 352 926 166 c 128,-1,2
 789 -20 789 -20 537 -20 c 0,3,4
 446 -20 446 -20 373.5 -1 c 128,-1,5
 301 18 301 18 247 58 c 128,-1,6
 193 98 193 98 155.5 161 c 128,-1,7
 118 224 118 224 96 311 c 1,8,-1
 360 348 l 1,9,10
 380 273 380 273 425.5 237 c 128,-1,11
 471 201 471 201 540 201 c 0,12,13
 597 201 597 201 642 228 c 128,-1,14
 687 255 687 255 719 310 c 128,-1,15
 751 365 751 365 768.5 449.5 c 128,-1,16
 786 534 786 534 787 649 c 1,17,18
 767 610 767 610 734 580 c 128,-1,19
 701 550 701 550 659.5 530 c 128,-1,20
 618 510 618 510 571 499.5 c 128,-1,21
 524 489 524 489 476 489 c 0,22,23
 384 489 384 489 309 521.5 c 128,-1,24
 234 554 234 554 181 615 c 128,-1,25
 128 676 128 676 99.5 762.5 c 128,-1,26
 71 849 71 849 71 958 c 0,27,28
 71 1070 71 1070 104.5 1158 c 128,-1,29
 138 1246 138 1246 201 1306.5 c 128,-1,30
 264 1367 264 1367 355.5 1398.5 c 128,-1,31
 447 1430 447 1430 563 1430 c 0,32,33
 685 1430 685 1430 778.5 1388.5 c 128,-1,34
 872 1347 872 1347 935 1260.5 c 128,-1,35
 998 1174 998 1174 1030.5 1041.5 c 128,-1,36
 1063 909 1063 909 1063 727 c 0,0,1
766 924 m 0,37,38
 766 984 766 984 752.5 1036.5 c 128,-1,39
 739 1089 739 1089 712 1127.5 c 128,-1,40
 685 1166 685 1166 646 1188 c 128,-1,41
 607 1210 607 1210 556 1210 c 0,42,43
 509 1210 509 1210 472 1192.5 c 128,-1,44
 435 1175 435 1175 409 1142 c 128,-1,45
 383 1109 383 1109 369.5 1062 c 128,-1,46
 356 1015 356 1015 356 956 c 0,47,48
 356 901 356 901 369 853.5 c 128,-1,49
 382 806 382 806 407 771.5 c 128,-1,50
 432 737 432 737 470 717.5 c 128,-1,51
 508 698 508 698 557 698 c 0,52,53
 596 698 596 698 633.5 712 c 128,-1,54
 671 726 671 726 700.5 754 c 128,-1,55
 730 782 730 782 748 824.5 c 128,-1,56
 766 867 766 867 766 924 c 0,37,38
EndSplineSet
EndChar

StartChar: colon
Encoding: 29 58 29
Width: 682
GlyphClass: 2
Flags: W
LayerCount: 2
Fore
SplineSet
197 752 m 1,0,-1
 197 1034 l 1,1,-1
 485 1034 l 1,2,-1
 485 752 l 1,3,-1
 197 752 l 1,0,-1
197 0 m 1,4,-1
 197 281 l 1,5,-1
 485 281 l 1,6,-1
 485 0 l 1,7,-1
 197 0 l 1,4,-1
EndSplineSet
EndChar

StartChar: semicolon
Encoding: 30 59 30
AltUni2: 00037e.ffffffff.0
Width: 682
GlyphClass: 2
Flags: W
LayerCount: 2
Fore
SplineSet
199 752 m 1,0,-1
 199 1034 l 1,1,-1
 487 1034 l 1,2,-1
 487 752 l 1,3,-1
 199 752 l 1,0,-1
487 66 m 2,4,5
 487 -1 487 -1 479.5 -56 c 128,-1,6
 472 -111 472 -111 458 -157.5 c 128,-1,7
 444 -204 444 -204 424 -243 c 128,-1,8
 404 -282 404 -282 379 -317 c 1,9,-1
 195 -317 l 1,10,11
 223 -282 223 -282 247.5 -243 c 128,-1,12
 272 -204 272 -204 290 -163 c 128,-1,13
 308 -122 308 -122 318 -81 c 128,-1,14
 328 -40 328 -40 328 0 c 1,15,-1
 199 0 l 1,16,-1
 199 281 l 1,17,-1
 487 281 l 1,18,-1
 487 66 l 2,4,5
EndSplineSet
EndChar

StartChar: less
Encoding: 31 60 31
Width: 1196
GlyphClass: 2
Flags: W
LayerCount: 2
Fore
SplineSet
86 516 m 1,0,-1
 86 838 l 1,1,-1
 1113 1229 l 1,2,-1
 1113 1001 l 1,3,-1
 280 676 l 1,4,-1
 1113 352 l 1,5,-1
 1113 125 l 1,6,-1
 86 516 l 1,0,-1
EndSplineSet
EndChar

StartChar: equal
Encoding: 32 61 32
Width: 1196
GlyphClass: 2
Flags: W
LayerCount: 2
Fore
SplineSet
85 842 m 1,0,-1
 85 1065 l 1,1,-1
 1112 1065 l 1,2,-1
 1112 842 l 1,3,-1
 85 842 l 1,0,-1
85 291 m 1,4,-1
 85 512 l 1,5,-1
 1112 512 l 1,6,-1
 1112 291 l 1,7,-1
 85 291 l 1,4,-1
EndSplineSet
EndChar

StartChar: greater
Encoding: 33 62 33
Width: 1196
GlyphClass: 2
Flags: W
LayerCount: 2
Fore
SplineSet
86 125 m 1,0,-1
 86 352 l 1,1,-1
 918 676 l 1,2,-1
 86 1001 l 1,3,-1
 86 1229 l 1,4,-1
 1113 838 l 1,5,-1
 1113 516 l 1,6,-1
 86 125 l 1,0,-1
EndSplineSet
EndChar

StartChar: question
Encoding: 34 63 34
Width: 1251
GlyphClass: 2
Flags: W
LayerCount: 2
Fore
SplineSet
1133 1026 m 0,0,1
 1133 960 1133 960 1115.5 910 c 128,-1,2
 1098 860 1098 860 1069 820.5 c 128,-1,3
 1040 781 1040 781 1003 749.5 c 128,-1,4
 966 718 966 718 927 690 c 128,-1,5
 888 662 888 662 850.5 635 c 128,-1,6
 813 608 813 608 783 577.5 c 128,-1,7
 753 547 753 547 734 510.5 c 128,-1,8
 715 474 715 474 713 426 c 1,9,-1
 446 426 l 1,10,11
 451 511 451 511 482.5 571.5 c 128,-1,12
 514 632 514 632 559 677 c 128,-1,13
 604 722 604 722 655 757.5 c 128,-1,14
 706 793 706 793 749.5 830 c 128,-1,15
 793 867 793 867 821.5 910.5 c 128,-1,16
 850 954 850 954 850 1014 c 0,17,18
 850 1102 850 1102 792.5 1153 c 128,-1,19
 735 1204 735 1204 629 1204 c 0,20,21
 578 1204 578 1204 535 1188.5 c 128,-1,22
 492 1173 492 1173 459.5 1145 c 128,-1,23
 427 1117 427 1117 406 1077 c 128,-1,24
 385 1037 385 1037 379 989 c 1,25,-1
 94 1001 l 1,26,27
 106 1090 106 1090 143.5 1168 c 128,-1,28
 181 1246 181 1246 246 1304 c 128,-1,29
 311 1362 311 1362 405.5 1396 c 128,-1,30
 500 1430 500 1430 625 1430 c 0,31,32
 745 1430 745 1430 839 1402 c 128,-1,33
 933 1374 933 1374 998.5 1321.5 c 128,-1,34
 1064 1269 1064 1269 1098.5 1194 c 128,-1,35
 1133 1119 1133 1119 1133 1026 c 0,0,1
438 0 m 1,36,-1
 438 270 l 1,37,-1
 727 270 l 1,38,-1
 727 0 l 1,39,-1
 438 0 l 1,36,-1
EndSplineSet
EndChar

StartChar: at
Encoding: 35 64 35
Width: 1997
GlyphClass: 2
Flags: W
LayerCount: 2
Fore
SplineSet
1878 725 m 0,0,1
 1878 581 1878 581 1840 461.5 c 128,-1,2
 1802 342 1802 342 1736.5 256 c 128,-1,3
 1671 170 1671 170 1583.5 122 c 128,-1,4
 1496 74 1496 74 1397 74 c 0,5,6
 1355 74 1355 74 1319.5 84.5 c 128,-1,7
 1284 95 1284 95 1259 116.5 c 128,-1,8
 1234 138 1234 138 1220 170.5 c 128,-1,9
 1206 203 1206 203 1206 246 c 0,10,11
 1206 260 1206 260 1207.5 279 c 128,-1,12
 1209 298 1209 298 1212 313 c 1,13,-1
 1206 313 l 1,14,15
 1185 269 1185 269 1150 226 c 128,-1,16
 1115 183 1115 183 1069.5 149.5 c 128,-1,17
 1024 116 1024 116 969.5 95 c 128,-1,18
 915 74 915 74 856 74 c 0,19,20
 761 74 761 74 697.5 108 c 128,-1,21
 634 142 634 142 596 197 c 128,-1,22
 558 252 558 252 542 321 c 128,-1,23
 526 390 526 390 526 459 c 0,24,25
 526 574 526 574 560 684 c 128,-1,26
 594 794 594 794 658 880 c 128,-1,27
 722 966 722 966 815 1018.5 c 128,-1,28
 908 1071 908 1071 1026 1071 c 0,29,30
 1128 1071 1128 1071 1193 1024.5 c 128,-1,31
 1258 978 1258 978 1290 897 c 1,32,-1
 1296 897 l 1,33,-1
 1335 1049 l 1,34,-1
 1491 1049 l 1,35,-1
 1374 543 l 2,36,37
 1357 464 1357 464 1347 402 c 128,-1,38
 1337 340 1337 340 1337 303 c 0,39,40
 1337 253 1337 253 1360.5 232 c 128,-1,41
 1384 211 1384 211 1415 211 c 0,42,43
 1474 211 1474 211 1529.5 249 c 128,-1,44
 1585 287 1585 287 1629 355 c 128,-1,45
 1673 423 1673 423 1699.5 517 c 128,-1,46
 1726 611 1726 611 1726 723 c 0,47,48
 1726 849 1726 849 1685 957 c 128,-1,49
 1644 1065 1644 1065 1564 1144 c 128,-1,50
 1484 1223 1484 1223 1366 1268 c 128,-1,51
 1248 1313 1248 1313 1094 1313 c 0,52,53
 961 1313 961 1313 849 1281.5 c 128,-1,54
 737 1250 737 1250 646.5 1193 c 128,-1,55
 556 1136 556 1136 487.5 1057 c 128,-1,56
 419 978 419 978 372.5 883.5 c 128,-1,57
 326 789 326 789 302.5 682 c 128,-1,58
 279 575 279 575 279 461 c 0,59,60
 279 374 279 374 296 292.5 c 128,-1,61
 313 211 313 211 347.5 140 c 128,-1,62
 382 69 382 69 434.5 10 c 128,-1,63
 487 -49 487 -49 558 -91 c 128,-1,64
 629 -133 629 -133 719.5 -156.5 c 128,-1,65
 810 -180 810 -180 920 -180 c 0,66,67
 1006 -180 1006 -180 1086 -168 c 128,-1,68
 1166 -156 1166 -156 1239.5 -135 c 128,-1,69
 1313 -114 1313 -114 1380.5 -85.5 c 128,-1,70
 1448 -57 1448 -57 1509 -25 c 1,71,-1
 1571 -147 l 1,72,73
 1511 -181 1511 -181 1442 -213 c 128,-1,74
 1373 -245 1373 -245 1292 -269.5 c 128,-1,75
 1211 -294 1211 -294 1117 -309 c 128,-1,76
 1023 -324 1023 -324 913 -324 c 0,77,78
 783 -324 783 -324 673 -295.5 c 128,-1,79
 563 -267 563 -267 474.5 -215.5 c 128,-1,80
 386 -164 386 -164 319 -92 c 128,-1,81
 252 -20 252 -20 207 67 c 128,-1,82
 162 154 162 154 139.5 254 c 128,-1,83
 117 354 117 354 117 461 c 0,84,85
 117 600 117 600 148.5 728 c 128,-1,86
 180 856 180 856 239.5 966 c 128,-1,87
 299 1076 299 1076 384.5 1166 c 128,-1,88
 470 1256 470 1256 578.5 1320 c 128,-1,89
 687 1384 687 1384 816.5 1419 c 128,-1,90
 946 1454 946 1454 1092 1454 c 0,91,92
 1295 1454 1295 1454 1443.5 1395 c 128,-1,93
 1592 1336 1592 1336 1688.5 1236 c 128,-1,94
 1785 1136 1785 1136 1831.5 1004 c 128,-1,95
 1878 872 1878 872 1878 725 c 0,0,1
1231 721 m 0,96,97
 1231 768 1231 768 1215.5 807.5 c 128,-1,98
 1200 847 1200 847 1172 875.5 c 128,-1,99
 1144 904 1144 904 1105 920 c 128,-1,100
 1066 936 1066 936 1018 936 c 0,101,102
 963 936 963 936 917 915.5 c 128,-1,103
 871 895 871 895 835 860 c 128,-1,104
 799 825 799 825 772 778.5 c 128,-1,105
 745 732 745 732 727.5 679 c 128,-1,106
 710 626 710 626 701 570 c 128,-1,107
 692 514 692 514 692 461 c 0,108,109
 692 347 692 347 740.5 281 c 128,-1,110
 789 215 789 215 889 215 c 0,111,112
 937 215 937 215 984.5 238 c 128,-1,113
 1032 261 1032 261 1074 305.5 c 128,-1,114
 1116 350 1116 350 1150.5 415.5 c 128,-1,115
 1185 481 1185 481 1206 565 c 0,116,117
 1211 583 1211 583 1215.5 604.5 c 128,-1,118
 1220 626 1220 626 1223.5 647 c 128,-1,119
 1227 668 1227 668 1229 687 c 128,-1,120
 1231 706 1231 706 1231 721 c 0,96,97
EndSplineSet
EndChar

StartChar: A
Encoding: 36 65 36
Width: 1479
GlyphClass: 2
Flags: W
LayerCount: 2
Fore
SplineSet
1133 0 m 1,0,-1
 1008 360 l 1,1,-1
 471 360 l 1,2,-1
 346 0 l 1,3,-1
 51 0 l 1,4,-1
 565 1409 l 1,5,-1
 913 1409 l 1,6,-1
 1425 0 l 1,7,-1
 1133 0 l 1,0,-1
803 987 m 2,8,9
 791 1022 791 1022 779.5 1057.5 c 128,-1,10
 768 1093 768 1093 759.5 1122.5 c 128,-1,11
 751 1152 751 1152 745.5 1171 c 128,-1,12
 740 1190 740 1190 739 1192 c 1,13,14
 738 1189 738 1189 733 1170 c 128,-1,15
 728 1151 728 1151 719.5 1122 c 128,-1,16
 711 1093 711 1093 699.5 1057.5 c 128,-1,17
 688 1022 688 1022 676 987 c 2,18,-1
 537 582 l 1,19,-1
 942 582 l 1,20,-1
 803 987 l 2,8,9
EndSplineSet
EndChar

StartChar: B
Encoding: 37 66 37
Width: 1479
GlyphClass: 2
Flags: W
LayerCount: 2
Fore
SplineSet
1386 402 m 0,0,1
 1386 295 1386 295 1343 218.5 c 128,-1,2
 1300 142 1300 142 1225.5 93.5 c 128,-1,3
 1151 45 1151 45 1052 22.5 c 128,-1,4
 953 0 953 0 842 0 c 2,5,-1
 137 0 l 1,6,-1
 137 1409 l 1,7,-1
 782 1409 l 2,8,9
 907 1409 907 1409 1004.5 1387.5 c 128,-1,10
 1102 1366 1102 1366 1169 1322 c 128,-1,11
 1236 1278 1236 1278 1270.5 1211.5 c 128,-1,12
 1305 1145 1305 1145 1305 1055 c 0,13,14
 1305 935 1305 935 1238.5 852.5 c 128,-1,15
 1172 770 1172 770 1036 741 c 1,16,17
 1207 721 1207 721 1296.5 633.5 c 128,-1,18
 1386 546 1386 546 1386 402 c 0,0,1
1008 1015 m 0,19,20
 1008 1110 1008 1110 947.5 1150 c 128,-1,21
 887 1190 887 1190 768 1190 c 2,22,-1
 432 1190 l 1,23,-1
 432 841 l 1,24,-1
 770 841 l 2,25,26
 895 841 895 841 951.5 884.5 c 128,-1,27
 1008 928 1008 928 1008 1015 c 0,19,20
1090 425 m 0,28,29
 1090 481 1090 481 1068 519 c 128,-1,30
 1046 557 1046 557 1007.5 580 c 128,-1,31
 969 603 969 603 917.5 613 c 128,-1,32
 866 623 866 623 806 623 c 2,33,-1
 432 623 l 1,34,-1
 432 219 l 1,35,-1
 817 219 l 2,36,37
 875 219 875 219 925 228.5 c 128,-1,38
 975 238 975 238 1011.5 261.5 c 128,-1,39
 1048 285 1048 285 1069 325 c 128,-1,40
 1090 365 1090 365 1090 425 c 0,28,29
EndSplineSet
EndChar

StartChar: C
Encoding: 38 67 38
Width: 1479
GlyphClass: 2
Flags: W
LayerCount: 2
Fore
SplineSet
795 212 m 0,0,1
 878 212 878 212 938.5 235.5 c 128,-1,2
 999 259 999 259 1043.5 297 c 128,-1,3
 1088 335 1088 335 1117.5 383 c 128,-1,4
 1147 431 1147 431 1166 480 c 1,5,-1
 1423 383 l 1,6,7
 1392 307 1392 307 1342 234 c 128,-1,8
 1292 161 1292 161 1217 105 c 128,-1,9
 1142 49 1142 49 1038.5 14.5 c 128,-1,10
 935 -20 935 -20 795 -20 c 0,11,12
 612 -20 612 -20 478 34.5 c 128,-1,13
 344 89 344 89 256.5 186.5 c 128,-1,14
 169 284 169 284 126.5 418 c 128,-1,15
 84 552 84 552 84 711 c 0,16,17
 84 876 84 876 126.5 1009 c 128,-1,18
 169 1142 169 1142 255 1235.5 c 128,-1,19
 341 1329 341 1329 472.5 1379.5 c 128,-1,20
 604 1430 604 1430 782 1430 c 0,21,22
 920 1430 920 1430 1023.5 1401 c 128,-1,23
 1127 1372 1127 1372 1202.5 1319.5 c 128,-1,24
 1278 1267 1278 1267 1327.5 1195.5 c 128,-1,25
 1377 1124 1377 1124 1405 1038 c 1,26,-1
 1145 967 l 1,27,28
 1131 1012 1131 1012 1102 1053.5 c 128,-1,29
 1073 1095 1073 1095 1028.5 1127 c 128,-1,30
 984 1159 984 1159 924 1178.5 c 128,-1,31
 864 1198 864 1198 788 1198 c 0,32,33
 681 1198 681 1198 604 1163.5 c 128,-1,34
 527 1129 527 1129 477.5 1065 c 128,-1,35
 428 1001 428 1001 404.5 911.5 c 128,-1,36
 381 822 381 822 381 711 c 0,37,38
 381 601 381 601 404.5 509.5 c 128,-1,39
 428 418 428 418 478 352 c 128,-1,40
 528 286 528 286 606.5 249 c 128,-1,41
 685 212 685 212 795 212 c 0,0,1
EndSplineSet
EndChar

StartChar: D
Encoding: 39 68 39
Width: 1479
GlyphClass: 2
Flags: W
LayerCount: 2
Fore
SplineSet
1393 715 m 0,0,1
 1393 539 1393 539 1340 405.5 c 128,-1,2
 1287 272 1287 272 1195 182 c 128,-1,3
 1103 92 1103 92 977.5 46 c 128,-1,4
 852 0 852 0 707 0 c 2,5,-1
 137 0 l 1,6,-1
 137 1409 l 1,7,-1
 647 1409 l 2,8,9
 811 1409 811 1409 948 1368 c 128,-1,10
 1085 1327 1085 1327 1184 1242 c 128,-1,11
 1283 1157 1283 1157 1338 1026 c 128,-1,12
 1393 895 1393 895 1393 715 c 0,0,1
1096 715 m 0,13,14
 1096 838 1096 838 1062.5 926 c 128,-1,15
 1029 1014 1029 1014 969 1070.5 c 128,-1,16
 909 1127 909 1127 825.5 1154 c 128,-1,17
 742 1181 742 1181 641 1181 c 2,18,-1
 432 1181 l 1,19,-1
 432 228 l 1,20,-1
 682 228 l 2,21,22
 771 228 771 228 846.5 259 c 128,-1,23
 922 290 922 290 977.5 351.5 c 128,-1,24
 1033 413 1033 413 1064.5 504 c 128,-1,25
 1096 595 1096 595 1096 715 c 0,13,14
EndSplineSet
EndChar

StartChar: E
Encoding: 40 69 40
Width: 1366
GlyphClass: 2
Flags: W
LayerCount: 2
Fore
SplineSet
137 0 m 1,0,-1
 137 1409 l 1,1,-1
 1245 1409 l 1,2,-1
 1245 1181 l 1,3,-1
 432 1181 l 1,4,-1
 432 827 l 1,5,-1
 1184 827 l 1,6,-1
 1184 599 l 1,7,-1
 432 599 l 1,8,-1
 432 228 l 1,9,-1
 1286 228 l 1,10,-1
 1286 0 l 1,11,-1
 137 0 l 1,0,-1
EndSplineSet
EndChar

StartChar: F
Encoding: 41 70 41
Width: 1251
GlyphClass: 2
Flags: W
LayerCount: 2
Fore
SplineSet
432 1181 m 1,0,-1
 432 745 l 1,1,-1
 1153 745 l 1,2,-1
 1153 517 l 1,3,-1
 432 517 l 1,4,-1
 432 0 l 1,5,-1
 137 0 l 1,6,-1
 137 1409 l 1,7,-1
 1176 1409 l 1,8,-1
 1176 1181 l 1,9,-1
 432 1181 l 1,0,-1
EndSplineSet
EndChar

StartChar: G
Encoding: 42 71 42
Width: 1593
GlyphClass: 2
Flags: W
LayerCount: 2
Fore
SplineSet
806 211 m 0,0,1
 870 211 870 211 929 221 c 128,-1,2
 988 231 988 231 1038.5 247.5 c 128,-1,3
 1089 264 1089 264 1129.5 285.5 c 128,-1,4
 1170 307 1170 307 1196 330 c 1,5,-1
 1196 525 l 1,6,-1
 852 525 l 1,7,-1
 852 743 l 1,8,-1
 1466 743 l 1,9,-1
 1466 225 l 1,10,11
 1418 176 1418 176 1350 131.5 c 128,-1,12
 1282 87 1282 87 1197 53.5 c 128,-1,13
 1112 20 1112 20 1011.5 0 c 128,-1,14
 911 -20 911 -20 798 -20 c 0,15,16
 611 -20 611 -20 476 34.5 c 128,-1,17
 341 89 341 89 254 186.5 c 128,-1,18
 167 284 167 284 125.5 418 c 128,-1,19
 84 552 84 552 84 711 c 0,20,21
 84 876 84 876 128 1009 c 128,-1,22
 172 1142 172 1142 261.5 1235.5 c 128,-1,23
 351 1329 351 1329 486.5 1379.5 c 128,-1,24
 622 1430 622 1430 805 1430 c 0,25,26
 938 1430 938 1430 1041.5 1404 c 128,-1,27
 1145 1378 1145 1378 1222.5 1330 c 128,-1,28
 1300 1282 1300 1282 1352.5 1214.5 c 128,-1,29
 1405 1147 1405 1147 1436 1063 c 1,30,-1
 1164 981 l 1,31,32
 1146 1025 1146 1025 1116 1064.5 c 128,-1,33
 1086 1104 1086 1104 1041.5 1133.5 c 128,-1,34
 997 1163 997 1163 938.5 1180.5 c 128,-1,35
 880 1198 880 1198 805 1198 c 0,36,37
 695 1198 695 1198 615 1163.5 c 128,-1,38
 535 1129 535 1129 483 1065 c 128,-1,39
 431 1001 431 1001 406 911.5 c 128,-1,40
 381 822 381 822 381 711 c 0,41,42
 381 601 381 601 406.5 509 c 128,-1,43
 432 417 432 417 484.5 351 c 128,-1,44
 537 285 537 285 617 248 c 128,-1,45
 697 211 697 211 806 211 c 0,0,1
EndSplineSet
EndChar

StartChar: H
Encoding: 43 72 43
Width: 1479
GlyphClass: 2
Flags: W
LayerCount: 2
Fore
SplineSet
1046 0 m 1,0,-1
 1046 604 l 1,1,-1
 432 604 l 1,2,-1
 432 0 l 1,3,-1
 137 0 l 1,4,-1
 137 1409 l 1,5,-1
 432 1409 l 1,6,-1
 432 848 l 1,7,-1
 1046 848 l 1,8,-1
 1046 1409 l 1,9,-1
 1341 1409 l 1,10,-1
 1341 0 l 1,11,-1
 1046 0 l 1,0,-1
EndSplineSet
EndChar

StartChar: I
Encoding: 44 73 44
Width: 569
GlyphClass: 2
Flags: W
LayerCount: 2
Fore
SplineSet
137 0 m 1,0,-1
 137 1409 l 1,1,-1
 432 1409 l 1,2,-1
 432 0 l 1,3,-1
 137 0 l 1,0,-1
EndSplineSet
EndChar

StartChar: J
Encoding: 45 74 45
Width: 1139
GlyphClass: 2
Flags: W
LayerCount: 2
Fore
SplineSet
524 -20 m 0,0,1
 418 -20 418 -20 335 2 c 128,-1,2
 252 24 252 24 191 72 c 128,-1,3
 130 120 130 120 90.5 196.5 c 128,-1,4
 51 273 51 273 31 382 c 1,5,-1
 324 425 l 1,6,7
 334 366 334 366 352 325.5 c 128,-1,8
 370 285 370 285 395.5 259.5 c 128,-1,9
 421 234 421 234 454 222.5 c 128,-1,10
 487 211 487 211 526 211 c 0,11,12
 614 211 614 211 659.5 270 c 128,-1,13
 705 329 705 329 705 439 c 2,14,-1
 705 1178 l 1,15,-1
 424 1178 l 1,16,-1
 424 1409 l 1,17,-1
 999 1409 l 1,18,-1
 999 446 l 2,19,20
 999 339 999 339 968 252.5 c 128,-1,21
 937 166 937 166 876.5 105.5 c 128,-1,22
 816 45 816 45 727.5 12.5 c 128,-1,23
 639 -20 639 -20 524 -20 c 0,0,1
EndSplineSet
EndChar

StartChar: K
Encoding: 46 75 46
Width: 1479
GlyphClass: 2
Flags: W
LayerCount: 2
Fore
SplineSet
1112 0 m 1,0,-1
 606 647 l 1,1,-1
 432 514 l 1,2,-1
 432 0 l 1,3,-1
 137 0 l 1,4,-1
 137 1409 l 1,5,-1
 432 1409 l 1,6,-1
 432 770 l 1,7,-1
 1067 1409 l 1,8,-1
 1411 1409 l 1,9,-1
 809 813 l 1,10,-1
 1460 0 l 1,11,-1
 1112 0 l 1,0,-1
EndSplineSet
EndChar

StartChar: L
Encoding: 47 76 47
Width: 1251
GlyphClass: 2
Flags: W
LayerCount: 2
Fore
SplineSet
137 0 m 1,0,-1
 137 1409 l 1,1,-1
 432 1409 l 1,2,-1
 432 228 l 1,3,-1
 1188 228 l 1,4,-1
 1188 0 l 1,5,-1
 137 0 l 1,0,-1
EndSplineSet
EndChar

StartChar: M
Encoding: 48 77 48
Width: 1706
GlyphClass: 2
Flags: W
LayerCount: 2
Fore
SplineSet
1307 0 m 1,0,-1
 1307 854 l 2,1,2
 1307 905 1307 905 1308.5 959 c 128,-1,3
 1310 1013 1310 1013 1312 1058 c 0,4,5
 1315 1111 1315 1111 1317 1161 c 1,6,7
 1296 1082 1296 1082 1277 1011 c 0,8,9
 1269 981 1269 981 1260 949 c 128,-1,10
 1251 917 1251 917 1242.5 887 c 128,-1,11
 1234 857 1234 857 1226 831 c 128,-1,12
 1218 805 1218 805 1212 786 c 2,13,-1
 958 0 l 1,14,-1
 748 0 l 1,15,-1
 494 786 l 2,16,17
 488 805 488 805 480.5 831 c 128,-1,18
 473 857 473 857 464.5 887 c 128,-1,19
 456 917 456 917 447 949 c 128,-1,20
 438 981 438 981 429 1011 c 0,21,22
 409 1082 409 1082 387 1161 c 1,23,24
 390 1103 390 1103 393 1047 c 0,25,26
 395 999 395 999 397 946 c 128,-1,27
 399 893 399 893 399 854 c 2,28,-1
 399 0 l 1,29,-1
 137 0 l 1,30,-1
 137 1409 l 1,31,-1
 532 1409 l 1,32,-1
 784 621 l 2,33,34
 794 590 794 590 805.5 545 c 128,-1,35
 817 500 817 500 828 458 c 0,36,37
 840 409 840 409 854 356 c 1,38,39
 868 408 868 408 881 456 c 0,40,41
 887 477 887 477 893 499 c 128,-1,42
 899 521 899 521 905 542 c 128,-1,43
 911 563 911 563 917 582 c 128,-1,44
 923 601 923 601 928 616 c 2,45,-1
 1176 1409 l 1,46,-1
 1569 1409 l 1,47,-1
 1569 0 l 1,48,-1
 1307 0 l 1,0,-1
EndSplineSet
EndChar

StartChar: N
Encoding: 49 78 49
Width: 1479
GlyphClass: 2
Flags: W
LayerCount: 2
Fore
SplineSet
995 0 m 1,0,-1
 381 1085 l 1,1,2
 386 1041 386 1041 390 997 c 0,3,4
 394 959 394 959 396.5 915 c 128,-1,5
 399 871 399 871 399 831 c 2,6,-1
 399 0 l 1,7,-1
 137 0 l 1,8,-1
 137 1409 l 1,9,-1
 474 1409 l 1,10,-1
 1097 315 l 1,11,12
 1092 357 1092 357 1088 403 c 0,13,14
 1084 442 1084 442 1081.5 491 c 128,-1,15
 1079 540 1079 540 1079 590 c 2,16,-1
 1079 1409 l 1,17,-1
 1341 1409 l 1,18,-1
 1341 0 l 1,19,-1
 995 0 l 1,0,-1
EndSplineSet
EndChar

StartChar: O
Encoding: 50 79 50
Width: 1593
GlyphClass: 2
Flags: W
LayerCount: 2
Fore
SplineSet
1507 711 m 0,0,1
 1507 546 1507 546 1458 411 c 128,-1,2
 1409 276 1409 276 1317 180 c 128,-1,3
 1225 84 1225 84 1092.5 32 c 128,-1,4
 960 -20 960 -20 793 -20 c 0,5,6
 616 -20 616 -20 483.5 34.5 c 128,-1,7
 351 89 351 89 262 186.5 c 128,-1,8
 173 284 173 284 128.5 418 c 128,-1,9
 84 552 84 552 84 711 c 0,10,11
 84 876 84 876 130.5 1009 c 128,-1,12
 177 1142 177 1142 267.5 1235.5 c 128,-1,13
 358 1329 358 1329 490.5 1379.5 c 128,-1,14
 623 1430 623 1430 795 1430 c 256,15,16
 967 1430 967 1430 1099.5 1379 c 128,-1,17
 1232 1328 1232 1328 1322.5 1234 c 128,-1,18
 1413 1140 1413 1140 1460 1007.5 c 128,-1,19
 1507 875 1507 875 1507 711 c 0,0,1
1206 711 m 0,20,21
 1206 822 1206 822 1179.5 911.5 c 128,-1,22
 1153 1001 1153 1001 1101 1065 c 128,-1,23
 1049 1129 1049 1129 972.5 1163.5 c 128,-1,24
 896 1198 896 1198 795 1198 c 0,25,26
 692 1198 692 1198 614.5 1163.5 c 128,-1,27
 537 1129 537 1129 485 1065 c 128,-1,28
 433 1001 433 1001 407 911.5 c 128,-1,29
 381 822 381 822 381 711 c 0,30,31
 381 601 381 601 407.5 509.5 c 128,-1,32
 434 418 434 418 486 352 c 128,-1,33
 538 286 538 286 615 249 c 128,-1,34
 692 212 692 212 793 212 c 0,35,36
 901 212 901 212 979 249.5 c 128,-1,37
 1057 287 1057 287 1107.5 353.5 c 128,-1,38
 1158 420 1158 420 1182 511.5 c 128,-1,39
 1206 603 1206 603 1206 711 c 0,20,21
EndSplineSet
EndChar

StartChar: P
Encoding: 51 80 51
Width: 1366
GlyphClass: 2
Flags: W
LayerCount: 2
Fore
SplineSet
1296 963 m 0,0,1
 1296 872 1296 872 1265.5 787.5 c 128,-1,2
 1235 703 1235 703 1172 638 c 128,-1,3
 1109 573 1109 573 1012 534.5 c 128,-1,4
 915 496 915 496 782 496 c 2,5,-1
 432 496 l 1,6,-1
 432 0 l 1,7,-1
 137 0 l 1,8,-1
 137 1409 l 1,9,-1
 770 1409 l 2,10,11
 905 1409 905 1409 1004 1376.5 c 128,-1,12
 1103 1344 1103 1344 1168 1285 c 128,-1,13
 1233 1226 1233 1226 1264.5 1144 c 128,-1,14
 1296 1062 1296 1062 1296 963 c 0,0,1
999 958 m 0,15,16
 999 1067 999 1067 933.5 1123.5 c 128,-1,17
 868 1180 868 1180 737 1180 c 2,18,-1
 432 1180 l 1,19,-1
 432 723 l 1,20,-1
 745 723 l 2,21,22
 811 723 811 723 858.5 740 c 128,-1,23
 906 757 906 757 937.5 788 c 128,-1,24
 969 819 969 819 984 862.5 c 128,-1,25
 999 906 999 906 999 958 c 0,15,16
EndSplineSet
EndChar

StartChar: Q
Encoding: 52 81 52
Width: 1593
GlyphClass: 2
Flags: W
LayerCount: 2
Fore
SplineSet
1507 711 m 0,0,1
 1507 570 1507 570 1471.5 451.5 c 128,-1,2
 1436 333 1436 333 1368.5 241.5 c 128,-1,3
 1301 150 1301 150 1204 89.5 c 128,-1,4
 1107 29 1107 29 983 4 c 1,5,6
 1003 -54 1003 -54 1030 -90.5 c 128,-1,7
 1057 -127 1057 -127 1091 -147.5 c 128,-1,8
 1125 -168 1125 -168 1165 -175.5 c 128,-1,9
 1205 -183 1205 -183 1251 -183 c 0,10,11
 1280 -183 1280 -183 1310 -180.5 c 128,-1,12
 1340 -178 1340 -178 1370 -173 c 1,13,-1
 1368 -375 l 1,14,15
 1314 -387 1314 -387 1255 -395 c 128,-1,16
 1196 -403 1196 -403 1126 -403 c 0,17,18
 1031 -403 1031 -403 960 -374.5 c 128,-1,19
 889 -346 889 -346 836.5 -294.5 c 128,-1,20
 784 -243 784 -243 747.5 -170.5 c 128,-1,21
 711 -98 711 -98 684 -10 c 1,22,23
 534 4 534 4 421.5 63 c 128,-1,24
 309 122 309 122 234 217 c 128,-1,25
 159 312 159 312 121.5 438 c 128,-1,26
 84 564 84 564 84 711 c 0,27,28
 84 876 84 876 130.5 1009 c 128,-1,29
 177 1142 177 1142 267.5 1235.5 c 128,-1,30
 358 1329 358 1329 490.5 1379.5 c 128,-1,31
 623 1430 623 1430 795 1430 c 256,32,33
 967 1430 967 1430 1099.5 1379 c 128,-1,34
 1232 1328 1232 1328 1322.5 1234 c 128,-1,35
 1413 1140 1413 1140 1460 1007.5 c 128,-1,36
 1507 875 1507 875 1507 711 c 0,0,1
1206 711 m 0,37,38
 1206 822 1206 822 1179.5 911.5 c 128,-1,39
 1153 1001 1153 1001 1101 1065 c 128,-1,40
 1049 1129 1049 1129 972.5 1163.5 c 128,-1,41
 896 1198 896 1198 795 1198 c 0,42,43
 692 1198 692 1198 614.5 1163.5 c 128,-1,44
 537 1129 537 1129 485 1065 c 128,-1,45
 433 1001 433 1001 407 911.5 c 128,-1,46
 381 822 381 822 381 711 c 0,47,48
 381 601 381 601 407.5 509 c 128,-1,49
 434 417 434 417 486 351 c 128,-1,50
 538 285 538 285 615 248 c 128,-1,51
 692 211 692 211 793 211 c 0,52,53
 901 211 901 211 979 248.5 c 128,-1,54
 1057 286 1057 286 1107.5 352.5 c 128,-1,55
 1158 419 1158 419 1182 511 c 128,-1,56
 1206 603 1206 603 1206 711 c 0,37,38
EndSplineSet
EndChar

StartChar: R
Encoding: 53 82 53
Width: 1479
GlyphClass: 2
Flags: W
LayerCount: 2
Fore
SplineSet
1105 0 m 1,0,-1
 778 535 l 1,1,-1
 432 535 l 1,2,-1
 432 0 l 1,3,-1
 137 0 l 1,4,-1
 137 1409 l 1,5,-1
 841 1409 l 2,6,7
 973 1409 973 1409 1071.5 1379.5 c 128,-1,8
 1170 1350 1170 1350 1236 1295.5 c 128,-1,9
 1302 1241 1302 1241 1334.5 1163.5 c 128,-1,10
 1367 1086 1367 1086 1367 989 c 0,11,12
 1367 910 1367 910 1343.5 844.5 c 128,-1,13
 1320 779 1320 779 1278.5 728 c 128,-1,14
 1237 677 1237 677 1180 642.5 c 128,-1,15
 1123 608 1123 608 1056 592 c 1,16,-1
 1437 0 l 1,17,-1
 1105 0 l 1,0,-1
1070 977 m 0,18,19
 1070 1080 1070 1080 1002.5 1130 c 128,-1,20
 935 1180 935 1180 810 1180 c 2,21,-1
 432 1180 l 1,22,-1
 432 764 l 1,23,-1
 818 764 l 2,24,25
 884 764 884 764 931.5 779.5 c 128,-1,26
 979 795 979 795 1009.5 823.5 c 128,-1,27
 1040 852 1040 852 1055 891 c 128,-1,28
 1070 930 1070 930 1070 977 c 0,18,19
EndSplineSet
EndChar

StartChar: S
Encoding: 54 83 54
Width: 1366
GlyphClass: 2
Flags: W
LayerCount: 2
Fore
SplineSet
1286 406 m 0,0,1
 1286 310 1286 310 1251 231.5 c 128,-1,2
 1216 153 1216 153 1142.5 97 c 128,-1,3
 1069 41 1069 41 954.5 10.5 c 128,-1,4
 840 -20 840 -20 682 -20 c 0,5,6
 542 -20 542 -20 435 5 c 128,-1,7
 328 30 328 30 251.5 79 c 128,-1,8
 175 128 175 128 127.5 200.5 c 128,-1,9
 80 273 80 273 59 367 c 1,10,-1
 344 414 l 1,11,12
 356 367 356 367 379 328 c 128,-1,13
 402 289 402 289 442.5 260.5 c 128,-1,14
 483 232 483 232 543.5 216.5 c 128,-1,15
 604 201 604 201 690 201 c 0,16,17
 840 201 840 201 919.5 246.5 c 128,-1,18
 999 292 999 292 999 389 c 0,19,20
 999 447 999 447 967 484 c 128,-1,21
 935 521 935 521 882 545 c 128,-1,22
 829 569 829 569 760 585 c 128,-1,23
 691 601 691 601 616 616 c 0,24,25
 556 630 556 630 496 645 c 128,-1,26
 436 660 436 660 381.5 681 c 128,-1,27
 327 702 327 702 280 731 c 128,-1,28
 233 760 233 760 198.5 802.5 c 128,-1,29
 164 845 164 845 144.5 902 c 128,-1,30
 125 959 125 959 125 1036 c 0,31,32
 125 1141 125 1141 167 1216 c 128,-1,33
 209 1291 209 1291 283.5 1338.5 c 128,-1,34
 358 1386 358 1386 461 1408 c 128,-1,35
 564 1430 564 1430 686 1430 c 0,36,37
 824 1430 824 1430 922.5 1408.5 c 128,-1,38
 1021 1387 1021 1387 1087.5 1343 c 128,-1,39
 1154 1299 1154 1299 1192.5 1232.5 c 128,-1,40
 1231 1166 1231 1166 1249 1077 c 1,41,-1
 963 1038 l 1,42,43
 941 1129 941 1129 873.5 1175 c 128,-1,44
 806 1221 806 1221 680 1221 c 0,45,46
 602 1221 602 1221 550.5 1207.5 c 128,-1,47
 499 1194 499 1194 468.5 1171 c 128,-1,48
 438 1148 438 1148 425 1117.5 c 128,-1,49
 412 1087 412 1087 412 1053 c 0,50,51
 412 1001 412 1001 437 967.5 c 128,-1,52
 462 934 462 934 507 911.5 c 128,-1,53
 552 889 552 889 614.5 873.5 c 128,-1,54
 677 858 677 858 752 842 c 0,55,56
 818 828 818 828 883 812.5 c 128,-1,57
 948 797 948 797 1007 776 c 128,-1,58
 1066 755 1066 755 1117 725 c 128,-1,59
 1168 695 1168 695 1205.5 651.5 c 128,-1,60
 1243 608 1243 608 1264.5 548 c 128,-1,61
 1286 488 1286 488 1286 406 c 0,0,1
EndSplineSet
EndChar

StartChar: T
Encoding: 55 84 55
Width: 1251
GlyphClass: 2
Flags: W
LayerCount: 2
Fore
SplineSet
773 1181 m 1,0,-1
 773 0 l 1,1,-1
 478 0 l 1,2,-1
 478 1181 l 1,3,-1
 23 1181 l 1,4,-1
 23 1409 l 1,5,-1
 1229 1409 l 1,6,-1
 1229 1181 l 1,7,-1
 773 1181 l 1,0,-1
EndSplineSet
EndChar

StartChar: U
Encoding: 56 85 56
Width: 1479
GlyphClass: 2
Flags: W
LayerCount: 2
Fore
SplineSet
723 -20 m 0,0,1
 591 -20 591 -20 481 11.5 c 128,-1,2
 371 43 371 43 291.5 109.5 c 128,-1,3
 212 176 212 176 167.5 280 c 128,-1,4
 123 384 123 384 123 528 c 2,5,-1
 123 1409 l 1,6,-1
 418 1409 l 1,7,-1
 418 551 l 2,8,9
 418 462 418 462 440 397.5 c 128,-1,10
 462 333 462 333 503 291.5 c 128,-1,11
 544 250 544 250 602 230.5 c 128,-1,12
 660 211 660 211 731 211 c 0,13,14
 803 211 803 211 863.5 231.5 c 128,-1,15
 924 252 924 252 967.5 295 c 128,-1,16
 1011 338 1011 338 1035 404 c 128,-1,17
 1059 470 1059 470 1059 561 c 2,18,-1
 1059 1409 l 1,19,-1
 1354 1409 l 1,20,-1
 1354 543 l 2,21,22
 1354 398 1354 398 1307 292 c 128,-1,23
 1260 186 1260 186 1176 116.5 c 128,-1,24
 1092 47 1092 47 976.5 13.5 c 128,-1,25
 861 -20 861 -20 723 -20 c 0,0,1
EndSplineSet
EndChar

StartChar: V
Encoding: 57 86 57
Width: 1366
GlyphClass: 2
Flags: W
LayerCount: 2
Fore
SplineSet
834 0 m 1,0,-1
 535 0 l 1,1,-1
 14 1409 l 1,2,-1
 322 1409 l 1,3,-1
 612 504 l 2,4,5
 626 459 626 459 639 412 c 128,-1,6
 652 365 652 365 663 326 c 0,7,8
 675 280 675 280 686 238 c 1,9,10
 696 279 696 279 707 324 c 0,11,12
 717 362 717 362 730.5 409.5 c 128,-1,13
 744 457 744 457 758 504 c 2,14,-1
 1047 1409 l 1,15,-1
 1352 1409 l 1,16,-1
 834 0 l 1,0,-1
EndSplineSet
EndChar

StartChar: W
Encoding: 58 87 58
Width: 1933
GlyphClass: 2
Flags: W
LayerCount: 2
Fore
SplineSet
1567 0 m 1,0,-1
 1217 0 l 1,1,-1
 1026 815 l 2,2,3
 1017 852 1017 852 1006.5 903 c 128,-1,4
 996 954 996 954 987 1002 c 0,5,6
 976 1057 976 1057 967 1116 c 1,7,8
 956 1057 956 1057 945 1001 c 0,9,10
 940 977 940 977 935 951.5 c 128,-1,11
 930 926 930 926 924.5 901.5 c 128,-1,12
 919 877 919 877 914.5 855 c 128,-1,13
 910 833 910 833 905 815 c 2,14,-1
 715 0 l 1,15,-1
 365 0 l 1,16,-1
 2 1409 l 1,17,-1
 301 1409 l 1,18,-1
 477 625 l 2,19,20
 492 561 492 561 505 499 c 128,-1,21
 518 437 518 437 529 388 c 0,22,23
 541 331 541 331 551 279 c 1,24,25
 566 353 566 353 580 423 c 0,26,27
 586 453 586 453 593 485 c 128,-1,28
 600 517 600 517 606.5 548 c 128,-1,29
 613 579 613 579 619.5 607.5 c 128,-1,30
 626 636 626 636 631 659 c 2,31,-1
 805 1409 l 1,32,-1
 1135 1409 l 1,33,-1
 1313 659 l 2,34,35
 1319 635 1319 635 1325 605.5 c 128,-1,36
 1331 576 1331 576 1337 544.5 c 128,-1,37
 1349 481.5 l 128,-1,38
 1355 450 1355 450 1360 420 c 0,39,40
 1372 350 1372 350 1384 279 c 1,41,42
 1396 335 1396 335 1409 395 c 0,43,44
 1420 446 1420 446 1434 507 c 128,-1,45
 1448 568 1448 568 1462 625 c 2,46,-1
 1632 1409 l 1,47,-1
 1931 1409 l 1,48,-1
 1567 0 l 1,0,-1
EndSplineSet
EndChar

StartChar: X
Encoding: 59 88 59
Width: 1366
GlyphClass: 2
Flags: W
LayerCount: 2
Fore
SplineSet
1038 0 m 1,0,-1
 684 561 l 1,1,-1
 330 0 l 1,2,-1
 18 0 l 1,3,-1
 506 741 l 1,4,-1
 59 1409 l 1,5,-1
 371 1409 l 1,6,-1
 684 911 l 1,7,-1
 997 1409 l 1,8,-1
 1307 1409 l 1,9,-1
 879 741 l 1,10,-1
 1348 0 l 1,11,-1
 1038 0 l 1,0,-1
EndSplineSet
EndChar

StartChar: Y
Encoding: 60 89 60
Width: 1366
GlyphClass: 2
Flags: W
LayerCount: 2
Fore
SplineSet
831 578 m 1,0,-1
 831 0 l 1,1,-1
 537 0 l 1,2,-1
 537 578 l 1,3,-1
 35 1409 l 1,4,-1
 344 1409 l 1,5,-1
 682 813 l 1,6,-1
 1024 1409 l 1,7,-1
 1333 1409 l 1,8,-1
 831 578 l 1,0,-1
EndSplineSet
EndChar

StartChar: Z
Encoding: 61 90 61
Width: 1251
GlyphClass: 2
Flags: W
LayerCount: 2
Fore
SplineSet
1192 0 m 1,0,-1
 61 0 l 1,1,-1
 61 209 l 1,2,-1
 823 1178 l 1,3,-1
 137 1178 l 1,4,-1
 137 1409 l 1,5,-1
 1151 1409 l 1,6,-1
 1151 1204 l 1,7,-1
 389 231 l 1,8,-1
 1192 231 l 1,9,-1
 1192 0 l 1,0,-1
EndSplineSet
EndChar

StartChar: bracketleft
Encoding: 62 91 62
Width: 682
GlyphClass: 2
Flags: W
LayerCount: 2
Fore
SplineSet
115 -425 m 1,0,-1
 115 1484 l 1,1,-1
 657 1484 l 1,2,-1
 657 1294 l 1,3,-1
 381 1294 l 1,4,-1
 381 -234 l 1,5,-1
 657 -234 l 1,6,-1
 657 -425 l 1,7,-1
 115 -425 l 1,0,-1
EndSplineSet
EndChar

StartChar: backslash
Encoding: 63 92 63
Width: 569
GlyphClass: 2
Flags: W
LayerCount: 2
Fore
SplineSet
307 -41 m 1,0,-1
 21 1485 l 1,1,-1
 259 1485 l 1,2,-1
 550 -41 l 1,3,-1
 307 -41 l 1,0,-1
EndSplineSet
EndChar

StartChar: bracketright
Encoding: 64 93 64
Width: 682
GlyphClass: 2
Flags: W
LayerCount: 2
Fore
SplineSet
25 -425 m 1,0,-1
 25 -234 l 1,1,-1
 303 -234 l 1,2,-1
 303 1294 l 1,3,-1
 25 1294 l 1,4,-1
 25 1484 l 1,5,-1
 567 1484 l 1,6,-1
 567 -425 l 1,7,-1
 25 -425 l 1,0,-1
EndSplineSet
EndChar

StartChar: asciicircum
Encoding: 65 94 65
Width: 1196
GlyphClass: 2
Flags: W
LayerCount: 2
Fore
SplineSet
922 514 m 1,0,-1
 596 1266 l 1,1,-1
 272 514 l 1,2,-1
 45 514 l 1,3,-1
 436 1409 l 1,4,-1
 758 1409 l 1,5,-1
 1151 514 l 1,6,-1
 922 514 l 1,0,-1
EndSplineSet
EndChar

StartChar: underscore
Encoding: 66 95 66
Width: 1139
GlyphClass: 2
Flags: W
LayerCount: 2
Fore
SplineSet
-20 -250 m 1,0,-1
 -20 -172 l 1,1,-1
 1157 -172 l 1,2,-1
 1157 -250 l 1,3,-1
 -20 -250 l 1,0,-1
EndSplineSet
EndChar

StartChar: grave
Encoding: 67 96 67
Width: 682
GlyphClass: 2
Flags: W
LayerCount: 2
Fore
SplineSet
406 1183 m 1,0,-1
 66 1459 l 1,1,-1
 66 1502 l 1,2,-1
 324 1502 l 1,3,-1
 575 1214 l 1,4,-1
 575 1183 l 1,5,-1
 406 1183 l 1,0,-1
EndSplineSet
EndChar

StartChar: a
Encoding: 68 97 68
Width: 1139
GlyphClass: 2
Flags: W
LayerCount: 2
Fore
SplineSet
393 -20 m 0,0,1
 315 -20 315 -20 253.5 1.5 c 128,-1,2
 192 23 192 23 149 64.5 c 128,-1,3
 106 106 106 106 83 167 c 128,-1,4
 60 228 60 228 60 306 c 0,5,6
 60 402 60 402 93.5 467.5 c 128,-1,7
 127 533 127 533 185 573.5 c 128,-1,8
 243 614 243 614 321 632.5 c 128,-1,9
 399 651 399 651 487 652 c 2,10,-1
 720 656 l 1,11,-1
 720 711 l 2,12,13
 720 770 720 770 709.5 809.5 c 128,-1,14
 699 849 699 849 679 874 c 128,-1,15
 659 899 659 899 629.5 909.5 c 128,-1,16
 600 920 600 920 562 920 c 0,17,18
 527 920 527 920 499.5 913 c 128,-1,19
 472 906 472 906 452 888.5 c 128,-1,20
 432 871 432 871 419.5 841.5 c 128,-1,21
 407 812 407 812 402 767 c 1,22,-1
 109 781 l 1,23,24
 121 852 121 852 153 910.5 c 128,-1,25
 185 969 185 969 241.5 1012 c 128,-1,26
 298 1055 298 1055 380.5 1078.5 c 128,-1,27
 463 1102 463 1102 574 1102 c 0,28,29
 675 1102 675 1102 754 1077 c 128,-1,30
 833 1052 833 1052 888 1002.5 c 128,-1,31
 943 953 943 953 972 881 c 128,-1,32
 1001 809 1001 809 1001 714 c 2,33,-1
 1001 320 l 2,34,35
 1001 282 1001 282 1004.5 252 c 128,-1,36
 1008 222 1008 222 1017.5 201.5 c 128,-1,37
 1027 181 1027 181 1044.5 170.5 c 128,-1,38
 1062 160 1062 160 1090 160 c 0,39,40
 1122 160 1122 160 1152 166 c 1,41,-1
 1152 14 l 1,42,43
 1127 8 1127 8 1107 3 c 128,-1,44
 1087 -2 1087 -2 1067 -5 c 128,-1,45
 1047 -8 1047 -8 1024.5 -10 c 128,-1,46
 1002 -12 1002 -12 972 -12 c 0,47,48
 866 -12 866 -12 815.5 40 c 128,-1,49
 765 92 765 92 755 193 c 1,50,-1
 749 193 l 1,51,52
 693 92 693 92 605.5 36 c 128,-1,53
 518 -20 518 -20 393 -20 c 0,0,1
720 501 m 1,54,-1
 576 499 l 2,55,56
 531 497 531 497 490.5 491.5 c 128,-1,57
 450 486 450 486 419.5 468.5 c 128,-1,58
 389 451 389 451 371 418 c 128,-1,59
 353 385 353 385 353 328 c 0,60,61
 353 251 353 251 388.5 213.5 c 128,-1,62
 424 176 424 176 483 176 c 0,63,64
 537 176 537 176 581 199 c 128,-1,65
 625 222 625 222 655.5 259.5 c 128,-1,66
 686 297 686 297 703 346 c 128,-1,67
 720 395 720 395 720 446 c 2,68,-1
 720 501 l 1,54,-1
EndSplineSet
EndChar

StartChar: b
Encoding: 69 98 69
Width: 1251
GlyphClass: 2
Flags: W
LayerCount: 2
Fore
SplineSet
1167 545 m 0,0,1
 1167 422 1167 422 1142.5 318.5 c 128,-1,2
 1118 215 1118 215 1067 139.5 c 128,-1,3
 1016 64 1016 64 937.5 22 c 128,-1,4
 859 -20 859 -20 752 -20 c 0,5,6
 704 -20 704 -20 656 -10 c 128,-1,7
 608 0 608 0 565 23 c 128,-1,8
 522 46 522 46 486 83 c 128,-1,9
 450 120 450 120 424 174 c 1,10,-1
 422 174 l 1,11,12
 422 153 422 153 420.5 126 c 128,-1,13
 419 99 419 99 417 73.5 c 128,-1,14
 415 48 415 48 412.5 28 c 128,-1,15
 410 8 410 8 408 0 c 1,16,-1
 135 0 l 1,17,18
 138 35 138 35 140.5 99.5 c 128,-1,19
 143 164 143 164 143 247 c 2,20,-1
 143 1484 l 1,21,-1
 424 1484 l 1,22,-1
 424 1070 l 2,23,24
 424 1038 424 1038 423.5 1007.5 c 128,-1,25
 423 977 423 977 422 951 c 0,26,27
 421 921 421 921 420 894 c 1,28,-1
 424 894 l 1,29,30
 475 1006 475 1006 564 1054 c 128,-1,31
 653 1102 653 1102 770 1102 c 0,32,33
 874 1102 874 1102 949 1060.5 c 128,-1,34
 1024 1019 1024 1019 1072.5 944.5 c 128,-1,35
 1121 870 1121 870 1144 768 c 128,-1,36
 1167 666 1167 666 1167 545 c 0,0,1
874 545 m 0,37,38
 874 729 874 729 820 818 c 128,-1,39
 766 907 766 907 653 907 c 0,40,41
 610 907 610 907 568 890 c 128,-1,42
 526 873 526 873 493 830.5 c 128,-1,43
 460 788 460 788 440 716.5 c 128,-1,44
 420 645 420 645 420 536 c 0,45,46
 420 430 420 430 440 360 c 128,-1,47
 460 290 460 290 492 248 c 128,-1,48
 524 206 524 206 566 189 c 128,-1,49
 608 172 608 172 651 172 c 0,50,51
 758 172 758 172 816 260.5 c 128,-1,52
 874 349 874 349 874 545 c 0,37,38
EndSplineSet
EndChar

StartChar: c
Encoding: 70 99 70
Width: 1139
GlyphClass: 2
Flags: W
LayerCount: 2
Fore
SplineSet
594 -20 m 0,0,1
 465 -20 465 -20 368.5 20 c 128,-1,2
 272 60 272 60 208 133 c 128,-1,3
 144 206 144 206 112 308.5 c 128,-1,4
 80 411 80 411 80 535 c 0,5,6
 80 670 80 670 115 775.5 c 128,-1,7
 150 881 150 881 216 953.5 c 128,-1,8
 282 1026 282 1026 378.5 1064 c 128,-1,9
 475 1102 475 1102 598 1102 c 0,10,11
 703 1102 703 1102 784.5 1074 c 128,-1,12
 866 1046 866 1046 925 997.5 c 128,-1,13
 984 949 984 949 1020.5 883 c 128,-1,14
 1057 817 1057 817 1071 741 c 1,15,-1
 788 727 l 1,16,17
 776 810 776 810 728 859.5 c 128,-1,18
 680 909 680 909 592 909 c 0,19,20
 479 909 479 909 427 816 c 128,-1,21
 375 723 375 723 375 546 c 0,22,23
 375 172 375 172 596 172 c 0,24,25
 676 172 676 172 730 222.5 c 128,-1,26
 784 273 784 273 797 373 c 1,27,-1
 1079 360 l 1,28,29
 1069 285 1069 285 1033.5 216.5 c 128,-1,30
 998 148 998 148 937.5 95.5 c 128,-1,31
 877 43 877 43 791 11.5 c 128,-1,32
 705 -20 705 -20 594 -20 c 0,0,1
EndSplineSet
EndChar

StartChar: d
Encoding: 71 100 71
Width: 1251
GlyphClass: 2
Flags: W
LayerCount: 2
Fore
SplineSet
844 0 m 1,0,1
 842 8 842 8 839.5 28.5 c 128,-1,2
 837 49 837 49 834.5 75 c 128,-1,3
 832 101 832 101 830.5 128 c 128,-1,4
 829 155 829 155 829 176 c 1,5,-1
 825 176 l 1,6,7
 776 71 776 71 688.5 25.5 c 128,-1,8
 601 -20 601 -20 479 -20 c 0,9,10
 377 -20 377 -20 302.5 22 c 128,-1,11
 228 64 228 64 179.5 139 c 128,-1,12
 131 214 131 214 107.5 316.5 c 128,-1,13
 84 419 84 419 84 540 c 0,14,15
 84 663 84 663 108.5 766 c 128,-1,16
 133 869 133 869 184 943.5 c 128,-1,17
 235 1018 235 1018 313.5 1060 c 128,-1,18
 392 1102 392 1102 500 1102 c 0,19,20
 553 1102 553 1102 602 1091 c 128,-1,21
 651 1080 651 1080 693 1057 c 128,-1,22
 735 1034 735 1034 769 998 c 128,-1,23
 803 962 803 962 827 911 c 1,24,-1
 829 911 l 1,25,26
 829 921 829 921 828.5 940.5 c 128,-1,27
 828 960 828 960 828 985 c 128,-1,28
 828 1010 828 1010 827.5 1037 c 128,-1,29
 827 1064 827 1064 827 1089 c 2,30,-1
 827 1484 l 1,31,-1
 1108 1484 l 1,32,-1
 1108 236 l 2,33,34
 1108 157 1108 157 1111 95.5 c 128,-1,35
 1114 34 1114 34 1116 0 c 1,36,-1
 844 0 l 1,0,1
831 547 m 0,37,38
 831 654 831 654 811 724.5 c 128,-1,39
 791 795 791 795 758.5 836.5 c 128,-1,40
 726 878 726 878 684.5 894.5 c 128,-1,41
 643 911 643 911 600 911 c 0,42,43
 546 911 546 911 504.5 890 c 128,-1,44
 463 869 463 869 434.5 824 c 128,-1,45
 406 779 406 779 391.5 709 c 128,-1,46
 377 639 377 639 377 540 c 0,47,48
 377 172 377 172 598 172 c 0,49,50
 640 172 640 172 682 190 c 128,-1,51
 724 208 724 208 757 251 c 128,-1,52
 790 294 790 294 810.5 366.5 c 128,-1,53
 831 439 831 439 831 547 c 0,37,38
EndSplineSet
EndChar

StartChar: e
Encoding: 72 101 72
Width: 1139
GlyphClass: 2
Flags: W
LayerCount: 2
Fore
SplineSet
586 -20 m 0,0,1
 469 -20 469 -20 375.5 14.5 c 128,-1,2
 282 49 282 49 216 119.5 c 128,-1,3
 150 190 150 190 115 296.5 c 128,-1,4
 80 403 80 403 80 546 c 0,5,6
 80 701 80 701 121.5 807 c 128,-1,7
 163 913 163 913 233.5 978.5 c 128,-1,8
 304 1044 304 1044 396 1073 c 128,-1,9
 488 1102 488 1102 590 1102 c 0,10,11
 718 1102 718 1102 808.5 1057.5 c 128,-1,12
 899 1013 899 1013 957 933 c 128,-1,13
 1015 853 1015 853 1042 741.5 c 128,-1,14
 1069 630 1069 630 1069 495 c 2,15,-1
 1069 487 l 1,16,-1
 375 487 l 1,17,18
 375 419 375 419 387 360.5 c 128,-1,19
 399 302 399 302 426 259.5 c 128,-1,20
 453 217 453 217 496 192.5 c 128,-1,21
 539 168 539 168 600 168 c 0,22,23
 674 168 674 168 721 199.5 c 128,-1,24
 768 231 768 231 788 297 c 1,25,-1
 1053 274 l 1,26,27
 1035 228 1035 228 1002.5 176 c 128,-1,28
 970 124 970 124 916 80.5 c 128,-1,29
 862 37 862 37 781.5 8.5 c 128,-1,30
 701 -20 701 -20 586 -20 c 0,0,1
586 925 m 0,31,32
 543 925 543 925 505.5 910.5 c 128,-1,33
 468 896 468 896 440.5 864.5 c 128,-1,34
 413 833 413 833 396 783 c 128,-1,35
 379 733 379 733 377 663 c 1,36,-1
 797 663 l 1,37,38
 789 794 789 794 734 859.5 c 128,-1,39
 679 925 679 925 586 925 c 0,31,32
EndSplineSet
EndChar

StartChar: f
Encoding: 73 102 73
Width: 682
GlyphClass: 2
Flags: W
LayerCount: 2
Fore
SplineSet
473 892 m 1,0,-1
 473 0 l 1,1,-1
 193 0 l 1,2,-1
 193 892 l 1,3,-1
 35 892 l 1,4,-1
 35 1082 l 1,5,-1
 193 1082 l 1,6,-1
 193 1195 l 2,7,8
 193 1257 193 1257 208 1309.5 c 128,-1,9
 223 1362 223 1362 259 1401 c 128,-1,10
 295 1440 295 1440 356 1462 c 128,-1,11
 417 1484 417 1484 508 1484 c 0,12,13
 556 1484 556 1484 602.5 1479 c 128,-1,14
 649 1474 649 1474 686 1468 c 1,15,-1
 686 1287 l 1,16,17
 668 1291 668 1291 645.5 1293.5 c 128,-1,18
 623 1296 623 1296 604 1296 c 0,19,20
 565 1296 565 1296 539.5 1288 c 128,-1,21
 514 1280 514 1280 499.5 1264 c 128,-1,22
 485 1248 485 1248 479 1223.5 c 128,-1,23
 473 1199 473 1199 473 1167 c 2,24,-1
 473 1082 l 1,25,-1
 686 1082 l 1,26,-1
 686 892 l 1,27,-1
 473 892 l 1,0,-1
EndSplineSet
EndChar

StartChar: g
Encoding: 74 103 74
Width: 1251
GlyphClass: 2
Flags: W
LayerCount: 2
Fore
SplineSet
596 -434 m 0,0,1
 489 -434 489 -434 407.5 -412.5 c 128,-1,2
 326 -391 326 -391 268.5 -352.5 c 128,-1,3
 211 -314 211 -314 176.5 -260.5 c 128,-1,4
 142 -207 142 -207 129 -143 c 1,5,-1
 410 -110 l 1,6,7
 425 -175 425 -175 474.5 -212 c 128,-1,8
 524 -249 524 -249 604 -249 c 0,9,10
 654 -249 654 -249 695.5 -235 c 128,-1,11
 737 -221 737 -221 766.5 -187.5 c 128,-1,12
 796 -154 796 -154 812.5 -99 c 128,-1,13
 829 -44 829 -44 829 37 c 0,14,15
 829 65 829 65 829 94 c 128,-1,16
 829 123 829 123 830 147 c 0,17,18
 831 175 831 175 831 201 c 1,19,-1
 829 201 l 1,20,21
 780 96 780 96 691.5 49 c 128,-1,22
 603 2 603 2 481 2 c 0,23,24
 378 2 378 2 303.5 42.5 c 128,-1,25
 229 83 229 83 180 155.5 c 128,-1,26
 131 228 131 228 107.5 328.5 c 128,-1,27
 84 429 84 429 84 550 c 0,28,29
 84 675 84 675 109 776.5 c 128,-1,30
 134 878 134 878 185.5 951 c 128,-1,31
 237 1024 237 1024 315.5 1063.5 c 128,-1,32
 394 1103 394 1103 502 1103 c 256,33,34
 610 1103 610 1103 695.5 1057 c 128,-1,35
 781 1011 781 1011 829 908 c 1,36,-1
 834 908 l 1,37,38
 834 929 834 929 835.5 956.5 c 128,-1,39
 837 984 837 984 839 1009.5 c 128,-1,40
 841 1035 841 1035 843.5 1055 c 128,-1,41
 846 1075 846 1075 848 1082 c 1,42,-1
 1114 1082 l 1,43,44
 1112 1046 1112 1046 1110 981 c 128,-1,45
 1108 916 1108 916 1108 832 c 2,46,-1
 1108 33 l 2,47,48
 1108 -85 1108 -85 1074 -172.5 c 128,-1,49
 1040 -260 1040 -260 974.5 -318 c 128,-1,50
 909 -376 909 -376 813.5 -405 c 128,-1,51
 718 -434 718 -434 596 -434 c 0,0,1
831 556 m 0,52,53
 831 658 831 658 811 726 c 128,-1,54
 791 794 791 794 759 835 c 128,-1,55
 727 876 727 876 685.5 893 c 128,-1,56
 644 910 644 910 602 910 c 0,57,58
 548 910 548 910 506.5 889 c 128,-1,59
 465 868 465 868 436 824 c 128,-1,60
 407 780 407 780 392 712 c 128,-1,61
 377 644 377 644 377 550 c 0,62,63
 377 375 377 375 433 286 c 128,-1,64
 489 197 489 197 600 197 c 0,65,66
 642 197 642 197 683.5 213.5 c 128,-1,67
 725 230 725 230 758 271.5 c 128,-1,68
 791 313 791 313 811 382 c 128,-1,69
 831 451 831 451 831 556 c 0,52,53
EndSplineSet
EndChar

StartChar: h
Encoding: 75 104 75
Width: 1251
GlyphClass: 2
Flags: W
LayerCount: 2
Fore
SplineSet
420 866 m 1,0,1
 477 990 477 990 563 1046 c 128,-1,2
 649 1102 649 1102 768 1102 c 0,3,4
 866 1102 866 1102 933.5 1070 c 128,-1,5
 1001 1038 1001 1038 1043.5 982 c 128,-1,6
 1086 926 1086 926 1105 850 c 128,-1,7
 1124 774 1124 774 1124 686 c 2,8,-1
 1124 0 l 1,9,-1
 844 0 l 1,10,-1
 844 606 l 2,11,12
 844 669 844 669 834 721.5 c 128,-1,13
 824 774 824 774 801 811.5 c 128,-1,14
 778 849 778 849 741 870 c 128,-1,15
 704 891 704 891 651 891 c 0,16,17
 600 891 600 891 558.5 868.5 c 128,-1,18
 517 846 517 846 487 804.5 c 128,-1,19
 457 763 457 763 440.5 705.5 c 128,-1,20
 424 648 424 648 424 579 c 2,21,-1
 424 0 l 1,22,-1
 143 0 l 1,23,-1
 143 1484 l 1,24,-1
 424 1484 l 1,25,-1
 424 1079 l 2,26,27
 424 1047 424 1047 423 1014.5 c 128,-1,28
 422 982 422 982 420.5 953.5 c 128,-1,29
 419 925 419 925 418 902 c 128,-1,30
 417 879 417 879 416 866 c 1,31,-1
 420 866 l 1,0,1
EndSplineSet
EndChar

StartChar: i
Encoding: 76 105 76
Width: 569
GlyphClass: 2
Flags: W
LayerCount: 2
Fore
SplineSet
143 1277 m 1,0,-1
 143 1484 l 1,1,-1
 424 1484 l 1,2,-1
 424 1277 l 1,3,-1
 143 1277 l 1,0,-1
143 0 m 1,4,-1
 143 1082 l 1,5,-1
 424 1082 l 1,6,-1
 424 0 l 1,7,-1
 143 0 l 1,4,-1
EndSplineSet
EndChar

StartChar: j
Encoding: 77 106 77
Width: 569
GlyphClass: 2
Flags: W
LayerCount: 2
Fore
SplineSet
144 1277 m 1,0,-1
 144 1484 l 1,1,-1
 425 1484 l 1,2,-1
 425 1277 l 1,3,-1
 144 1277 l 1,0,-1
138 -425 m 0,4,5
 82 -425 82 -425 40.5 -422.5 c 128,-1,6
 -1 -420 -1 -420 -32 -416 c 1,7,-1
 -32 -218 l 1,8,9
 -19 -220 -19 -220 -6 -221 c 128,-1,10
 7 -222 7 -222 19 -222 c 0,11,12
 58 -222 58 -222 82 -214 c 128,-1,13
 106 -206 106 -206 120 -187 c 128,-1,14
 134 -168 134 -168 139 -137 c 128,-1,15
 144 -106 144 -106 144 -60 c 2,16,-1
 144 1082 l 1,17,-1
 425 1082 l 1,18,-1
 425 -128 l 2,19,20
 425 -193 425 -193 409 -247 c 128,-1,21
 393 -301 393 -301 358.5 -341 c 128,-1,22
 324 -381 324 -381 269.5 -403 c 128,-1,23
 215 -425 215 -425 138 -425 c 0,4,5
EndSplineSet
EndChar

StartChar: k
Encoding: 78 107 78
Width: 1139
GlyphClass: 2
Flags: W
LayerCount: 2
Fore
SplineSet
834 0 m 1,0,-1
 545 490 l 1,1,-1
 424 406 l 1,2,-1
 424 0 l 1,3,-1
 143 0 l 1,4,-1
 143 1484 l 1,5,-1
 424 1484 l 1,6,-1
 424 634 l 1,7,-1
 810 1082 l 1,8,-1
 1112 1082 l 1,9,-1
 732 660 l 1,10,-1
 1141 0 l 1,11,-1
 834 0 l 1,0,-1
EndSplineSet
EndChar

StartChar: l
Encoding: 79 108 79
Width: 569
GlyphClass: 2
Flags: W
LayerCount: 2
Fore
SplineSet
143 0 m 1,0,-1
 143 1484 l 1,1,-1
 424 1484 l 1,2,-1
 424 0 l 1,3,-1
 143 0 l 1,0,-1
EndSplineSet
EndChar

StartChar: m
Encoding: 80 109 80
Width: 1821
GlyphClass: 2
Flags: W
LayerCount: 2
Fore
SplineSet
780 0 m 1,0,-1
 780 607 l 2,1,2
 780 670 780 670 771.5 722.5 c 128,-1,3
 763 775 763 775 743.5 812.5 c 128,-1,4
 724 850 724 850 692.5 871 c 128,-1,5
 661 892 661 892 616 892 c 0,6,7
 573 892 573 892 538 869.5 c 128,-1,8
 503 847 503 847 477.5 805.5 c 128,-1,9
 452 764 452 764 438 706.5 c 128,-1,10
 424 649 424 649 424 580 c 2,11,-1
 424 0 l 1,12,-1
 143 0 l 1,13,-1
 143 840 l 2,14,15
 143 875 143 875 142.5 912 c 128,-1,16
 142 949 142 949 140.5 982.5 c 128,-1,17
 139 1016 139 1016 138 1042.5 c 128,-1,18
 137 1069 137 1069 135 1082 c 1,19,-1
 403 1082 l 1,20,21
 405 1070 405 1070 407 1043.5 c 128,-1,22
 409 1017 409 1017 411 985 c 128,-1,23
 413 953 413 953 414.5 921 c 128,-1,24
 416 889 416 889 416 867 c 1,25,-1
 420 867 l 1,26,27
 472 991 472 991 549.5 1047 c 128,-1,28
 627 1103 627 1103 735 1103 c 0,29,30
 859 1103 859 1103 934.5 1042.5 c 128,-1,31
 1010 982 1010 982 1036 867 c 1,32,-1
 1042 867 l 1,33,34
 1071 934 1071 934 1104.5 979 c 128,-1,35
 1138 1024 1138 1024 1178.5 1051.5 c 128,-1,36
 1219 1079 1219 1079 1266.5 1091 c 128,-1,37
 1314 1103 1314 1103 1370 1103 c 0,38,39
 1459 1103 1459 1103 1520.5 1071 c 128,-1,40
 1582 1039 1582 1039 1620.5 983 c 128,-1,41
 1659 927 1659 927 1676.5 851 c 128,-1,42
 1694 775 1694 775 1694 687 c 2,43,-1
 1694 0 l 1,44,-1
 1415 0 l 1,45,-1
 1415 607 l 2,46,47
 1415 670 1415 670 1406.5 722.5 c 128,-1,48
 1398 775 1398 775 1378.5 812.5 c 128,-1,49
 1359 850 1359 850 1327.5 871 c 128,-1,50
 1296 892 1296 892 1251 892 c 0,51,52
 1209 892 1209 892 1174.5 870.5 c 128,-1,53
 1140 849 1140 849 1114.5 809.5 c 128,-1,54
 1089 770 1089 770 1075 715 c 128,-1,55
 1061 660 1061 660 1059 593 c 2,56,-1
 1059 0 l 1,57,-1
 780 0 l 1,0,-1
EndSplineSet
EndChar

StartChar: n
Encoding: 81 110 81
Width: 1251
GlyphClass: 2
Flags: W
LayerCount: 2
Fore
SplineSet
844 0 m 1,0,-1
 844 607 l 2,1,2
 844 670 844 670 834 722.5 c 128,-1,3
 824 775 824 775 801 812.5 c 128,-1,4
 778 850 778 850 741 871 c 128,-1,5
 704 892 704 892 651 892 c 0,6,7
 600 892 600 892 558.5 869.5 c 128,-1,8
 517 847 517 847 487 805.5 c 128,-1,9
 457 764 457 764 440.5 706.5 c 128,-1,10
 424 649 424 649 424 580 c 2,11,-1
 424 0 l 1,12,-1
 143 0 l 1,13,-1
 143 840 l 2,14,15
 143 875 143 875 142.5 912 c 128,-1,16
 142 949 142 949 140.5 982.5 c 128,-1,17
 139 1016 139 1016 138 1042.5 c 128,-1,18
 137 1069 137 1069 135 1082 c 1,19,-1
 403 1082 l 1,20,21
 405 1070 405 1070 407 1043.5 c 128,-1,22
 409 1017 409 1017 411 985 c 128,-1,23
 413 953 413 953 414.5 921 c 128,-1,24
 416 889 416 889 416 867 c 1,25,-1
 420 867 l 1,26,27
 477 991 477 991 563 1047 c 128,-1,28
 649 1103 649 1103 768 1103 c 0,29,30
 866 1103 866 1103 933.5 1071 c 128,-1,31
 1001 1039 1001 1039 1043.5 983 c 128,-1,32
 1086 927 1086 927 1105 851 c 128,-1,33
 1124 775 1124 775 1124 687 c 2,34,-1
 1124 0 l 1,35,-1
 844 0 l 1,0,-1
EndSplineSet
EndChar

StartChar: o
Encoding: 82 111 82
Width: 1251
GlyphClass: 2
Flags: W
LayerCount: 2
Fore
SplineSet
1171 542 m 0,0,1
 1171 418 1171 418 1136.5 315 c 128,-1,2
 1102 212 1102 212 1033 137.5 c 128,-1,3
 964 63 964 63 861 21.5 c 128,-1,4
 758 -20 758 -20 621 -20 c 0,5,6
 489 -20 489 -20 388 21 c 128,-1,7
 287 62 287 62 218.5 136 c 128,-1,8
 150 210 150 210 115 313.5 c 128,-1,9
 80 417 80 417 80 542 c 0,10,11
 80 663 80 663 113.5 765.5 c 128,-1,12
 147 868 147 868 215 943 c 128,-1,13
 283 1018 283 1018 386 1060 c 128,-1,14
 489 1102 489 1102 627 1102 c 0,15,16
 773 1102 773 1102 876 1060 c 128,-1,17
 979 1018 979 1018 1044.5 943.5 c 128,-1,18
 1110 869 1110 869 1140.5 766.5 c 128,-1,19
 1171 664 1171 664 1171 542 c 0,0,1
877 542 m 0,20,21
 877 735 877 735 814 822 c 128,-1,22
 751 909 751 909 631 909 c 0,23,24
 507 909 507 909 441 821 c 128,-1,25
 375 733 375 733 375 542 c 0,26,27
 375 445 375 445 392.5 375 c 128,-1,28
 410 305 410 305 442 260 c 128,-1,29
 474 215 474 215 519 193.5 c 128,-1,30
 564 172 564 172 618 172 c 0,31,32
 680 172 680 172 728.5 193.5 c 128,-1,33
 777 215 777 215 810 260 c 128,-1,34
 843 305 843 305 860 375 c 128,-1,35
 877 445 877 445 877 542 c 0,20,21
EndSplineSet
EndChar

StartChar: p
Encoding: 83 112 83
Width: 1251
GlyphClass: 2
Flags: W
LayerCount: 2
Fore
SplineSet
1167 546 m 0,0,1
 1167 423 1167 423 1142.5 319 c 128,-1,2
 1118 215 1118 215 1067 140 c 128,-1,3
 1016 65 1016 65 937.5 22.5 c 128,-1,4
 859 -20 859 -20 752 -20 c 0,5,6
 704 -20 704 -20 656.5 -10 c 128,-1,7
 609 0 609 0 566 22.5 c 128,-1,8
 523 45 523 45 486.5 81.5 c 128,-1,9
 450 118 450 118 424 172 c 1,10,-1
 418 172 l 1,11,12
 419 167 419 167 420 147 c 128,-1,13
 421 127 421 127 422 100.5 c 128,-1,14
 423 74 423 74 423.5 44.5 c 128,-1,15
 424 15 424 15 424 -10 c 2,16,-1
 424 -425 l 1,17,-1
 143 -425 l 1,18,-1
 143 833 l 2,19,20
 143 916 143 916 140.5 981 c 128,-1,21
 138 1046 138 1046 135 1082 c 1,22,-1
 408 1082 l 1,23,24
 410 1075 410 1075 412.5 1055 c 128,-1,25
 415 1035 415 1035 416.5 1009 c 128,-1,26
 418 983 418 983 419 955 c 128,-1,27
 420 927 420 927 420 906 c 1,28,-1
 424 906 l 1,29,30
 475 1013 475 1013 564 1059 c 128,-1,31
 653 1105 653 1105 770 1105 c 0,32,33
 873 1105 873 1105 948 1063 c 128,-1,34
 1023 1021 1023 1021 1071.5 947 c 128,-1,35
 1120 873 1120 873 1143.5 770.5 c 128,-1,36
 1167 668 1167 668 1167 546 c 0,0,1
874 546 m 0,37,38
 874 731 874 731 818 820.5 c 128,-1,39
 762 910 762 910 651 910 c 0,40,41
 609 910 609 910 567.5 892.5 c 128,-1,42
 526 875 526 875 493.5 832.5 c 128,-1,43
 461 790 461 790 440.5 718.5 c 128,-1,44
 420 647 420 647 420 538 c 0,45,46
 420 432 420 432 440 361.5 c 128,-1,47
 460 291 460 291 492.5 249 c 128,-1,48
 525 207 525 207 566 189.5 c 128,-1,49
 607 172 607 172 649 172 c 0,50,51
 703 172 703 172 745 193.5 c 128,-1,52
 787 215 787 215 815.5 260.5 c 128,-1,53
 844 306 844 306 859 377 c 128,-1,54
 874 448 874 448 874 546 c 0,37,38
EndSplineSet
EndChar

StartChar: q
Encoding: 84 113 84
Width: 1251
GlyphClass: 2
Flags: W
LayerCount: 2
Fore
SplineSet
84 540 m 0,0,1
 84 663 84 663 109 766.5 c 128,-1,2
 134 870 134 870 185.5 944.5 c 128,-1,3
 237 1019 237 1019 315.5 1061 c 128,-1,4
 394 1103 394 1103 502 1103 c 256,5,6
 610 1103 610 1103 695.5 1057 c 128,-1,7
 781 1011 781 1011 829 908 c 1,8,9
 829 929 829 929 830.5 956.5 c 128,-1,10
 832 984 832 984 834.5 1009.5 c 128,-1,11
 837 1035 837 1035 839.5 1055 c 128,-1,12
 842 1075 842 1075 844 1082 c 1,13,-1
 1114 1082 l 1,14,15
 1112 1046 1112 1046 1110 981 c 128,-1,16
 1108 916 1108 916 1108 833 c 2,17,-1
 1108 -425 l 1,18,-1
 829 -425 l 1,19,-1
 829 25 l 2,20,21
 829 53 829 53 830 80 c 128,-1,22
 831 107 831 107 832 130 c 0,23,24
 833 156 833 156 834 180 c 1,25,-1
 832 180 l 1,26,27
 783 75 783 75 692 27.5 c 128,-1,28
 601 -20 601 -20 479 -20 c 0,29,30
 377 -20 377 -20 302.5 22 c 128,-1,31
 228 64 228 64 179.5 139 c 128,-1,32
 131 214 131 214 107.5 316.5 c 128,-1,33
 84 419 84 419 84 540 c 0,0,1
831 546 m 256,34,35
 831 654 831 654 811 724 c 128,-1,36
 791 794 791 794 759 835.5 c 128,-1,37
 727 877 727 877 685.5 893.5 c 128,-1,38
 644 910 644 910 602 910 c 0,39,40
 548 910 548 910 506.5 889 c 128,-1,41
 465 868 465 868 436 823 c 128,-1,42
 407 778 407 778 392 708 c 128,-1,43
 377 638 377 638 377 540 c 0,44,45
 377 172 377 172 600 172 c 0,46,47
 642 172 642 172 683.5 190 c 128,-1,48
 725 208 725 208 758 251 c 128,-1,49
 791 294 791 294 811 366 c 128,-1,50
 831 438 831 438 831 546 c 256,34,35
EndSplineSet
EndChar

StartChar: r
Encoding: 85 114 85
Width: 797
GlyphClass: 2
Flags: W
LayerCount: 2
Fore
SplineSet
143 0 m 1,0,-1
 143 828 l 2,1,2
 143 863 143 863 142.5 902 c 128,-1,3
 142 941 142 941 140.5 976.5 c 128,-1,4
 139 1012 139 1012 138 1040.5 c 128,-1,5
 137 1069 137 1069 135 1082 c 1,6,-1
 403 1082 l 1,7,8
 405 1070 405 1070 407 1040.5 c 128,-1,9
 409 1011 409 1011 411 976 c 128,-1,10
 413 941 413 941 414.5 906.5 c 128,-1,11
 416 872 416 872 416 851 c 1,12,-1
 420 851 l 1,13,14
 441 910 441 910 462 956.5 c 128,-1,15
 483 1003 483 1003 511.5 1035.5 c 128,-1,16
 540 1068 540 1068 580 1085.5 c 128,-1,17
 620 1103 620 1103 679 1103 c 0,18,19
 704 1103 704 1103 728.5 1098.5 c 128,-1,20
 753 1094 753 1094 766 1088 c 1,21,-1
 766 853 l 1,22,23
 739 859 739 859 711.5 863.5 c 128,-1,24
 684 868 684 868 646 868 c 0,25,26
 541 868 541 868 482.5 783 c 128,-1,27
 424 698 424 698 424 531 c 2,28,-1
 424 0 l 1,29,-1
 143 0 l 1,0,-1
EndSplineSet
EndChar

StartChar: s
Encoding: 86 115 86
Width: 1139
GlyphClass: 2
Flags: W
LayerCount: 2
Fore
SplineSet
1055 316 m 0,0,1
 1055 238 1055 238 1022.5 176 c 128,-1,2
 990 114 990 114 928 70.5 c 128,-1,3
 866 27 866 27 776 3.5 c 128,-1,4
 686 -20 686 -20 571 -20 c 0,5,6
 468 -20 468 -20 385 -5 c 128,-1,7
 302 10 302 10 239.5 44.5 c 128,-1,8
 177 79 177 79 135 134 c 128,-1,9
 93 189 93 189 72 270 c 1,10,-1
 319 307 l 1,11,12
 331 262 331 262 352 234 c 128,-1,13
 373 206 373 206 404 191 c 128,-1,14
 435 176 435 176 476.5 171 c 128,-1,15
 518 166 518 166 571 166 c 0,16,17
 619 166 619 166 660.5 171.5 c 128,-1,18
 702 177 702 177 732.5 190.5 c 128,-1,19
 763 204 763 204 780 228.5 c 128,-1,20
 797 253 797 253 797 290 c 0,21,22
 797 332 797 332 772.5 356.5 c 128,-1,23
 748 381 748 381 705.5 396.5 c 128,-1,24
 663 412 663 412 605.5 423.5 c 128,-1,25
 548 435 548 435 483 450 c 0,26,27
 415 465 415 465 349 486 c 128,-1,28
 283 507 283 507 231 543 c 128,-1,29
 179 579 179 579 147 634.5 c 128,-1,30
 115 690 115 690 115 775 c 0,31,32
 115 852 115 852 145 912.5 c 128,-1,33
 175 973 175 973 233 1015.5 c 128,-1,34
 291 1058 291 1058 376.5 1080.5 c 128,-1,35
 462 1103 462 1103 573 1103 c 0,36,37
 661 1103 661 1103 737 1086.5 c 128,-1,38
 813 1070 813 1070 873 1034.5 c 128,-1,39
 933 999 933 999 973.5 944 c 128,-1,40
 1014 889 1014 889 1030 811 c 1,41,-1
 781 785 l 1,42,43
 774 824 774 824 756 849.5 c 128,-1,44
 738 875 738 875 711.5 890 c 128,-1,45
 685 905 685 905 650 910.5 c 128,-1,46
 615 916 615 916 573 916 c 0,47,48
 473 916 473 916 423 890.5 c 128,-1,49
 373 865 373 865 373 805 c 0,50,51
 373 768 373 768 393.5 746 c 128,-1,52
 414 724 414 724 451.5 709.5 c 128,-1,53
 489 695 489 695 540.5 684.5 c 128,-1,54
 592 674 592 674 653 659 c 0,55,56
 728 643 728 643 800.5 621.5 c 128,-1,57
 873 600 873 600 929.5 562.5 c 128,-1,58
 986 525 986 525 1020.5 466 c 128,-1,59
 1055 407 1055 407 1055 316 c 0,0,1
EndSplineSet
EndChar

StartChar: t
Encoding: 87 116 87
Width: 682
GlyphClass: 2
Flags: W
LayerCount: 2
Fore
SplineSet
420 -18 m 0,0,1
 296 -18 296 -18 229 49.5 c 128,-1,2
 162 117 162 117 162 254 c 2,3,-1
 162 892 l 1,4,-1
 25 892 l 1,5,-1
 25 1082 l 1,6,-1
 176 1082 l 1,7,-1
 264 1336 l 1,8,-1
 440 1336 l 1,9,-1
 440 1082 l 1,10,-1
 645 1082 l 1,11,-1
 645 892 l 1,12,-1
 440 892 l 1,13,-1
 440 330 l 2,14,15
 440 251 440 251 470 213.5 c 128,-1,16
 500 176 500 176 563 176 c 0,17,18
 589 176 589 176 610 180 c 128,-1,19
 631 184 631 184 657 190 c 1,20,-1
 657 16 l 1,21,22
 605 -1 605 -1 547 -9.5 c 128,-1,23
 489 -18 489 -18 420 -18 c 0,0,1
EndSplineSet
EndChar

StartChar: u
Encoding: 88 117 88
Width: 1251
GlyphClass: 2
Flags: W
LayerCount: 2
Fore
SplineSet
408 1082 m 1,0,-1
 408 475 l 2,1,2
 408 412 408 412 418 359.5 c 128,-1,3
 428 307 428 307 451 269.5 c 128,-1,4
 474 232 474 232 510.5 211 c 128,-1,5
 547 190 547 190 600 190 c 0,6,7
 651 190 651 190 692.5 212.5 c 128,-1,8
 734 235 734 235 764 276.5 c 128,-1,9
 794 318 794 318 810.5 375.5 c 128,-1,10
 827 433 827 433 827 502 c 2,11,-1
 827 1082 l 1,12,-1
 1108 1082 l 1,13,-1
 1108 242 l 2,14,15
 1108 208 1108 208 1108.5 170.5 c 128,-1,16
 1109 133 1109 133 1110.5 99.5 c 128,-1,17
 1112 66 1112 66 1113.5 39.5 c 128,-1,18
 1115 13 1115 13 1116 0 c 1,19,-1
 848 0 l 1,20,21
 847 12 847 12 844.5 38.5 c 128,-1,22
 842 65 842 65 840.5 97 c 128,-1,23
 837.5 161 l 128,-1,24
 836 193 836 193 836 215 c 1,25,-1
 831 215 l 1,26,27
 775 92 775 92 688.5 36 c 128,-1,28
 602 -20 602 -20 483 -20 c 0,29,30
 386 -20 386 -20 318 12 c 128,-1,31
 250 44 250 44 207.5 99.5 c 128,-1,32
 165 155 165 155 146 231 c 128,-1,33
 127 307 127 307 127 395 c 2,34,-1
 127 1082 l 1,35,-1
 408 1082 l 1,0,-1
EndSplineSet
EndChar

StartChar: v
Encoding: 89 118 89
Width: 1139
GlyphClass: 2
Flags: W
LayerCount: 2
Fore
SplineSet
731 0 m 1,0,-1
 395 0 l 1,1,-1
 8 1082 l 1,2,-1
 305 1082 l 1,3,-1
 494 477 l 2,4,5
 503 447 503 447 513 413.5 c 128,-1,6
 523 380 523 380 532 347 c 128,-1,7
 541 314 541 314 549.5 283 c 128,-1,8
 558 252 558 252 565 227 c 1,9,10
 571 251 571 251 580 281.5 c 128,-1,11
 589 312 589 312 598.5 345 c 128,-1,12
 608 378 608 378 618.5 411 c 128,-1,13
 629 444 629 444 639 474 c 2,14,-1
 836 1082 l 1,15,-1
 1130 1082 l 1,16,-1
 731 0 l 1,0,-1
EndSplineSet
EndChar

StartChar: w
Encoding: 90 119 90
Width: 1593
GlyphClass: 2
Flags: W
LayerCount: 2
Fore
SplineSet
1313 0 m 1,0,-1
 1016 0 l 1,1,-1
 844 660 l 2,2,3
 836 691 836 691 828 729.5 c 128,-1,4
 820 768 820 768 813 802 c 2,5,-1
 797 882 l 1,6,7
 779 802 l 0,8,9
 771 768 771 768 762 729 c 128,-1,10
 753 690 753 690 745 658 c 2,11,-1
 571 0 l 1,12,-1
 274 0 l 1,13,-1
 -6 1082 l 1,14,-1
 258 1082 l 1,15,-1
 395 446 l 2,16,17
 401 419 401 419 408 385.5 c 128,-1,18
 415 352 415 352 421 323 c 0,19,20
 428 289 428 289 436 255 c 1,21,22
 443 293 443 293 450 329 c 0,23,24
 456 360 456 360 463 392 c 128,-1,25
 470 424 470 424 475 446 c 2,26,-1
 645 1082 l 1,27,-1
 946 1082 l 1,28,-1
 1112 446 l 2,29,30
 1119 420 1119 420 1126 387 c 128,-1,31
 1133 354 1133 354 1139 325 c 0,32,33
 1146 291 1146 291 1153 255 c 1,34,35
 1161 291 1161 291 1168 325 c 0,36,37
 1174 354 1174 354 1181 387 c 128,-1,38
 1188 420 1188 420 1194 446 c 2,39,-1
 1337 1082 l 1,40,-1
 1597 1082 l 1,41,-1
 1313 0 l 1,0,-1
EndSplineSet
EndChar

StartChar: x
Encoding: 91 120 91
Width: 1139
GlyphClass: 2
Flags: W
LayerCount: 2
Fore
SplineSet
819 0 m 1,0,-1
 567 392 l 1,1,-1
 313 0 l 1,2,-1
 14 0 l 1,3,-1
 410 559 l 1,4,-1
 33 1082 l 1,5,-1
 336 1082 l 1,6,-1
 567 728 l 1,7,-1
 797 1082 l 1,8,-1
 1102 1082 l 1,9,-1
 725 562 l 1,10,-1
 1124 0 l 1,11,-1
 819 0 l 1,0,-1
EndSplineSet
EndChar

StartChar: y
Encoding: 92 121 92
Width: 1139
GlyphClass: 2
Flags: W
LayerCount: 2
Fore
SplineSet
700 -57 m 2,0,1
 661 -152 661 -152 621 -221 c 128,-1,2
 581 -290 581 -290 532.5 -335.5 c 128,-1,3
 484 -381 484 -381 423.5 -403 c 128,-1,4
 363 -425 363 -425 283 -425 c 0,5,6
 239 -425 239 -425 193 -422 c 128,-1,7
 147 -419 147 -419 106 -412 c 1,8,-1
 106 -212 l 1,9,10
 126 -215 126 -215 154.5 -217.5 c 128,-1,11
 183 -220 183 -220 203 -220 c 0,12,13
 244 -220 244 -220 276 -211 c 128,-1,14
 308 -202 308 -202 334 -181 c 128,-1,15
 360 -160 360 -160 382.5 -125 c 128,-1,16
 405 -90 405 -90 426 -37 c 2,17,-1
 444 11 l 1,18,-1
 16 1082 l 1,19,-1
 313 1082 l 1,20,-1
 483 575 l 2,21,22
 487 564 487 564 495.5 538 c 128,-1,23
 504 512 504 512 514.5 478.5 c 128,-1,24
 525 445 525 445 536 408 c 128,-1,25
 547 371 547 371 557 337.5 c 128,-1,26
 567 304 567 304 574 278 c 128,-1,27
 581 252 581 252 584 241 c 1,28,29
 587 252 587 252 593.5 277.5 c 128,-1,30
 600 303 600 303 608.5 335.5 c 128,-1,31
 617 368 617 368 627 404 c 128,-1,32
 637 440 637 440 646 473 c 128,-1,33
 655 506 655 506 662.5 532.5 c 128,-1,34
 670 559 670 559 674 571 c 2,35,-1
 834 1082 l 1,36,-1
 1128 1082 l 1,37,-1
 700 -57 l 2,0,1
EndSplineSet
EndChar

StartChar: z
Encoding: 93 122 93
Width: 1024
GlyphClass: 2
Flags: W
LayerCount: 2
Fore
SplineSet
68 0 m 1,0,-1
 68 199 l 1,1,-1
 608 879 l 1,2,-1
 109 879 l 1,3,-1
 109 1082 l 1,4,-1
 918 1082 l 1,5,-1
 918 881 l 1,6,-1
 381 205 l 1,7,-1
 967 205 l 1,8,-1
 967 0 l 1,9,-1
 68 0 l 1,0,-1
EndSplineSet
EndChar

StartChar: braceleft
Encoding: 94 123 94
Width: 797
GlyphClass: 2
Flags: W
LayerCount: 2
Fore
SplineSet
557 -425 m 2,0,1
 488 -425 488 -425 433.5 -404 c 128,-1,2
 379 -383 379 -383 340.5 -344.5 c 128,-1,3
 302 -306 302 -306 282 -250.5 c 128,-1,4
 262 -195 262 -195 262 -126 c 2,5,-1
 262 202 l 2,6,7
 262 265 262 265 246 308.5 c 128,-1,8
 230 352 230 352 200 379 c 128,-1,9
 170 406 170 406 127.5 418 c 128,-1,10
 85 430 85 430 33 431 c 1,11,-1
 33 626 l 1,12,13
 86 628 86 628 128.5 640.5 c 128,-1,14
 171 653 171 653 200.5 680 c 128,-1,15
 230 707 230 707 246 750.5 c 128,-1,16
 262 794 262 794 262 857 c 2,17,-1
 262 1185 l 2,18,19
 262 1331 262 1331 340.5 1407.5 c 128,-1,20
 419 1484 419 1484 557 1484 c 2,21,-1
 754 1484 l 1,22,-1
 754 1294 l 1,23,-1
 696 1294 l 2,24,25
 605 1294 605 1294 564.5 1242 c 128,-1,26
 524 1190 524 1190 524 1085 c 2,27,-1
 524 784 l 2,28,29
 524 733 524 733 507.5 690.5 c 128,-1,30
 491 648 491 648 463 616 c 128,-1,31
 435 584 435 584 397 562.5 c 128,-1,32
 359 541 359 541 317 532 c 1,33,-1
 317 528 l 1,34,35
 360 518 360 518 398 496.5 c 128,-1,36
 436 475 436 475 464 442.5 c 128,-1,37
 492 410 492 410 508 368.5 c 128,-1,38
 524 327 524 327 524 276 c 2,39,-1
 524 -25 l 2,40,41
 524 -131 524 -131 564.5 -182.5 c 128,-1,42
 605 -234 605 -234 696 -234 c 2,43,-1
 754 -234 l 1,44,-1
 754 -425 l 1,45,-1
 557 -425 l 2,0,1
EndSplineSet
EndChar

StartChar: bar
Encoding: 95 124 95
Width: 573
GlyphClass: 2
Flags: W
LayerCount: 2
Fore
SplineSet
156 -455 m 1,0,-1
 156 1484 l 1,1,-1
 418 1484 l 1,2,-1
 418 -455 l 1,3,-1
 156 -455 l 1,0,-1
EndSplineSet
EndChar

StartChar: braceright
Encoding: 96 125 96
Width: 797
GlyphClass: 2
Flags: W
LayerCount: 2
Fore
SplineSet
43 -234 m 1,0,-1
 100 -234 l 2,1,2
 193 -234 193 -234 232.5 -182.5 c 128,-1,3
 272 -131 272 -131 272 -25 c 2,4,-1
 272 276 l 2,5,6
 272 327 272 327 288.5 368.5 c 128,-1,7
 305 410 305 410 333 442.5 c 128,-1,8
 361 475 361 475 398.5 496.5 c 128,-1,9
 436 518 436 518 479 528 c 1,10,-1
 479 532 l 1,11,12
 437 541 437 541 399.5 562.5 c 128,-1,13
 362 584 362 584 333.5 616 c 128,-1,14
 305 648 305 648 288.5 690.5 c 128,-1,15
 272 733 272 733 272 784 c 2,16,-1
 272 1085 l 2,17,18
 272 1190 272 1190 232.5 1242 c 128,-1,19
 193 1294 193 1294 100 1294 c 2,20,-1
 43 1294 l 1,21,-1
 43 1484 l 1,22,-1
 240 1484 l 2,23,24
 378 1484 378 1484 456.5 1407.5 c 128,-1,25
 535 1331 535 1331 535 1185 c 2,26,-1
 535 857 l 2,27,28
 535 794 535 794 551.5 750.5 c 128,-1,29
 568 707 568 707 598 680 c 128,-1,30
 628 653 628 653 670.5 640.5 c 128,-1,31
 713 628 713 628 766 626 c 1,32,-1
 766 431 l 1,33,34
 713 430 713 430 670.5 418 c 128,-1,35
 628 406 628 406 598 379 c 128,-1,36
 568 352 568 352 551.5 308.5 c 128,-1,37
 535 265 535 265 535 202 c 2,38,-1
 535 -126 l 2,39,40
 535 -195 535 -195 515 -250.5 c 128,-1,41
 495 -306 495 -306 456.5 -344.5 c 128,-1,42
 418 -383 418 -383 363.5 -404 c 128,-1,43
 309 -425 309 -425 240 -425 c 2,44,-1
 43 -425 l 1,45,-1
 43 -234 l 1,0,-1
EndSplineSet
EndChar

StartChar: asciitilde
Encoding: 97 126 97
Width: 1196
GlyphClass: 2
Flags: W
LayerCount: 2
Fore
SplineSet
852 516 m 0,0,1
 777 516 777 516 704.5 537 c 128,-1,2
 632 558 632 558 557 584 c 0,3,4
 491 607 491 607 436.5 619 c 128,-1,5
 382 631 382 631 336 631 c 0,6,7
 297 631 297 631 263.5 625 c 128,-1,8
 230 619 230 619 199.5 607.5 c 128,-1,9
 169 596 169 596 140 580 c 128,-1,10
 111 564 111 564 81 543 c 1,11,-1
 81 756 l 1,12,13
 132 794 132 794 200 817 c 128,-1,14
 268 840 268 840 352 840 c 0,15,16
 393 840 393 840 434 833.5 c 128,-1,17
 475 827 475 827 515 816.5 c 128,-1,18
 555 806 555 806 594 792.5 c 128,-1,19
 633 779 633 779 671 766 c 0,20,21
 716 750 716 750 769.5 736.5 c 128,-1,22
 823 723 823 723 871 723 c 0,23,24
 939 723 939 723 1003 748 c 128,-1,25
 1067 773 1067 773 1119 815 c 1,26,-1
 1119 596 l 1,27,28
 1087 574 1087 574 1056.5 558.5 c 128,-1,29
 1026 543 1026 543 994.5 533.5 c 128,-1,30
 963 524 963 524 928 520 c 128,-1,31
 893 516 893 516 852 516 c 0,0,1
EndSplineSet
EndChar

StartChar: exclamdown
Encoding: 98 161 98
Width: 682
GlyphClass: 2
Flags: W
LayerCount: 2
Fore
SplineSet
200 812 m 1,0,-1
 200 1082 l 1,1,-1
 488 1082 l 1,2,-1
 488 812 l 1,3,-1
 200 812 l 1,0,-1
194 -327 m 1,4,-1
 226 654 l 1,5,-1
 456 654 l 1,6,-1
 488 -327 l 1,7,-1
 194 -327 l 1,4,-1
EndSplineSet
EndChar

StartChar: cent
Encoding: 99 162 99
Width: 1139
GlyphClass: 2
Flags: W
LayerCount: 2
Fore
SplineSet
588 340 m 0,0,1
 676 340 676 340 735.5 394.5 c 128,-1,2
 795 449 795 449 809 549 c 1,3,-1
 1092 537 l 1,4,5
 1082 468 1082 468 1050.5 404.5 c 128,-1,6
 1019 341 1019 341 966 290 c 128,-1,7
 913 239 913 239 838.5 205 c 128,-1,8
 764 171 764 171 668 160 c 1,9,-1
 668 -31 l 1,10,-1
 506 -31 l 1,11,-1
 506 158 l 1,12,13
 392 169 392 169 306.5 212 c 128,-1,14
 221 255 221 255 164 323.5 c 128,-1,15
 107 392 107 392 79 484 c 128,-1,16
 51 576 51 576 51 686 c 0,17,18
 51 803 51 803 81.5 897.5 c 128,-1,19
 112 992 112 992 170 1061 c 128,-1,20
 228 1130 228 1130 313 1171.5 c 128,-1,21
 398 1213 398 1213 506 1225 c 1,22,-1
 506 1409 l 1,23,-1
 668 1409 l 1,24,-1
 668 1225 l 1,25,26
 758 1215 758 1215 829.5 1184 c 128,-1,27
 901 1153 901 1153 953 1106 c 128,-1,28
 1005 1059 1005 1059 1037.5 998 c 128,-1,29
 1070 937 1070 937 1083 868 c 1,30,-1
 801 854 l 1,31,32
 794 896 794 896 777.5 930.5 c 128,-1,33
 761 965 761 965 734 990.5 c 128,-1,34
 707 1016 707 1016 670.5 1030 c 128,-1,35
 634 1044 634 1044 586 1044 c 0,36,37
 462 1044 462 1044 398 952 c 128,-1,38
 334 860 334 860 334 696 c 0,39,40
 334 522 334 522 400.5 431 c 128,-1,41
 467 340 467 340 588 340 c 0,0,1
EndSplineSet
EndChar

StartChar: sterling
Encoding: 100 163 100
Width: 1139
GlyphClass: 2
Flags: W
LayerCount: 2
Fore
SplineSet
1118 363 m 1,0,1
 1105 290 1105 290 1075 224 c 128,-1,2
 1045 158 1045 158 996 108.5 c 128,-1,3
 947 59 947 59 880 29.5 c 128,-1,4
 813 0 813 0 726 0 c 2,5,-1
 32 0 l 1,6,-1
 32 205 l 1,7,8
 71 227 71 227 104 253 c 128,-1,9
 137 279 137 279 160 314.5 c 128,-1,10
 183 350 183 350 196 398 c 128,-1,11
 209 446 209 446 209 512 c 2,12,-1
 209 604 l 1,13,-1
 21 604 l 1,14,-1
 21 774 l 1,15,-1
 199 774 l 1,16,-1
 199 1022 l 2,17,18
 199 1114 199 1114 223 1189.5 c 128,-1,19
 247 1265 247 1265 298.5 1318.5 c 128,-1,20
 350 1372 350 1372 430.5 1401 c 128,-1,21
 511 1430 511 1430 625 1430 c 0,22,23
 721 1430 721 1430 789 1409.5 c 128,-1,24
 857 1389 857 1389 904.5 1351 c 128,-1,25
 952 1313 952 1313 982.5 1259.5 c 128,-1,26
 1013 1206 1013 1206 1032 1139 c 1,27,-1
 799 1092 l 1,28,29
 778 1169 778 1169 737 1204 c 128,-1,30
 696 1239 696 1239 630 1239 c 0,31,32
 539 1239 539 1239 499 1181.5 c 128,-1,33
 459 1124 459 1124 459 999 c 2,34,-1
 459 774 l 1,35,-1
 745 774 l 1,36,-1
 745 604 l 1,37,-1
 459 604 l 1,38,-1
 459 514 l 2,39,40
 459 455 459 455 446.5 408.5 c 128,-1,41
 434 362 434 362 411 325.5 c 128,-1,42
 388 289 388 289 354 261 c 128,-1,43
 320 233 320 233 277 209 c 1,44,-1
 657 209 l 2,45,46
 761 209 761 209 814.5 258.5 c 128,-1,47
 868 308 868 308 885 402 c 1,48,-1
 1118 363 l 1,0,1
EndSplineSet
EndChar

StartChar: currency
Encoding: 101 164 101
Width: 1139
GlyphClass: 2
Flags: W
LayerCount: 2
Fore
SplineSet
134 684 m 256,0,1
 134 744 134 744 149.5 800 c 128,-1,2
 165 856 165 856 194 905 c 1,3,-1
 61 1038 l 1,4,-1
 218 1194 l 1,5,-1
 349 1061 l 1,6,7
 397 1089 397 1089 453 1104.5 c 128,-1,8
 509 1120 509 1120 569 1120 c 256,9,10
 629 1120 629 1120 684.5 1105 c 128,-1,11
 740 1090 740 1090 788 1061 c 1,12,-1
 923 1196 l 1,13,-1
 1081 1038 l 1,14,-1
 945 903 l 1,15,16
 974 855 974 855 989.5 799.5 c 128,-1,17
 1005 744 1005 744 1005 684 c 256,18,19
 1005 624 1005 624 990 569.5 c 128,-1,20
 975 515 975 515 947 467 c 1,21,-1
 1081 334 l 1,22,-1
 923 174 l 1,23,-1
 790 309 l 1,24,25
 690 250 690 250 569 250 c 0,26,27
 509 250 509 250 453 264.5 c 128,-1,28
 397 279 397 279 349 307 c 1,29,-1
 214 170 l 1,30,-1
 57 328 l 1,31,-1
 192 465 l 1,32,33
 164 513 164 513 149 568.5 c 128,-1,34
 134 624 134 624 134 684 c 256,0,1
360 686 m 256,35,36
 360 643 360 643 376.5 605 c 128,-1,37
 393 567 393 567 421.5 538.5 c 128,-1,38
 450 510 450 510 488 493.5 c 128,-1,39
 526 477 526 477 569 477 c 256,40,41
 612 477 612 477 649.5 493.5 c 128,-1,42
 687 510 687 510 715.5 538.5 c 128,-1,43
 744 567 744 567 760.5 605 c 128,-1,44
 777 643 777 643 777 686 c 256,45,46
 777 729 777 729 760.5 767 c 128,-1,47
 744 805 744 805 715.5 833.5 c 128,-1,48
 687 862 687 862 649.5 878.5 c 128,-1,49
 612 895 612 895 569 895 c 256,50,51
 526 895 526 895 488 878.5 c 128,-1,52
 450 862 450 862 421.5 833.5 c 128,-1,53
 393 805 393 805 376.5 767 c 128,-1,54
 360 729 360 729 360 686 c 256,35,36
EndSplineSet
EndChar

StartChar: yen
Encoding: 102 165 102
Width: 1139
GlyphClass: 2
Flags: W
LayerCount: 2
Fore
SplineSet
766 691 m 1,0,-1
 1042 691 l 1,1,-1
 1042 545 l 1,2,-1
 704 545 l 1,3,-1
 704 383 l 1,4,-1
 1042 383 l 1,5,-1
 1042 236 l 1,6,-1
 704 236 l 1,7,-1
 704 0 l 1,8,-1
 432 0 l 1,9,-1
 432 236 l 1,10,-1
 96 236 l 1,11,-1
 96 383 l 1,12,-1
 432 383 l 1,13,-1
 434 545 l 1,14,-1
 96 545 l 1,15,-1
 96 691 l 1,16,-1
 372 691 l 1,17,-1
 8 1409 l 1,18,-1
 297 1409 l 1,19,-1
 567 813 l 1,20,-1
 841 1409 l 1,21,-1
 1130 1409 l 1,22,-1
 766 691 l 1,0,-1
EndSplineSet
EndChar

StartChar: brokenbar
Encoding: 103 166 103
Width: 573
GlyphClass: 2
Flags: W
LayerCount: 2
Fore
SplineSet
156 676 m 1,0,-1
 156 1454 l 1,1,-1
 418 1454 l 1,2,-1
 418 676 l 1,3,-1
 156 676 l 1,0,-1
156 -455 m 1,4,-1
 156 324 l 1,5,-1
 418 324 l 1,6,-1
 418 -455 l 1,7,-1
 156 -455 l 1,4,-1
EndSplineSet
EndChar

StartChar: section
Encoding: 104 167 104
Width: 1139
GlyphClass: 2
Flags: W
LayerCount: 2
Fore
SplineSet
575 1427 m 0,0,1
 662 1427 662 1427 738.5 1411.5 c 128,-1,2
 815 1396 815 1396 875 1363 c 128,-1,3
 935 1330 935 1330 975.5 1278 c 128,-1,4
 1016 1226 1016 1226 1031 1153 c 1,5,-1
 792 1128 l 1,6,7
 785 1162 785 1162 765.5 1186.5 c 128,-1,8
 746 1211 746 1211 717.5 1226.5 c 128,-1,9
 689 1242 689 1242 652.5 1249.5 c 128,-1,10
 616 1257 616 1257 575 1257 c 0,11,12
 463 1257 463 1257 410.5 1227.5 c 128,-1,13
 358 1198 358 1198 358 1133 c 0,14,15
 358 1094 358 1094 381 1067.5 c 128,-1,16
 404 1041 404 1041 443 1022 c 128,-1,17
 482 1003 482 1003 533.5 989.5 c 128,-1,18
 585 976 585 976 642 963 c 0,19,20
 727 944 727 944 802.5 920 c 128,-1,21
 878 896 878 896 934 859 c 128,-1,22
 990 822 990 822 1023 768 c 128,-1,23
 1056 714 1056 714 1056 634 c 0,24,25
 1056 590 1056 590 1043 549.5 c 128,-1,26
 1030 509 1030 509 1004.5 474.5 c 128,-1,27
 979 440 979 440 942.5 413 c 128,-1,28
 906 386 906 386 859 371 c 1,29,30
 900 353 900 353 933.5 329 c 128,-1,31
 967 305 967 305 990.5 274.5 c 128,-1,32
 1014 244 1014 244 1027 204.5 c 128,-1,33
 1040 165 1040 165 1040 115 c 0,34,35
 1040 37 1040 37 1011 -26.5 c 128,-1,36
 982 -90 982 -90 922 -135 c 128,-1,37
 862 -180 862 -180 771 -204.5 c 128,-1,38
 680 -229 680 -229 556 -229 c 0,39,40
 453 -229 453 -229 369.5 -214 c 128,-1,41
 286 -199 286 -199 222.5 -165 c 128,-1,42
 159 -131 159 -131 116.5 -76 c 128,-1,43
 74 -21 74 -21 53 59 c 1,44,-1
 290 96 l 1,45,46
 301 51 301 51 324 21 c 128,-1,47
 347 -9 347 -9 381 -27 c 128,-1,48
 415 -45 415 -45 459 -52 c 128,-1,49
 503 -59 503 -59 556 -59 c 0,50,51
 678 -59 678 -59 741 -26.5 c 128,-1,52
 804 6 804 6 804 86 c 0,53,54
 804 131 804 131 783 160 c 128,-1,55
 762 189 762 189 720 209.5 c 128,-1,56
 678 230 678 230 615 246.5 c 128,-1,57
 552 263 552 263 468 283 c 0,58,59
 405 298 405 298 338 320.5 c 128,-1,60
 271 343 271 343 216.5 379 c 128,-1,61
 162 415 162 415 126.5 468.5 c 128,-1,62
 91 522 91 522 91 600 c 0,63,64
 91 649 91 649 106 689 c 128,-1,65
 121 729 121 729 149 760.5 c 128,-1,66
 177 792 177 792 216.5 816 c 128,-1,67
 256 840 256 840 304 856 c 1,68,69
 266 872 266 872 231.5 896.5 c 128,-1,70
 197 921 197 921 171.5 953.5 c 128,-1,71
 146 986 146 986 131 1026 c 128,-1,72
 116 1066 116 1066 116 1114 c 0,73,74
 116 1263 116 1263 233.5 1345 c 128,-1,75
 351 1427 351 1427 575 1427 c 0,0,1
818 600 m 0,76,77
 818 639 818 639 802 666 c 128,-1,78
 786 693 786 693 750.5 713.5 c 128,-1,79
 715 734 715 734 659.5 749.5 c 128,-1,80
 604 765 604 765 526 780 c 1,81,82
 433 769 433 769 383 732.5 c 128,-1,83
 333 696 333 696 333 627 c 0,84,85
 333 588 333 588 357 561.5 c 128,-1,86
 381 535 381 535 421.5 516.5 c 128,-1,87
 462 498 462 498 514.5 484.5 c 128,-1,88
 567 471 567 471 623 458 c 1,89,90
 664 460 664 460 700 468.5 c 128,-1,91
 736 477 736 477 762 494 c 128,-1,92
 788 511 788 511 803 537 c 128,-1,93
 818 563 818 563 818 600 c 0,76,77
EndSplineSet
EndChar

StartChar: dieresis
Encoding: 105 168 105
Width: 682
GlyphClass: 2
Flags: W
LayerCount: 2
Fore
SplineSet
450 1199 m 1,0,-1
 450 1418 l 1,1,-1
 667 1418 l 1,2,-1
 667 1199 l 1,3,-1
 450 1199 l 1,0,-1
16 1199 m 1,4,-1
 16 1418 l 1,5,-1
 230 1418 l 1,6,-1
 230 1199 l 1,7,-1
 16 1199 l 1,4,-1
EndSplineSet
EndChar

StartChar: copyright
Encoding: 106 169 106
Width: 1509
GlyphClass: 2
Flags: W
LayerCount: 2
Fore
SplineSet
1478 707 m 0,0,1
 1478 607 1478 607 1452 514.5 c 128,-1,2
 1426 422 1426 422 1379 341.5 c 128,-1,3
 1332 261 1332 261 1266.5 195.5 c 128,-1,4
 1201 130 1201 130 1120.5 83 c 128,-1,5
 1040 36 1040 36 947.5 10 c 128,-1,6
 855 -16 855 -16 755 -16 c 0,7,8
 656 -16 656 -16 563.5 10 c 128,-1,9
 471 36 471 36 391 83 c 128,-1,10
 311 130 311 130 244.5 195.5 c 128,-1,11
 178 261 178 261 131 341.5 c 128,-1,12
 84 422 84 422 58 514.5 c 128,-1,13
 32 607 32 607 32 707 c 256,14,15
 32 807 32 807 58 899 c 128,-1,16
 84 991 84 991 131 1071.5 c 128,-1,17
 178 1152 178 1152 244 1218 c 128,-1,18
 310 1284 310 1284 390.5 1331 c 128,-1,19
 471 1378 471 1378 563 1404 c 128,-1,20
 655 1430 655 1430 755 1430 c 0,21,22
 905 1430 905 1430 1036.5 1373 c 128,-1,23
 1168 1316 1168 1316 1266.5 1218 c 128,-1,24
 1365 1120 1365 1120 1421.5 988.5 c 128,-1,25
 1478 857 1478 857 1478 707 c 0,0,1
1366 707 m 0,26,27
 1366 833 1366 833 1318 943.5 c 128,-1,28
 1270 1054 1270 1054 1187 1136.5 c 128,-1,29
 1104 1219 1104 1219 993 1267 c 128,-1,30
 882 1315 882 1315 755 1315 c 0,31,32
 671 1315 671 1315 593.5 1293 c 128,-1,33
 516 1271 516 1271 448 1231.5 c 128,-1,34
 380 1192 380 1192 325 1136.5 c 128,-1,35
 270 1081 270 1081 230 1013.5 c 128,-1,36
 190 946 190 946 168.5 868.5 c 128,-1,37
 147 791 147 791 147 707 c 0,38,39
 147 580 147 580 195 469 c 128,-1,40
 243 358 243 358 325.5 275 c 128,-1,41
 408 192 408 192 518.5 144 c 128,-1,42
 629 96 629 96 755 96 c 0,43,44
 882 96 882 96 993 144 c 128,-1,45
 1104 192 1104 192 1187 275 c 128,-1,46
 1270 358 1270 358 1318 469 c 128,-1,47
 1366 580 1366 580 1366 707 c 0,26,27
544 709 m 256,48,49
 544 647 544 647 557.5 595 c 128,-1,50
 571 543 571 543 599 505.5 c 128,-1,51
 627 468 627 468 669 447 c 128,-1,52
 711 426 711 426 768 426 c 0,53,54
 809 426 809 426 841 439 c 128,-1,55
 873 452 873 452 897 473 c 128,-1,56
 921 494 921 494 937.5 519.5 c 128,-1,57
 954 545 954 545 964 569 c 1,58,-1
 1124 522 l 1,59,60
 1104 479 1104 479 1075.5 436.5 c 128,-1,61
 1047 394 1047 394 1005 360 c 128,-1,62
 963 326 963 326 905 305.5 c 128,-1,63
 847 285 847 285 768 285 c 0,64,65
 664 285 664 285 588 316.5 c 128,-1,66
 512 348 512 348 462 404.5 c 128,-1,67
 412 461 412 461 388 539 c 128,-1,68
 364 617 364 617 364 709 c 0,69,70
 364 805 364 805 388 882 c 128,-1,71
 412 959 412 959 461 1012.5 c 128,-1,72
 510 1066 510 1066 584.5 1095 c 128,-1,73
 659 1124 659 1124 759 1124 c 0,74,75
 837 1124 837 1124 895 1105.5 c 128,-1,76
 953 1087 953 1087 994.5 1055.5 c 128,-1,77
 1036 1024 1036 1024 1064.5 982.5 c 128,-1,78
 1093 941 1093 941 1112 895 c 1,79,-1
 956 854 l 1,80,81
 946 878 946 878 930 901 c 128,-1,82
 914 924 914 924 890.5 942.5 c 128,-1,83
 867 961 867 961 836 972 c 128,-1,84
 805 983 805 983 764 983 c 0,85,86
 706 983 706 983 664 963.5 c 128,-1,87
 622 944 622 944 595.5 908 c 128,-1,88
 569 872 569 872 556.5 821.5 c 128,-1,89
 544 771 544 771 544 709 c 256,48,49
EndSplineSet
EndChar

StartChar: ordfeminine
Encoding: 107 170 107
Width: 758
GlyphClass: 2
Flags: W
LayerCount: 2
Fore
SplineSet
257 725 m 0,0,1
 160 725 160 725 102.5 777.5 c 128,-1,2
 45 830 45 830 45 927 c 0,3,4
 45 987 45 987 68 1027 c 128,-1,5
 91 1067 91 1067 130 1091.5 c 128,-1,6
 169 1116 169 1116 220.5 1126.5 c 128,-1,7
 272 1137 272 1137 329 1138 c 2,8,-1
 476 1140 l 1,9,-1
 476 1182 l 2,10,11
 476 1217 476 1217 468 1240 c 128,-1,12
 460 1263 460 1263 446 1276.5 c 128,-1,13
 432 1290 432 1290 413 1295.5 c 128,-1,14
 394 1301 394 1301 372 1301 c 0,15,16
 351 1301 351 1301 332.5 1297 c 128,-1,17
 314 1293 314 1293 299 1282.5 c 128,-1,18
 284 1272 284 1272 273.5 1254 c 128,-1,19
 263 1236 263 1236 260 1207 c 1,20,-1
 70 1216 l 1,21,22
 78 1259 78 1259 99.5 1296 c 128,-1,23
 121 1333 121 1333 158.5 1360.5 c 128,-1,24
 196 1388 196 1388 249 1403.5 c 128,-1,25
 302 1419 302 1419 371 1419 c 0,26,27
 436 1419 436 1419 488.5 1405 c 128,-1,28
 541 1391 541 1391 579 1361.5 c 128,-1,29
 617 1332 617 1332 637.5 1288 c 128,-1,30
 658 1244 658 1244 658 1184 c 2,31,-1
 658 947 l 2,32,33
 658 899 658 899 667 874.5 c 128,-1,34
 676 850 676 850 709 850 c 0,35,36
 713 850 713 850 720 850.5 c 128,-1,37
 727 851 727 851 734 852 c 128,-1,38
 741 853 741 853 747.5 853.5 c 128,-1,39
 754 854 754 854 758 855 c 1,40,-1
 758 746 l 1,41,42
 729 738 729 738 697.5 733 c 128,-1,43
 666 728 666 728 639 728 c 0,44,45
 568 728 568 728 527.5 764.5 c 128,-1,46
 487 801 487 801 482 862 c 1,47,-1
 479 862 l 1,48,49
 445 797 445 797 389.5 761 c 128,-1,50
 334 725 334 725 257 725 c 0,0,1
328 856 m 0,51,52
 363 856 363 856 390.5 871 c 128,-1,53
 418 886 418 886 437 909 c 128,-1,54
 456 932 456 932 466 960.5 c 128,-1,55
 476 989 476 989 476 1017 c 2,56,-1
 476 1044 l 1,57,-1
 384 1042 l 2,58,59
 353 1041 353 1041 326 1037.5 c 128,-1,60
 299 1034 299 1034 278.5 1023.5 c 128,-1,61
 258 1013 258 1013 246 993.5 c 128,-1,62
 234 974 234 974 234 941 c 0,63,64
 234 900 234 900 257 878 c 128,-1,65
 280 856 280 856 328 856 c 0,51,52
EndSplineSet
EndChar

StartChar: guillemotleft
Encoding: 108 171 108
Width: 1139
GlyphClass: 2
Flags: W
LayerCount: 2
Fore
SplineSet
807 141 m 1,0,-1
 551 502 l 1,1,-1
 551 573 l 1,2,-1
 807 940 l 1,3,-1
 1045 940 l 1,4,-1
 1045 903 l 1,5,-1
 791 537 l 1,6,-1
 1047 176 l 1,7,-1
 1047 141 l 1,8,-1
 807 141 l 1,0,-1
350 141 m 1,9,-1
 92 502 l 1,10,-1
 92 573 l 1,11,-1
 350 940 l 1,12,-1
 586 940 l 1,13,-1
 586 903 l 1,14,-1
 332 537 l 1,15,-1
 588 176 l 1,16,-1
 588 141 l 1,17,-1
 350 141 l 1,9,-1
EndSplineSet
EndChar

StartChar: logicalnot
Encoding: 109 172 109
Width: 1196
GlyphClass: 2
Flags: W
LayerCount: 2
Fore
SplineSet
887 141 m 1,0,-1
 887 569 l 1,1,-1
 84 569 l 1,2,-1
 84 793 l 1,3,-1
 1111 793 l 1,4,-1
 1111 141 l 1,5,-1
 887 141 l 1,0,-1
EndSplineSet
EndChar

StartChar: registered
Encoding: 110 174 110
Width: 1509
GlyphClass: 2
Flags: W
LayerCount: 2
Fore
SplineSet
1478 707 m 0,0,1
 1478 607 1478 607 1452 514.5 c 128,-1,2
 1426 422 1426 422 1379 341.5 c 128,-1,3
 1332 261 1332 261 1266.5 195.5 c 128,-1,4
 1201 130 1201 130 1120.5 83 c 128,-1,5
 1040 36 1040 36 947.5 10 c 128,-1,6
 855 -16 855 -16 755 -16 c 0,7,8
 656 -16 656 -16 563.5 10 c 128,-1,9
 471 36 471 36 391 83 c 128,-1,10
 311 130 311 130 244.5 195.5 c 128,-1,11
 178 261 178 261 131 341.5 c 128,-1,12
 84 422 84 422 58 514.5 c 128,-1,13
 32 607 32 607 32 707 c 256,14,15
 32 807 32 807 58 899 c 128,-1,16
 84 991 84 991 131 1071.5 c 128,-1,17
 178 1152 178 1152 244 1218 c 128,-1,18
 310 1284 310 1284 390.5 1331 c 128,-1,19
 471 1378 471 1378 563 1404 c 128,-1,20
 655 1430 655 1430 755 1430 c 0,21,22
 905 1430 905 1430 1036.5 1373 c 128,-1,23
 1168 1316 1168 1316 1266.5 1218 c 128,-1,24
 1365 1120 1365 1120 1421.5 988.5 c 128,-1,25
 1478 857 1478 857 1478 707 c 0,0,1
1366 707 m 0,26,27
 1366 833 1366 833 1318 943.5 c 128,-1,28
 1270 1054 1270 1054 1187 1136.5 c 128,-1,29
 1104 1219 1104 1219 993 1267 c 128,-1,30
 882 1315 882 1315 755 1315 c 0,31,32
 671 1315 671 1315 593.5 1293 c 128,-1,33
 516 1271 516 1271 448 1231.5 c 128,-1,34
 380 1192 380 1192 325 1136.5 c 128,-1,35
 270 1081 270 1081 230 1013.5 c 128,-1,36
 190 946 190 946 168.5 868.5 c 128,-1,37
 147 791 147 791 147 707 c 0,38,39
 147 580 147 580 195 469 c 128,-1,40
 243 358 243 358 325.5 275 c 128,-1,41
 408 192 408 192 518.5 144 c 128,-1,42
 629 96 629 96 755 96 c 0,43,44
 882 96 882 96 993 144 c 128,-1,45
 1104 192 1104 192 1187 275 c 128,-1,46
 1270 358 1270 358 1318 469 c 128,-1,47
 1366 580 1366 580 1366 707 c 0,26,27
923 297 m 1,48,-1
 745 610 l 1,49,-1
 628 610 l 1,50,-1
 628 297 l 1,51,-1
 450 297 l 1,52,-1
 450 1112 l 1,53,-1
 780 1112 l 2,54,55
 933 1112 933 1112 1009 1047.5 c 128,-1,56
 1085 983 1085 983 1085 870 c 0,57,58
 1085 776 1085 776 1037 717 c 128,-1,59
 989 658 989 658 911 633 c 1,60,-1
 1124 297 l 1,61,-1
 923 297 l 1,48,-1
905 868 m 0,62,63
 905 925 905 925 867.5 955 c 128,-1,64
 830 985 830 985 761 985 c 2,65,-1
 628 985 l 1,66,-1
 628 739 l 1,67,-1
 772 739 l 2,68,69
 838 739 838 739 871.5 774.5 c 128,-1,70
 905 810 905 810 905 868 c 0,62,63
EndSplineSet
EndChar

StartChar: macron
Encoding: 111 175 111
Width: 1131
GlyphClass: 2
Flags: W
LayerCount: 2
Fore
SplineSet
1148 1452 m 1,0,-1
 -17 1452 l 1,1,-1
 -17 1546 l 1,2,-1
 1148 1546 l 1,3,-1
 1148 1452 l 1,0,-1
EndSplineSet
EndChar

StartChar: degree
Encoding: 112 176 112
Width: 819
GlyphClass: 2
Flags: W
LayerCount: 2
Fore
SplineSet
731 1110 m 0,0,1
 731 1044 731 1044 705.5 986.5 c 128,-1,2
 680 929 680 929 636.5 886.5 c 128,-1,3
 593 844 593 844 534.5 819.5 c 128,-1,4
 476 795 476 795 410 795 c 256,5,6
 344 795 344 795 285.5 819.5 c 128,-1,7
 227 844 227 844 183.5 886.5 c 128,-1,8
 140 929 140 929 115 986.5 c 128,-1,9
 90 1044 90 1044 90 1110 c 0,10,11
 90 1177 90 1177 115 1234.5 c 128,-1,12
 140 1292 140 1292 183.5 1334.5 c 128,-1,13
 227 1377 227 1377 285.5 1401 c 128,-1,14
 344 1425 344 1425 410 1425 c 256,15,16
 476 1425 476 1425 534.5 1401 c 128,-1,17
 593 1377 593 1377 636.5 1334.5 c 128,-1,18
 680 1292 680 1292 705.5 1234.5 c 128,-1,19
 731 1177 731 1177 731 1110 c 0,0,1
573 1110 m 0,20,21
 573 1145 573 1145 560.5 1175.5 c 128,-1,22
 548 1206 548 1206 526 1228.5 c 128,-1,23
 504 1251 504 1251 474.5 1263.5 c 128,-1,24
 445 1276 445 1276 410 1276 c 256,25,26
 375 1276 375 1276 345 1263.5 c 128,-1,27
 315 1251 315 1251 292.5 1228.5 c 128,-1,28
 270 1206 270 1206 257 1175.5 c 128,-1,29
 244 1145 244 1145 244 1110 c 0,30,31
 244 1076 244 1076 257 1045.5 c 128,-1,32
 270 1015 270 1015 292.5 992 c 128,-1,33
 315 969 315 969 345 955.5 c 128,-1,34
 375 942 375 942 410 942 c 256,35,36
 445 942 445 942 474.5 955.5 c 128,-1,37
 504 969 504 969 526 992 c 128,-1,38
 548 1015 548 1015 560.5 1045.5 c 128,-1,39
 573 1076 573 1076 573 1110 c 0,20,21
EndSplineSet
EndChar

StartChar: plusminus
Encoding: 113 177 113
Width: 1124
GlyphClass: 2
Flags: W
LayerCount: 2
Fore
SplineSet
674 707 m 1,0,-1
 674 366 l 1,1,-1
 450 366 l 1,2,-1
 450 707 l 1,3,-1
 49 707 l 1,4,-1
 49 930 l 1,5,-1
 450 930 l 1,6,-1
 450 1270 l 1,7,-1
 674 1270 l 1,8,-1
 674 930 l 1,9,-1
 1076 930 l 1,10,-1
 1076 707 l 1,11,-1
 674 707 l 1,0,-1
49 0 m 1,12,-1
 49 223 l 1,13,-1
 1076 223 l 1,14,-1
 1076 0 l 1,15,-1
 49 0 l 1,12,-1
EndSplineSet
EndChar

StartChar: uni00B2
Encoding: 114 178 114
Width: 682
GlyphClass: 2
Flags: W
LayerCount: 2
Fore
SplineSet
53 694 m 1,0,-1
 51 815 l 1,1,2
 76 868 76 868 113.5 908.5 c 128,-1,3
 151 949 151 949 193 981 c 128,-1,4
 235 1013 235 1013 277 1040 c 128,-1,5
 319 1067 319 1067 352.5 1092.5 c 128,-1,6
 386 1118 386 1118 407 1146 c 128,-1,7
 428 1174 428 1174 428 1208 c 0,8,9
 428 1250 428 1250 408.5 1274.5 c 128,-1,10
 389 1299 389 1299 347 1299 c 0,11,12
 262 1299 262 1299 252 1201 c 1,13,-1
 58 1206 l 1,14,15
 64 1252 64 1252 85.5 1292 c 128,-1,16
 107 1332 107 1332 143 1362 c 128,-1,17
 179 1392 179 1392 230 1409 c 128,-1,18
 281 1426 281 1426 347 1426 c 0,19,20
 418 1426 418 1426 470.5 1410 c 128,-1,21
 523 1394 523 1394 557.5 1366 c 128,-1,22
 592 1338 592 1338 609 1299.5 c 128,-1,23
 626 1261 626 1261 626 1216 c 0,24,25
 626 1163 626 1163 604 1123 c 128,-1,26
 582 1083 582 1083 548 1051 c 128,-1,27
 514 1019 514 1019 472.5 992.5 c 128,-1,28
 431 966 431 966 392.5 940.5 c 128,-1,29
 354 915 354 915 322.5 889 c 128,-1,30
 291 863 291 863 277 832 c 1,31,-1
 639 832 l 1,32,-1
 639 694 l 1,33,-1
 53 694 l 1,0,-1
EndSplineSet
EndChar

StartChar: uni00B3
Encoding: 115 179 115
Width: 682
GlyphClass: 2
Flags: W
LayerCount: 2
Fore
SplineSet
638 895 m 0,0,1
 638 796 638 796 563 740 c 128,-1,2
 488 684 488 684 350 684 c 0,3,4
 266 684 266 684 209.5 702 c 128,-1,5
 153 720 153 720 117.5 749.5 c 128,-1,6
 82 779 82 779 65.5 816 c 128,-1,7
 49 853 49 853 44 892 c 1,8,-1
 233 904 l 1,9,10
 238 859 238 859 265.5 835 c 128,-1,11
 293 811 293 811 347 811 c 0,12,13
 396 811 396 811 422.5 834.5 c 128,-1,14
 449 858 449 858 449 907 c 0,15,16
 449 938 449 938 435.5 956.5 c 128,-1,17
 422 975 422 975 401.5 984.5 c 128,-1,18
 381 994 381 994 356.5 997 c 128,-1,19
 332 1000 332 1000 310 1000 c 2,20,-1
 254 1000 l 1,21,-1
 254 1126 l 1,22,-1
 305 1126 l 2,23,24
 328 1126 328 1126 350.5 1130 c 128,-1,25
 373 1134 373 1134 391 1144 c 128,-1,26
 409 1154 409 1154 420.5 1171.5 c 128,-1,27
 432 1189 432 1189 432 1216 c 0,28,29
 432 1255 432 1255 409 1277 c 128,-1,30
 386 1299 386 1299 343 1299 c 0,31,32
 301 1299 301 1299 275.5 1277 c 128,-1,33
 250 1255 250 1255 245 1210 c 1,34,-1
 59 1222 l 1,35,36
 65 1273 65 1273 90 1311.5 c 128,-1,37
 115 1350 115 1350 153.5 1375.5 c 128,-1,38
 192 1401 192 1401 241.5 1413.5 c 128,-1,39
 291 1426 291 1426 348 1426 c 0,40,41
 416 1426 416 1426 467 1411.5 c 128,-1,42
 518 1397 518 1397 551.5 1371.5 c 128,-1,43
 585 1346 585 1346 602 1311.5 c 128,-1,44
 619 1277 619 1277 619 1238 c 0,45,46
 619 1174 619 1174 582.5 1128.5 c 128,-1,47
 546 1083 546 1083 467 1067 c 1,48,-1
 467 1065 l 1,49,50
 512 1060 512 1060 544.5 1044.5 c 128,-1,51
 577 1029 577 1029 597.5 1006 c 128,-1,52
 618 983 618 983 628 954.5 c 128,-1,53
 638 926 638 926 638 895 c 0,0,1
EndSplineSet
EndChar

StartChar: acute
Encoding: 116 180 116
Width: 682
GlyphClass: 2
Flags: W
LayerCount: 2
Fore
SplineSet
87 1183 m 1,0,-1
 87 1214 l 1,1,-1
 339 1502 l 1,2,-1
 597 1502 l 1,3,-1
 597 1459 l 1,4,-1
 257 1183 l 1,5,-1
 87 1183 l 1,0,-1
EndSplineSet
EndChar

StartChar: u00B5
Encoding: 117 181 117
Width: 1180
GlyphClass: 2
Flags: W
LayerCount: 2
Fore
SplineSet
789 0 m 1,0,1
 786 23 786 23 781 62 c 128,-1,2
 776 101 776 101 776 144 c 1,3,-1
 773 144 l 1,4,5
 754 95 754 95 732.5 63 c 128,-1,6
 711 31 711 31 686.5 12.5 c 128,-1,7
 662 -6 662 -6 633 -13 c 128,-1,8
 604 -20 604 -20 571 -20 c 0,9,10
 519 -20 519 -20 478.5 4 c 128,-1,11
 438 28 438 28 415 70 c 1,12,-1
 411 70 l 1,13,14
 414 38 414 38 414.5 10.5 c 128,-1,15
 415 -17 415 -17 415 -45 c 2,16,-1
 415 -426 l 1,17,-1
 134 -426 l 1,18,-1
 134 1082 l 1,19,-1
 415 1082 l 1,20,-1
 415 477 l 2,21,22
 415 413 415 413 423 361 c 128,-1,23
 431 309 431 309 451 271.5 c 128,-1,24
 471 234 471 234 504.5 213.5 c 128,-1,25
 538 193 538 193 590 193 c 0,26,27
 640 193 640 193 674 215.5 c 128,-1,28
 708 238 708 238 729 278.5 c 128,-1,29
 750 319 750 319 759 376.5 c 128,-1,30
 768 434 768 434 768 504 c 2,31,-1
 768 1082 l 1,32,-1
 1049 1082 l 1,33,-1
 1049 242 l 2,34,35
 1049 208 1049 208 1049.5 171.5 c 128,-1,36
 1050 135 1050 135 1051.5 101.5 c 128,-1,37
 1053 68 1053 68 1054.5 41 c 128,-1,38
 1056 14 1056 14 1057 0 c 1,39,-1
 789 0 l 1,0,1
EndSplineSet
EndChar

StartChar: paragraph
Encoding: 118 182 118
Width: 1139
GlyphClass: 2
Flags: W
LayerCount: 2
Fore
SplineSet
940 1266 m 1,0,-1
 940 -264 l 1,1,-1
 784 -264 l 1,2,-1
 784 1266 l 1,3,-1
 589 1266 l 1,4,-1
 589 -264 l 1,5,-1
 434 -264 l 1,6,-1
 434 694 l 1,7,8
 353 694 353 694 286.5 716.5 c 128,-1,9
 220 739 220 739 172 783 c 128,-1,10
 124 827 124 827 97.5 894 c 128,-1,11
 71 961 71 961 71 1049 c 0,12,13
 71 1133 71 1133 96 1199.5 c 128,-1,14
 121 1266 121 1266 168.5 1312.5 c 128,-1,15
 216 1359 216 1359 285 1384 c 128,-1,16
 354 1409 354 1409 442 1409 c 2,17,-1
 1071 1409 l 1,18,-1
 1071 1266 l 1,19,-1
 940 1266 l 1,0,-1
EndSplineSet
EndChar

StartChar: periodcentered
Encoding: 119 183 119
AltUni2: 002219.ffffffff.0
Width: 569
GlyphClass: 2
Flags: W
LayerCount: 2
Fore
SplineSet
141 531 m 1,0,-1
 141 836 l 1,1,-1
 429 836 l 1,2,-1
 429 531 l 1,3,-1
 141 531 l 1,0,-1
EndSplineSet
EndChar

StartChar: cedilla
Encoding: 120 184 120
Width: 682
GlyphClass: 2
Flags: W
LayerCount: 2
Fore
SplineSet
500 -235 m 0,0,1
 500 -274 500 -274 484.5 -309 c 128,-1,2
 469 -344 469 -344 433.5 -369.5 c 128,-1,3
 398 -395 398 -395 340 -410 c 128,-1,4
 282 -425 282 -425 197 -425 c 0,5,6
 152 -425 152 -425 96 -419 c 1,7,-1
 96 -301 l 1,8,9
 121 -306 121 -306 142 -307 c 128,-1,10
 163 -308 163 -308 180 -308 c 0,11,12
 255 -308 255 -308 286 -289.5 c 128,-1,13
 317 -271 317 -271 317 -239 c 0,14,15
 317 -204 317 -204 289 -187 c 128,-1,16
 261 -170 261 -170 195 -170 c 0,17,18
 182 -170 182 -170 169.5 -170 c 128,-1,19
 157 -170 157 -170 143 -172 c 1,20,-1
 205 0 l 1,21,-1
 348 0 l 1,22,-1
 315 -82 l 1,23,24
 409 -87 409 -87 454.5 -128 c 128,-1,25
 500 -169 500 -169 500 -235 c 0,0,1
EndSplineSet
EndChar

StartChar: uni00B9
Encoding: 121 185 121
Width: 682
GlyphClass: 2
Flags: W
LayerCount: 2
Fore
SplineSet
82 694 m 1,0,-1
 82 815 l 1,1,-1
 266 815 l 1,2,-1
 266 1283 l 1,3,-1
 93 1175 l 1,4,-1
 93 1297 l 1,5,-1
 273 1414 l 1,6,-1
 448 1414 l 1,7,-1
 448 815 l 1,8,-1
 618 815 l 1,9,-1
 618 694 l 1,10,-1
 82 694 l 1,0,-1
EndSplineSet
EndChar

StartChar: ordmasculine
Encoding: 122 186 122
Width: 748
GlyphClass: 2
Flags: W
LayerCount: 2
Fore
SplineSet
713 1073 m 0,0,1
 713 996 713 996 691.5 932 c 128,-1,2
 670 868 670 868 627.5 822 c 128,-1,3
 585 776 585 776 522 750.5 c 128,-1,4
 459 725 459 725 375 725 c 0,5,6
 295 725 295 725 233.5 750.5 c 128,-1,7
 172 776 172 776 130 821.5 c 128,-1,8
 88 867 88 867 66.5 931 c 128,-1,9
 45 995 45 995 45 1073 c 0,10,11
 45 1148 45 1148 65.5 1211.5 c 128,-1,12
 86 1275 86 1275 127.5 1321 c 128,-1,13
 169 1367 169 1367 232 1393 c 128,-1,14
 295 1419 295 1419 379 1419 c 0,15,16
 467 1419 467 1419 530.5 1393 c 128,-1,17
 594 1367 594 1367 634.5 1321 c 128,-1,18
 675 1275 675 1275 694 1211.5 c 128,-1,19
 713 1148 713 1148 713 1073 c 0,0,1
513 1073 m 0,20,21
 513 1132 513 1132 504.5 1171 c 128,-1,22
 496 1210 496 1210 479.5 1233.5 c 128,-1,23
 463 1257 463 1257 438.5 1266.5 c 128,-1,24
 414 1276 414 1276 381 1276 c 256,25,26
 348 1276 348 1276 322.5 1266 c 128,-1,27
 297 1256 297 1256 279.5 1232.5 c 128,-1,28
 262 1209 262 1209 252.5 1170 c 128,-1,29
 243 1131 243 1131 243 1073 c 0,30,31
 243 1013 243 1013 252.5 973 c 128,-1,32
 262 933 262 933 279.5 909 c 128,-1,33
 297 885 297 885 321 875 c 128,-1,34
 345 865 345 865 374 865 c 0,35,36
 407 865 407 865 433 875 c 128,-1,37
 459 885 459 885 476.5 909 c 128,-1,38
 494 933 494 933 503.5 973 c 128,-1,39
 513 1013 513 1013 513 1073 c 0,20,21
EndSplineSet
EndChar

StartChar: guillemotright
Encoding: 123 187 123
Width: 1139
GlyphClass: 2
Flags: W
LayerCount: 2
Fore
SplineSet
93 141 m 1,0,-1
 93 176 l 1,1,-1
 349 537 l 1,2,-1
 95 903 l 1,3,-1
 95 940 l 1,4,-1
 333 940 l 1,5,-1
 589 573 l 1,6,-1
 589 502 l 1,7,-1
 333 141 l 1,8,-1
 93 141 l 1,0,-1
552 141 m 1,9,-1
 552 176 l 1,10,-1
 808 537 l 1,11,-1
 554 903 l 1,12,-1
 554 940 l 1,13,-1
 790 940 l 1,14,-1
 1048 573 l 1,15,-1
 1048 502 l 1,16,-1
 790 141 l 1,17,-1
 552 141 l 1,9,-1
EndSplineSet
EndChar

StartChar: questiondown
Encoding: 127 191 127
Width: 1251
GlyphClass: 2
Flags: W
LayerCount: 2
Fore
SplineSet
114 56 m 0,0,1
 114 122 114 122 131.5 172 c 128,-1,2
 149 222 149 222 178 261.5 c 128,-1,3
 207 301 207 301 244 332.5 c 128,-1,4
 281 364 281 364 320 392 c 128,-1,5
 359 420 359 420 396.5 447 c 128,-1,6
 434 474 434 474 464 504.5 c 128,-1,7
 494 535 494 535 513 571.5 c 128,-1,8
 532 608 532 608 534 656 c 1,9,-1
 801 656 l 1,10,11
 796 571 796 571 764.5 511 c 128,-1,12
 733 451 733 451 688 405.5 c 128,-1,13
 643 360 643 360 592 324.5 c 128,-1,14
 541 289 541 289 497.5 252 c 128,-1,15
 454 215 454 215 425.5 172 c 128,-1,16
 397 129 397 129 397 68 c 0,17,18
 397 -20 397 -20 454.5 -71 c 128,-1,19
 512 -122 512 -122 618 -122 c 0,20,21
 669 -122 669 -122 712 -106.5 c 128,-1,22
 755 -91 755 -91 787.5 -63 c 128,-1,23
 820 -35 820 -35 841 5 c 128,-1,24
 862 45 862 45 868 93 c 1,25,-1
 1153 81 l 1,26,27
 1141 -8 1141 -8 1103.5 -86 c 128,-1,28
 1066 -164 1066 -164 1001 -222 c 128,-1,29
 936 -280 936 -280 841.5 -314 c 128,-1,30
 747 -348 747 -348 622 -348 c 0,31,32
 502 -348 502 -348 408 -320 c 128,-1,33
 314 -292 314 -292 248.5 -239.5 c 128,-1,34
 183 -187 183 -187 148.5 -112 c 128,-1,35
 114 -37 114 -37 114 56 c 0,0,1
809 1082 m 1,36,-1
 809 812 l 1,37,-1
 520 812 l 1,38,-1
 520 1082 l 1,39,-1
 809 1082 l 1,36,-1
EndSplineSet
EndChar

StartChar: AE
Encoding: 134 198 134
Width: 2048
GlyphClass: 2
Flags: W
LayerCount: 2
Fore
SplineSet
931 0 m 1,0,-1
 931 360 l 1,1,-1
 481 360 l 1,2,-1
 309 0 l 1,3,-1
 4 0 l 1,4,-1
 704 1409 l 1,5,-1
 1927 1409 l 1,6,-1
 1927 1182 l 1,7,-1
 1226 1182 l 1,8,-1
 1226 827 l 1,9,-1
 1865 827 l 1,10,-1
 1865 606 l 1,11,-1
 1226 606 l 1,12,-1
 1226 227 l 1,13,-1
 1968 227 l 1,14,-1
 1968 0 l 1,15,-1
 931 0 l 1,0,-1
931 1192 m 1,16,-1
 870 1192 l 1,17,18
 866 1183 866 1183 853 1155 c 128,-1,19
 840 1127 840 1127 825 1093.5 c 128,-1,20
 810 1060 810 1060 795.5 1029 c 128,-1,21
 781 998 781 998 774 983 c 2,22,-1
 583 582 l 1,23,-1
 931 582 l 1,24,-1
 931 1192 l 1,16,-1
EndSplineSet
EndChar

StartChar: Eth
Encoding: 144 208 144
Width: 1479
GlyphClass: 2
Flags: W
LayerCount: 2
Fore
SplineSet
1393 715 m 0,0,1
 1393 539 1393 539 1340 405.5 c 128,-1,2
 1287 272 1287 272 1195 182 c 128,-1,3
 1103 92 1103 92 977.5 46 c 128,-1,4
 852 0 852 0 707 0 c 2,5,-1
 137 0 l 1,6,-1
 137 594 l 1,7,-1
 8 594 l 1,8,-1
 8 813 l 1,9,-1
 137 813 l 1,10,-1
 137 1409 l 1,11,-1
 647 1409 l 2,12,13
 811 1409 811 1409 948 1368 c 128,-1,14
 1085 1327 1085 1327 1184 1242 c 128,-1,15
 1283 1157 1283 1157 1338 1026 c 128,-1,16
 1393 895 1393 895 1393 715 c 0,0,1
1096 715 m 0,17,18
 1096 838 1096 838 1062.5 925.5 c 128,-1,19
 1029 1013 1029 1013 969 1069 c 128,-1,20
 909 1125 909 1125 825.5 1151.5 c 128,-1,21
 742 1178 742 1178 641 1178 c 2,22,-1
 432 1178 l 1,23,-1
 432 813 l 1,24,-1
 788 813 l 1,25,-1
 788 594 l 1,26,-1
 432 594 l 1,27,-1
 432 231 l 1,28,-1
 682 231 l 2,29,30
 771 231 771 231 846.5 261.5 c 128,-1,31
 922 292 922 292 977.5 353 c 128,-1,32
 1033 414 1033 414 1064.5 504.5 c 128,-1,33
 1096 595 1096 595 1096 715 c 0,17,18
EndSplineSet
EndChar

StartChar: multiply
Encoding: 151 215 151
Width: 1196
GlyphClass: 2
Flags: W
LayerCount: 2
Fore
SplineSet
86 326 m 1,0,-1
 442 684 l 1,1,-1
 90 1036 l 1,2,-1
 248 1192 l 1,3,-1
 600 842 l 1,4,-1
 952 1194 l 1,5,-1
 1110 1036 l 1,6,-1
 758 682 l 1,7,-1
 1110 332 l 1,8,-1
 952 172 l 1,9,-1
 600 526 l 1,10,-1
 244 168 l 1,11,-1
 86 326 l 1,0,-1
EndSplineSet
EndChar

StartChar: Oslash
Encoding: 152 216 152
Width: 1593
GlyphClass: 2
Flags: W
LayerCount: 2
Fore
SplineSet
147 -73 m 1,0,-1
 301 145 l 1,1,2
 192 244 192 244 138 388.5 c 128,-1,3
 84 533 84 533 84 711 c 0,4,5
 84 876 84 876 130.5 1009 c 128,-1,6
 177 1142 177 1142 267.5 1235.5 c 128,-1,7
 358 1329 358 1329 490.5 1379.5 c 128,-1,8
 623 1430 623 1430 795 1430 c 0,9,10
 898 1430 898 1430 986.5 1410.5 c 128,-1,11
 1075 1391 1075 1391 1149 1356 c 1,12,-1
 1231 1473 l 1,13,-1
 1424 1473 l 1,14,-1
 1282 1270 l 1,15,16
 1394 1176 1394 1176 1451 1033.5 c 128,-1,17
 1508 891 1508 891 1508 711 c 0,18,19
 1508 546 1508 546 1459 411 c 128,-1,20
 1410 276 1410 276 1318 180 c 128,-1,21
 1226 84 1226 84 1093 32 c 128,-1,22
 960 -20 960 -20 793 -20 c 0,23,24
 581 -20 581 -20 433 57 c 1,25,-1
 342 -72 l 1,26,-1
 147 -73 l 1,0,-1
1207 711 m 0,27,28
 1207 811 1207 811 1185.5 893.5 c 128,-1,29
 1164 976 1164 976 1121 1038 c 1,30,-1
 580 266 l 1,31,32
 623 240 623 240 676.5 225.5 c 128,-1,33
 730 211 730 211 793 211 c 0,34,35
 901 211 901 211 979.5 248.5 c 128,-1,36
 1058 286 1058 286 1108.5 352.5 c 128,-1,37
 1159 419 1159 419 1183 511 c 128,-1,38
 1207 603 1207 603 1207 711 c 0,27,28
381 711 m 0,39,40
 381 612 381 612 401.5 528 c 128,-1,41
 422 444 422 444 465 379 c 1,42,-1
 1004 1147 l 1,43,44
 959 1172 959 1172 908 1185 c 128,-1,45
 857 1198 857 1198 795 1198 c 0,46,47
 692 1198 692 1198 614.5 1163.5 c 128,-1,48
 537 1129 537 1129 485 1065 c 128,-1,49
 433 1001 433 1001 407 911.5 c 128,-1,50
 381 822 381 822 381 711 c 0,39,40
EndSplineSet
EndChar

StartChar: Thorn
Encoding: 158 222 158
Width: 1366
GlyphClass: 2
Flags: W
LayerCount: 2
Fore
SplineSet
1296 737 m 0,0,1
 1296 646 1296 646 1265.5 563.5 c 128,-1,2
 1235 481 1235 481 1172 419 c 128,-1,3
 1109 357 1109 357 1012 320 c 128,-1,4
 915 283 915 283 782 283 c 2,5,-1
 432 283 l 1,6,-1
 432 0 l 1,7,-1
 137 0 l 1,8,-1
 137 1409 l 1,9,-1
 432 1409 l 1,10,-1
 432 1176 l 1,11,-1
 770 1176 l 2,12,13
 905 1176 905 1176 1004 1144.5 c 128,-1,14
 1103 1113 1103 1113 1168 1055.5 c 128,-1,15
 1233 998 1233 998 1264.5 917 c 128,-1,16
 1296 836 1296 836 1296 737 c 0,0,1
999 733 m 0,17,18
 999 843 999 843 933.5 905 c 128,-1,19
 868 967 868 967 737 967 c 2,20,-1
 432 967 l 1,21,-1
 432 492 l 1,22,-1
 745 492 l 2,23,24
 811 492 811 492 858.5 510 c 128,-1,25
 906 528 906 528 937.5 560.5 c 128,-1,26
 969 593 969 593 984 637 c 128,-1,27
 999 681 999 681 999 733 c 0,17,18
EndSplineSet
EndChar

StartChar: germandbls
Encoding: 159 223 159
Width: 1251
GlyphClass: 2
Flags: W
LayerCount: 2
Fore
SplineSet
1193 312 m 0,0,1
 1193 239 1193 239 1171 178 c 128,-1,2
 1149 117 1149 117 1101.5 73 c 128,-1,3
 1054 29 1054 29 981 4.5 c 128,-1,4
 908 -20 908 -20 806 -20 c 0,5,6
 735 -20 735 -20 670.5 -10 c 128,-1,7
 606 0 606 0 544 23 c 1,8,-1
 544 229 l 1,9,10
 568 218 568 218 598 207.5 c 128,-1,11
 628 197 628 197 659 188.5 c 128,-1,12
 690 180 690 180 720.5 175 c 128,-1,13
 751 170 751 170 776 170 c 0,14,15
 857 170 857 170 894 204.5 c 128,-1,16
 931 239 931 239 931 296 c 0,17,18
 931 342 931 342 906 376 c 128,-1,19
 881 410 881 410 843.5 439.5 c 128,-1,20
 806 469 806 469 762 497.5 c 128,-1,21
 718 526 718 526 680.5 562.5 c 128,-1,22
 643 599 643 599 618 646.5 c 128,-1,23
 593 694 593 694 593 760 c 0,24,25
 593 806 593 806 609.5 840.5 c 128,-1,26
 626 875 626 875 651 904 c 128,-1,27
 676 933 676 933 704.5 958 c 128,-1,28
 733 983 733 983 758 1009.5 c 128,-1,29
 783 1036 783 1036 799.5 1067 c 128,-1,30
 816 1098 816 1098 816 1138 c 0,31,32
 816 1203 816 1203 769.5 1242 c 128,-1,33
 723 1281 723 1281 635 1281 c 0,34,35
 532 1281 532 1281 478 1217.5 c 128,-1,36
 424 1154 424 1154 424 1013 c 2,37,-1
 424 0 l 1,38,-1
 143 0 l 1,39,-1
 143 1007 l 2,40,41
 143 1118 143 1118 173 1206.5 c 128,-1,42
 203 1295 203 1295 264.5 1356.5 c 128,-1,43
 326 1418 326 1418 419 1451 c 128,-1,44
 512 1484 512 1484 638 1484 c 0,45,46
 752 1484 752 1484 836 1457 c 128,-1,47
 920 1430 920 1430 974.5 1384.5 c 128,-1,48
 1029 1339 1029 1339 1055.5 1278 c 128,-1,49
 1082 1217 1082 1217 1082 1149 c 0,50,51
 1082 1095 1082 1095 1065.5 1052.5 c 128,-1,52
 1049 1010 1049 1010 1024 976 c 128,-1,53
 999 942 999 942 969.5 915 c 128,-1,54
 940 888 940 888 915 865.5 c 128,-1,55
 890 843 890 843 873.5 822.5 c 128,-1,56
 857 802 857 802 857 782 c 0,57,58
 857 754 857 754 882 729.5 c 128,-1,59
 907 705 907 705 944 677.5 c 128,-1,60
 981 650 981 650 1025 617.5 c 128,-1,61
 1069 585 1069 585 1106 542.5 c 128,-1,62
 1143 500 1143 500 1168 443.5 c 128,-1,63
 1193 387 1193 387 1193 312 c 0,0,1
EndSplineSet
EndChar

StartChar: ae
Encoding: 166 230 166
Width: 1821
GlyphClass: 2
Flags: W
LayerCount: 2
Fore
SplineSet
1253 -20 m 0,0,1
 1102 -20 1102 -20 992 36.5 c 128,-1,2
 882 93 882 93 819 209 c 1,3,4
 790 159 790 159 751.5 117 c 128,-1,5
 713 75 713 75 662.5 44.5 c 128,-1,6
 612 14 612 14 548.5 -3 c 128,-1,7
 485 -20 485 -20 406 -20 c 256,8,9
 327 -20 327 -20 264 1.5 c 128,-1,10
 201 23 201 23 157 64.5 c 128,-1,11
 113 106 113 106 89.5 167 c 128,-1,12
 66 228 66 228 66 306 c 0,13,14
 66 402 66 402 100.5 467 c 128,-1,15
 135 532 135 532 195 572.5 c 128,-1,16
 255 613 255 613 335 631.5 c 128,-1,17
 415 650 415 650 506 652 c 2,18,-1
 746 656 l 1,19,-1
 746 711 l 2,20,21
 746 770 746 770 735 809.5 c 128,-1,22
 724 849 724 849 702.5 874 c 128,-1,23
 681 899 681 899 649.5 909.5 c 128,-1,24
 618 920 618 920 578 920 c 0,25,26
 541 920 541 920 511.5 913 c 128,-1,27
 482 906 482 906 461 888.5 c 128,-1,28
 440 871 440 871 426.5 841.5 c 128,-1,29
 413 812 413 812 408 767 c 1,30,-1
 115 781 l 1,31,32
 127 852 127 852 159.5 910.5 c 128,-1,33
 192 969 192 969 249 1012 c 128,-1,34
 306 1055 306 1055 389 1078.5 c 128,-1,35
 472 1102 472 1102 586 1102 c 0,36,37
 803 1102 803 1102 919 995 c 1,38,39
 988 1052 988 1052 1074.5 1077 c 128,-1,40
 1161 1102 1161 1102 1257 1102 c 0,41,42
 1385 1102 1385 1102 1475.5 1057.5 c 128,-1,43
 1566 1013 1566 1013 1624 933 c 128,-1,44
 1682 853 1682 853 1709 741.5 c 128,-1,45
 1736 630 1736 630 1736 495 c 2,46,-1
 1736 476 l 1,47,-1
 1042 476 l 1,48,49
 1042 411 1042 411 1055 354.5 c 128,-1,50
 1068 298 1068 298 1095.5 256.5 c 128,-1,51
 1123 215 1123 215 1165.5 191.5 c 128,-1,52
 1208 168 1208 168 1267 168 c 0,53,54
 1341 168 1341 168 1388 199.5 c 128,-1,55
 1435 231 1435 231 1455 297 c 1,56,-1
 1720 274 l 1,57,58
 1702 228 1702 228 1669.5 176 c 128,-1,59
 1637 124 1637 124 1583 80.5 c 128,-1,60
 1529 37 1529 37 1448.5 8.5 c 128,-1,61
 1368 -20 1368 -20 1253 -20 c 0,0,1
496 176 m 0,62,63
 553 176 553 176 599 200.5 c 128,-1,64
 645 225 645 225 678 264.5 c 128,-1,65
 711 304 711 304 728.5 354.5 c 128,-1,66
 746 405 746 405 746 456 c 2,67,-1
 746 501 l 1,68,-1
 594 499 l 2,69,70
 546 497 546 497 503.5 491.5 c 128,-1,71
 461 486 461 486 429 468.5 c 128,-1,72
 397 451 397 451 378 418 c 128,-1,73
 359 385 359 385 359 328 c 0,74,75
 359 251 359 251 396.5 213.5 c 128,-1,76
 434 176 434 176 496 176 c 0,62,63
1253 925 m 0,77,78
 1210 925 1210 925 1172.5 910.5 c 128,-1,79
 1135 896 1135 896 1107.5 864.5 c 128,-1,80
 1080 833 1080 833 1063 783 c 128,-1,81
 1046 733 1046 733 1044 663 c 1,82,-1
 1464 663 l 1,83,84
 1456 794 1456 794 1401 859.5 c 128,-1,85
 1346 925 1346 925 1253 925 c 0,77,78
EndSplineSet
EndChar

StartChar: eth
Encoding: 176 240 176
Width: 1251
GlyphClass: 2
Flags: W
LayerCount: 2
Fore
SplineSet
856 1266 m 1,0,1
 925 1196 925 1196 983 1115.5 c 128,-1,2
 1041 1035 1041 1035 1083 944.5 c 128,-1,3
 1125 854 1125 854 1148 753 c 128,-1,4
 1171 652 1171 652 1171 541 c 2,5,-1
 1171 537 l 2,6,7
 1171 415 1171 415 1137 313 c 128,-1,8
 1103 211 1103 211 1034.5 137.5 c 128,-1,9
 966 64 966 64 863 23 c 128,-1,10
 760 -18 760 -18 623 -18 c 0,11,12
 491 -18 491 -18 390 18.5 c 128,-1,13
 289 55 289 55 220 120.5 c 128,-1,14
 151 186 151 186 115.5 277.5 c 128,-1,15
 80 369 80 369 80 479 c 0,16,17
 80 586 80 586 113.5 676.5 c 128,-1,18
 147 767 147 767 215 833 c 128,-1,19
 283 899 283 899 386 936 c 128,-1,20
 489 973 489 973 627 973 c 0,21,22
 673 973 673 973 718 964.5 c 128,-1,23
 763 956 763 956 790 941 c 1,24,25
 756 1013 756 1013 721 1068 c 128,-1,26
 686 1123 686 1123 640 1176 c 1,27,-1
 348 1054 l 1,28,-1
 348 1238 l 1,29,-1
 514 1308 l 1,30,31
 457 1354 457 1354 390.5 1398 c 128,-1,32
 324 1442 324 1442 256 1484 c 1,33,-1
 549 1484 l 1,34,35
 589 1464 589 1464 629.5 1441 c 128,-1,36
 670 1418 670 1418 709 1390 c 1,37,-1
 977 1503 l 1,38,-1
 977 1315 l 1,39,-1
 856 1266 l 1,0,1
877 477 m 0,40,41
 877 637 877 637 814 708.5 c 128,-1,42
 751 780 751 780 631 780 c 0,43,44
 507 780 507 780 441 707 c 128,-1,45
 375 634 375 634 375 477 c 0,46,47
 375 397 375 397 392.5 339.5 c 128,-1,48
 410 282 410 282 442 244.5 c 128,-1,49
 474 207 474 207 519 189.5 c 128,-1,50
 564 172 564 172 618 172 c 0,51,52
 743 172 743 172 810 244 c 128,-1,53
 877 316 877 316 877 477 c 0,40,41
EndSplineSet
EndChar

StartChar: divide
Encoding: 183 247 183
Width: 1124
GlyphClass: 2
Flags: W
LayerCount: 2
Fore
SplineSet
442 961 m 1,0,-1
 442 1194 l 1,1,-1
 680 1194 l 1,2,-1
 680 961 l 1,3,-1
 442 961 l 1,0,-1
49 569 m 1,4,-1
 49 793 l 1,5,-1
 1076 793 l 1,6,-1
 1076 569 l 1,7,-1
 49 569 l 1,4,-1
442 170 m 1,8,-1
 442 403 l 1,9,-1
 680 403 l 1,10,-1
 680 170 l 1,11,-1
 442 170 l 1,8,-1
EndSplineSet
EndChar

StartChar: oslash
Encoding: 184 248 184
Width: 1251
GlyphClass: 2
Flags: W
LayerCount: 2
Fore
SplineSet
1171 542 m 0,0,1
 1171 418 1171 418 1136.5 315 c 128,-1,2
 1102 212 1102 212 1033 137.5 c 128,-1,3
 964 63 964 63 861 21.5 c 128,-1,4
 758 -20 758 -20 621 -20 c 0,5,6
 522 -20 522 -20 441.5 3 c 128,-1,7
 361 26 361 26 297 69 c 1,8,-1
 184 -55 l 1,9,-1
 1 -55 l 1,10,-1
 198 160 l 1,11,12
 139 233 139 233 109.5 329.5 c 128,-1,13
 80 426 80 426 80 542 c 0,14,15
 80 663 80 663 113.5 765.5 c 128,-1,16
 147 868 147 868 215 943 c 128,-1,17
 283 1018 283 1018 386 1060 c 128,-1,18
 489 1102 489 1102 627 1102 c 0,19,20
 731 1102 731 1102 812.5 1080.5 c 128,-1,21
 894 1059 894 1059 957 1019 c 1,22,-1
 1058 1133 l 1,23,-1
 1242 1133 l 1,24,-1
 1058 927 l 1,25,26
 1117 853 1117 853 1144 755 c 128,-1,27
 1171 657 1171 657 1171 542 c 0,0,1
375 542 m 0,28,29
 375 450 375 450 392 379 c 1,30,-1
 799 840 l 1,31,32
 739 909 739 909 631 909 c 0,33,34
 507 909 507 909 441 821 c 128,-1,35
 375 733 375 733 375 542 c 0,28,29
877 542 m 0,36,37
 877 589 877 589 873 629.5 c 128,-1,38
 869 670 869 670 861 704 c 1,39,-1
 454 244 l 1,40,41
 486 207 486 207 527 189.5 c 128,-1,42
 568 172 568 172 618 172 c 0,43,44
 680 172 680 172 728.5 193.5 c 128,-1,45
 777 215 777 215 810 260 c 128,-1,46
 843 305 843 305 860 375 c 128,-1,47
 877 445 877 445 877 542 c 0,36,37
EndSplineSet
EndChar

StartChar: thorn
Encoding: 190 254 190
Width: 1251
GlyphClass: 2
Flags: W
LayerCount: 2
Fore
SplineSet
143 1484 m 1,0,-1
 424 1484 l 1,1,-1
 424 1022 l 2,2,3
 424 992 424 992 423.5 962 c 128,-1,4
 423 932 423 932 422 908 c 0,5,6
 421 880 421 880 420 854 c 1,7,-1
 424 854 l 1,8,9
 475 961 475 961 564 1007 c 128,-1,10
 653 1053 653 1053 770 1053 c 0,11,12
 873 1053 873 1053 948 1013 c 128,-1,13
 1023 973 1023 973 1071.5 902 c 128,-1,14
 1120 831 1120 831 1143.5 733.5 c 128,-1,15
 1167 636 1167 636 1167 520 c 0,16,17
 1167 403 1167 403 1142.5 304 c 128,-1,18
 1118 205 1118 205 1067 133 c 128,-1,19
 1016 61 1016 61 937.5 20.5 c 128,-1,20
 859 -20 859 -20 752 -20 c 0,21,22
 704 -20 704 -20 656.5 -10 c 128,-1,23
 609 0 609 0 566 22.5 c 128,-1,24
 523 45 523 45 486.5 81.5 c 128,-1,25
 450 118 450 118 424 172 c 1,26,-1
 418 172 l 1,27,28
 419 167 419 167 420 147 c 128,-1,29
 421 127 421 127 422 100.5 c 128,-1,30
 423 74 423 74 423.5 44.5 c 128,-1,31
 424 15 424 15 424 -10 c 2,32,-1
 424 -425 l 1,33,-1
 143 -425 l 1,34,-1
 143 1484 l 1,0,-1
874 520 m 0,35,36
 874 692 874 692 818.5 775 c 128,-1,37
 763 858 763 858 651 858 c 0,38,39
 609 858 609 858 567.5 842 c 128,-1,40
 526 826 526 826 493.5 786.5 c 128,-1,41
 461 747 461 747 440.5 680 c 128,-1,42
 420 613 420 613 420 512 c 0,43,44
 420 413 420 413 440 347.5 c 128,-1,45
 460 282 460 282 492.5 243 c 128,-1,46
 525 204 525 204 566 188 c 128,-1,47
 607 172 607 172 649 172 c 0,48,49
 757 172 757 172 815.5 254.5 c 128,-1,50
 874 337 874 337 874 520 c 0,35,36
EndSplineSet
EndChar

StartChar: dcroat
Encoding: 209 273 209
Width: 1251
GlyphClass: 2
Flags: W
LayerCount: 2
Fore
SplineSet
827 1345 m 1,0,-1
 827 1484 l 1,1,-1
 1109 1484 l 1,2,-1
 1109 1345 l 1,3,-1
 1241 1345 l 1,4,-1
 1241 1175 l 1,5,-1
 1109 1175 l 1,6,-1
 1109 236 l 2,7,8
 1109 157 1109 157 1112 95.5 c 128,-1,9
 1115 34 1115 34 1117 0 c 1,10,-1
 845 0 l 1,11,12
 843 8 843 8 840.5 28.5 c 128,-1,13
 838 49 838 49 835.5 75 c 128,-1,14
 833 101 833 101 831.5 128 c 128,-1,15
 830 155 830 155 830 176 c 1,16,-1
 826 176 l 1,17,18
 777 71 777 71 689 25.5 c 128,-1,19
 601 -20 601 -20 479 -20 c 0,20,21
 377 -20 377 -20 302.5 20.5 c 128,-1,22
 228 61 228 61 179.5 133 c 128,-1,23
 131 205 131 205 107.5 304 c 128,-1,24
 84 403 84 403 84 521 c 0,25,26
 84 640 84 640 108.5 739.5 c 128,-1,27
 133 839 133 839 184 910.5 c 128,-1,28
 235 982 235 982 313.5 1022 c 128,-1,29
 392 1062 392 1062 500 1062 c 0,30,31
 553 1062 553 1062 602 1051 c 128,-1,32
 651 1040 651 1040 693 1017 c 128,-1,33
 735 994 735 994 769 958 c 128,-1,34
 803 922 803 922 827 871 c 1,35,-1
 829 871 l 1,36,37
 829 881 829 881 828.5 900.5 c 128,-1,38
 828 920 828 920 828 945 c 128,-1,39
 828 970 828 970 827.5 997 c 128,-1,40
 827 1024 827 1024 827 1049 c 2,41,-1
 827 1175 l 1,42,-1
 541 1175 l 1,43,-1
 541 1345 l 1,44,-1
 827 1345 l 1,0,-1
831 529 m 0,45,46
 831 633 831 633 811 699.5 c 128,-1,47
 791 766 791 766 758.5 805 c 128,-1,48
 726 844 726 844 684.5 859 c 128,-1,49
 643 874 643 874 600 874 c 0,50,51
 546 874 546 874 504.5 854.5 c 128,-1,52
 463 835 463 835 434.5 793 c 128,-1,53
 406 751 406 751 391.5 684 c 128,-1,54
 377 617 377 617 377 522 c 0,55,56
 377 172 377 172 598 172 c 0,57,58
 640 172 640 172 682 188.5 c 128,-1,59
 724 205 724 205 757 246 c 128,-1,60
 790 287 790 287 810.5 355.5 c 128,-1,61
 831 424 831 424 831 529 c 0,45,46
EndSplineSet
EndChar

StartChar: Hbar
Encoding: 230 294 230
Width: 1479
GlyphClass: 2
Flags: W
LayerCount: 2
Fore
SplineSet
1057 0 m 1,0,-1
 1057 604 l 1,1,-1
 432 604 l 1,2,-1
 432 0 l 1,3,-1
 137 0 l 1,4,-1
 137 1045 l 1,5,-1
 14 1045 l 1,6,-1
 14 1215 l 1,7,-1
 137 1215 l 1,8,-1
 137 1409 l 1,9,-1
 432 1409 l 1,10,-1
 432 1215 l 1,11,-1
 1057 1215 l 1,12,-1
 1057 1409 l 1,13,-1
 1341 1409 l 1,14,-1
 1341 1215 l 1,15,-1
 1465 1215 l 1,16,-1
 1465 1045 l 1,17,-1
 1341 1045 l 1,18,-1
 1341 0 l 1,19,-1
 1057 0 l 1,0,-1
1057 848 m 1,20,-1
 1057 1045 l 1,21,-1
 432 1045 l 1,22,-1
 432 848 l 1,23,-1
 1057 848 l 1,20,-1
EndSplineSet
EndChar

StartChar: hbar
Encoding: 231 295 231
Width: 1251
GlyphClass: 2
Flags: W
LayerCount: 2
Fore
SplineSet
420 826 m 1,0,1
 477 950 477 950 563 1006 c 128,-1,2
 649 1062 649 1062 768 1062 c 0,3,4
 866 1062 866 1062 933.5 1030 c 128,-1,5
 1001 998 1001 998 1043.5 942 c 128,-1,6
 1086 886 1086 886 1105 810 c 128,-1,7
 1124 734 1124 734 1124 646 c 2,8,-1
 1124 0 l 1,9,-1
 844 0 l 1,10,-1
 844 566 l 2,11,12
 844 629 844 629 834 681.5 c 128,-1,13
 824 734 824 734 801 771.5 c 128,-1,14
 778 809 778 809 741 830 c 128,-1,15
 704 851 704 851 651 851 c 0,16,17
 600 851 600 851 558.5 828.5 c 128,-1,18
 517 806 517 806 487 764.5 c 128,-1,19
 457 723 457 723 440.5 665.5 c 128,-1,20
 424 608 424 608 424 539 c 2,21,-1
 424 0 l 1,22,-1
 143 0 l 1,23,-1
 143 1175 l 1,24,-1
 10 1175 l 1,25,-1
 10 1345 l 1,26,-1
 143 1345 l 1,27,-1
 143 1484 l 1,28,-1
 424 1484 l 1,29,-1
 424 1345 l 1,30,-1
 730 1345 l 1,31,-1
 730 1175 l 1,32,-1
 424 1175 l 1,33,-1
 424 1039 l 2,34,35
 424 1007 424 1007 423 974.5 c 128,-1,36
 422 942 422 942 420.5 913.5 c 128,-1,37
 419 885 419 885 418 862 c 128,-1,38
 417 839 417 839 416 826 c 1,39,-1
 420 826 l 1,0,1
EndSplineSet
EndChar

StartChar: dotlessi
Encoding: 241 305 241
Width: 569
GlyphClass: 2
Flags: W
LayerCount: 2
Fore
SplineSet
145 0 m 1,0,-1
 145 1082 l 1,1,-1
 426 1082 l 1,2,-1
 426 0 l 1,3,-1
 145 0 l 1,0,-1
EndSplineSet
EndChar

StartChar: jcircumflex
Encoding: 245 309 245
Width: 569
GlyphClass: 2
Flags: W
LayerCount: 2
Fore
SplineSet
647 1211 m 1,0,-1
 647 1183 l 1,1,-1
 488 1183 l 1,2,-1
 285 1375 l 1,3,-1
 281 1375 l 1,4,-1
 70 1183 l 1,5,-1
 -90 1183 l 1,6,-1
 -90 1211 l 1,7,-1
 168 1529 l 1,8,-1
 397 1529 l 1,9,-1
 647 1211 l 1,0,-1
138 -425 m 0,10,11
 82 -425 82 -425 40.5 -422.5 c 128,-1,12
 -1 -420 -1 -420 -32 -416 c 1,13,-1
 -32 -218 l 1,14,15
 -19 -220 -19 -220 -6 -221 c 128,-1,16
 7 -222 7 -222 19 -222 c 0,17,18
 58 -222 58 -222 82 -214 c 128,-1,19
 106 -206 106 -206 120 -187 c 128,-1,20
 134 -168 134 -168 139 -137 c 128,-1,21
 144 -106 144 -106 144 -60 c 2,22,-1
 144 1082 l 1,23,-1
 425 1082 l 1,24,-1
 425 -128 l 2,25,26
 425 -193 425 -193 409 -247 c 128,-1,27
 393 -301 393 -301 358.5 -341 c 128,-1,28
 324 -381 324 -381 269.5 -403 c 128,-1,29
 215 -425 215 -425 138 -425 c 0,10,11
EndSplineSet
EndChar

StartChar: kgreenlandic
Encoding: 248 312 248
Width: 1139
GlyphClass: 2
Flags: W
LayerCount: 2
Fore
SplineSet
834 0 m 1,0,-1
 545 490 l 1,1,-1
 424 406 l 1,2,-1
 424 0 l 1,3,-1
 143 0 l 1,4,-1
 143 1082 l 1,5,-1
 424 1082 l 1,6,-1
 424 634 l 1,7,-1
 810 1082 l 1,8,-1
 1112 1082 l 1,9,-1
 732 660 l 1,10,-1
 1141 0 l 1,11,-1
 834 0 l 1,0,-1
EndSplineSet
EndChar

StartChar: Lslash
Encoding: 257 321 257
Width: 1251
GlyphClass: 2
Flags: W
LayerCount: 2
Fore
SplineSet
137 0 m 1,0,-1
 137 483 l 1,1,-1
 0 418 l 1,2,-1
 0 643 l 1,3,-1
 137 709 l 1,4,-1
 137 1409 l 1,5,-1
 432 1409 l 1,6,-1
 432 850 l 1,7,-1
 739 997 l 1,8,-1
 739 774 l 1,9,-1
 432 627 l 1,10,-1
 432 231 l 1,11,-1
 1188 231 l 1,12,-1
 1188 0 l 1,13,-1
 137 0 l 1,0,-1
EndSplineSet
EndChar

StartChar: lslash
Encoding: 258 322 258
Width: 569
GlyphClass: 2
Flags: W
LayerCount: 2
Fore
SplineSet
424 717 m 1,0,-1
 424 0 l 1,1,-1
 143 0 l 1,2,-1
 143 561 l 1,3,-1
 18 492 l 1,4,-1
 18 707 l 1,5,-1
 143 776 l 1,6,-1
 143 1484 l 1,7,-1
 424 1484 l 1,8,-1
 424 932 l 1,9,-1
 553 1006 l 1,10,-1
 553 793 l 1,11,-1
 424 717 l 1,0,-1
EndSplineSet
EndChar

StartChar: Eng
Encoding: 266 330 266
Width: 1481
GlyphClass: 2
Flags: W
LayerCount: 2
Fore
SplineSet
904 -20 m 0,0,1
 830 -20 830 -20 772.5 -8.5 c 128,-1,2
 715 3 715 3 669 25.5 c 128,-1,3
 623 48 623 48 587 81.5 c 128,-1,4
 551 115 551 115 519 158 c 1,5,-1
 721 329 l 1,6,7
 738 307 738 307 756.5 286 c 128,-1,8
 775 265 775 265 797 248.5 c 128,-1,9
 819 232 819 232 845 222 c 128,-1,10
 871 212 871 212 902 212 c 0,11,12
 956 212 956 212 989.5 234.5 c 128,-1,13
 1023 257 1023 257 1041 300 c 128,-1,14
 1059 343 1059 343 1065 407 c 128,-1,15
 1071 471 1071 471 1071 553 c 2,16,-1
 1071 848 l 2,17,18
 1071 942 1071 942 1055 1009 c 128,-1,19
 1039 1076 1039 1076 1005.5 1118.5 c 128,-1,20
 972 1161 972 1161 920.5 1180.5 c 128,-1,21
 869 1200 869 1200 798 1200 c 0,22,23
 722 1200 722 1200 655 1170.5 c 128,-1,24
 588 1141 588 1141 538.5 1091.5 c 128,-1,25
 489 1042 489 1042 460.5 976.5 c 128,-1,26
 432 911 432 911 432 839 c 2,27,-1
 432 0 l 1,28,-1
 137 0 l 1,29,-1
 137 1092 l 2,30,31
 137 1129 137 1129 136.5 1175 c 128,-1,32
 136 1221 136 1221 135.5 1266 c 128,-1,33
 135 1311 135 1311 134.5 1349 c 128,-1,34
 134 1387 134 1387 133 1409 c 1,35,-1
 421 1409 l 1,36,37
 423 1387 423 1387 425 1355.5 c 128,-1,38
 427 1324 427 1324 428.5 1289.5 c 128,-1,39
 430 1255 430 1255 431 1220.5 c 128,-1,40
 432 1186 432 1186 432 1158 c 1,41,-1
 436 1158 l 1,42,43
 468 1220 468 1220 516.5 1270 c 128,-1,44
 565 1320 565 1320 626.5 1355 c 128,-1,45
 688 1390 688 1390 760.5 1409.5 c 128,-1,46
 833 1429 833 1429 914 1429 c 0,47,48
 1031 1429 1031 1429 1115 1397 c 128,-1,49
 1199 1365 1199 1365 1252 1298.5 c 128,-1,50
 1305 1232 1305 1232 1330 1130 c 128,-1,51
 1355 1028 1355 1028 1355 889 c 2,52,-1
 1355 542 l 2,53,54
 1355 412 1355 412 1334 308 c 128,-1,55
 1313 204 1313 204 1261.5 131 c 128,-1,56
 1210 58 1210 58 1123 19 c 128,-1,57
 1036 -20 1036 -20 904 -20 c 0,0,1
EndSplineSet
EndChar

StartChar: eng
Encoding: 267 331 267
Width: 1251
GlyphClass: 2
Flags: W
LayerCount: 2
Fore
SplineSet
837 -425 m 0,0,1
 781 -425 781 -425 739.5 -422.5 c 128,-1,2
 698 -420 698 -420 667 -416 c 1,3,-1
 667 -218 l 1,4,5
 680 -220 680 -220 693 -221 c 128,-1,6
 706 -222 706 -222 718 -222 c 0,7,8
 757 -222 757 -222 781.5 -214 c 128,-1,9
 806 -206 806 -206 820 -187 c 128,-1,10
 834 -168 834 -168 839 -137 c 128,-1,11
 844 -106 844 -106 844 -60 c 2,12,-1
 844 607 l 2,13,14
 844 670 844 670 834 722.5 c 128,-1,15
 824 775 824 775 801 812.5 c 128,-1,16
 778 850 778 850 741 871 c 128,-1,17
 704 892 704 892 651 892 c 0,18,19
 600 892 600 892 558.5 869.5 c 128,-1,20
 517 847 517 847 487 805.5 c 128,-1,21
 457 764 457 764 440.5 706.5 c 128,-1,22
 424 649 424 649 424 580 c 2,23,-1
 424 0 l 1,24,-1
 143 0 l 1,25,-1
 143 840 l 2,26,27
 143 875 143 875 142.5 912 c 128,-1,28
 142 949 142 949 140.5 982.5 c 128,-1,29
 139 1016 139 1016 138 1042.5 c 128,-1,30
 137 1069 137 1069 135 1082 c 1,31,-1
 403 1082 l 1,32,33
 405 1070 405 1070 407 1043.5 c 128,-1,34
 409 1017 409 1017 411 985 c 128,-1,35
 413 953 413 953 414.5 921 c 128,-1,36
 416 889 416 889 416 867 c 1,37,-1
 420 867 l 1,38,39
 477 991 477 991 563 1047 c 128,-1,40
 649 1103 649 1103 768 1103 c 0,41,42
 866 1103 866 1103 933.5 1071 c 128,-1,43
 1001 1039 1001 1039 1043.5 983 c 128,-1,44
 1086 927 1086 927 1105 851 c 128,-1,45
 1124 775 1124 775 1124 687 c 2,46,-1
 1124 -128 l 2,47,48
 1124 -193 1124 -193 1108 -247 c 128,-1,49
 1092 -301 1092 -301 1057.5 -341 c 128,-1,50
 1023 -381 1023 -381 968.5 -403 c 128,-1,51
 914 -425 914 -425 837 -425 c 0,0,1
EndSplineSet
EndChar

StartChar: OE
Encoding: 274 338 274
Width: 2048
GlyphClass: 2
Flags: W
LayerCount: 2
Fore
SplineSet
992 0 m 2,0,1
 954 -2 954 -2 900.5 -6 c 128,-1,2
 847 -10 847 -10 793 -10 c 0,3,4
 616 -10 616 -10 483.5 43 c 128,-1,5
 351 96 351 96 262 191.5 c 128,-1,6
 173 287 173 287 128.5 419.5 c 128,-1,7
 84 552 84 552 84 711 c 0,8,9
 84 876 84 876 130.5 1007.5 c 128,-1,10
 177 1139 177 1139 267.5 1230.5 c 128,-1,11
 358 1322 358 1322 490.5 1371 c 128,-1,12
 623 1420 623 1420 795 1420 c 0,13,14
 851 1420 851 1420 900.5 1416.5 c 128,-1,15
 950 1413 950 1413 998 1409 c 2,16,-1
 1927 1409 l 1,17,-1
 1927 1182 l 1,18,-1
 1260 1182 l 1,19,-1
 1260 827 l 1,20,-1
 1866 827 l 1,21,-1
 1866 606 l 1,22,-1
 1260 606 l 1,23,-1
 1260 227 l 1,24,-1
 1968 227 l 1,25,-1
 1968 0 l 1,26,-1
 992 0 l 2,0,1
963 1169 m 1,27,28
 933 1177 933 1177 886 1182.5 c 128,-1,29
 839 1188 839 1188 795 1188 c 0,30,31
 692 1188 692 1188 614.5 1155 c 128,-1,32
 537 1122 537 1122 485 1060 c 128,-1,33
 433 998 433 998 407 910 c 128,-1,34
 381 822 381 822 381 711 c 0,35,36
 381 601 381 601 407.5 511 c 128,-1,37
 434 421 434 421 486.5 356.5 c 128,-1,38
 539 292 539 292 616 257 c 128,-1,39
 693 222 693 222 793 222 c 0,40,41
 839 222 839 222 882 225 c 128,-1,42
 925 228 925 228 963 242 c 1,43,-1
 963 1169 l 1,27,28
EndSplineSet
EndChar

StartChar: oe
Encoding: 275 339 275
Width: 1933
GlyphClass: 2
Flags: W
LayerCount: 2
Fore
SplineSet
1384 -20 m 0,0,1
 1266 -20 1266 -20 1173.5 19.5 c 128,-1,2
 1081 59 1081 59 1015 139 c 1,3,4
 946 63 946 63 848 21.5 c 128,-1,5
 750 -20 750 -20 621 -20 c 0,6,7
 489 -20 489 -20 388 21 c 128,-1,8
 287 62 287 62 218.5 136 c 128,-1,9
 150 210 150 210 115 313.5 c 128,-1,10
 80 417 80 417 80 542 c 0,11,12
 80 663 80 663 113.5 765.5 c 128,-1,13
 147 868 147 868 215 943 c 128,-1,14
 283 1018 283 1018 386 1060 c 128,-1,15
 489 1102 489 1102 627 1102 c 0,16,17
 761 1102 761 1102 858 1062 c 128,-1,18
 955 1022 955 1022 1021 949 c 1,19,20
 1092 1030 1092 1030 1187 1066 c 128,-1,21
 1282 1102 1282 1102 1388 1102 c 0,22,23
 1516 1102 1516 1102 1606.5 1057.5 c 128,-1,24
 1697 1013 1697 1013 1755 933 c 128,-1,25
 1813 853 1813 853 1840 741.5 c 128,-1,26
 1867 630 1867 630 1867 495 c 2,27,-1
 1867 476 l 1,28,-1
 1173 476 l 1,29,30
 1173 411 1173 411 1186 354.5 c 128,-1,31
 1199 298 1199 298 1226.5 256.5 c 128,-1,32
 1254 215 1254 215 1296.5 191.5 c 128,-1,33
 1339 168 1339 168 1398 168 c 0,34,35
 1472 168 1472 168 1519 199.5 c 128,-1,36
 1566 231 1566 231 1586 297 c 1,37,-1
 1851 274 l 1,38,39
 1833 228 1833 228 1800.5 176 c 128,-1,40
 1768 124 1768 124 1714 80.5 c 128,-1,41
 1660 37 1660 37 1579.5 8.5 c 128,-1,42
 1499 -20 1499 -20 1384 -20 c 0,0,1
877 542 m 0,43,44
 877 735 877 735 814 822 c 128,-1,45
 751 909 751 909 631 909 c 0,46,47
 507 909 507 909 441 821 c 128,-1,48
 375 733 375 733 375 542 c 0,49,50
 375 445 375 445 392.5 375 c 128,-1,51
 410 305 410 305 442 260 c 128,-1,52
 474 215 474 215 519 193.5 c 128,-1,53
 564 172 564 172 618 172 c 0,54,55
 680 172 680 172 728.5 193.5 c 128,-1,56
 777 215 777 215 810 260 c 128,-1,57
 843 305 843 305 860 375 c 128,-1,58
 877 445 877 445 877 542 c 0,43,44
1384 925 m 0,59,60
 1341 925 1341 925 1303.5 910.5 c 128,-1,61
 1266 896 1266 896 1238.5 864.5 c 128,-1,62
 1211 833 1211 833 1194 783 c 128,-1,63
 1177 733 1177 733 1175 663 c 1,64,-1
 1595 663 l 1,65,66
 1587 794 1587 794 1532 859.5 c 128,-1,67
 1477 925 1477 925 1384 925 c 0,59,60
EndSplineSet
EndChar

StartChar: Tbar
Encoding: 294 358 294
Width: 1251
GlyphClass: 2
Flags: W
LayerCount: 2
Fore
SplineSet
773 1181 m 1,0,-1
 773 816 l 1,1,-1
 1001 816 l 1,2,-1
 1001 626 l 1,3,-1
 773 626 l 1,4,-1
 773 0 l 1,5,-1
 478 0 l 1,6,-1
 478 626 l 1,7,-1
 251 626 l 1,8,-1
 251 816 l 1,9,-1
 478 816 l 1,10,-1
 478 1181 l 1,11,-1
 23 1181 l 1,12,-1
 23 1409 l 1,13,-1
 1229 1409 l 1,14,-1
 1229 1181 l 1,15,-1
 773 1181 l 1,0,-1
EndSplineSet
EndChar

StartChar: tbar
Encoding: 295 359 295
Width: 682
GlyphClass: 2
Flags: W
LayerCount: 2
Fore
SplineSet
420 -18 m 0,0,1
 296 -18 296 -18 229 49.5 c 128,-1,2
 162 117 162 117 162 254 c 2,3,-1
 162 473 l 1,4,-1
 35 473 l 1,5,-1
 35 663 l 1,6,-1
 162 663 l 1,7,-1
 162 892 l 1,8,-1
 25 892 l 1,9,-1
 25 1082 l 1,10,-1
 176 1082 l 1,11,-1
 264 1336 l 1,12,-1
 440 1336 l 1,13,-1
 440 1082 l 1,14,-1
 645 1082 l 1,15,-1
 645 892 l 1,16,-1
 440 892 l 1,17,-1
 440 663 l 1,18,-1
 625 663 l 1,19,-1
 625 473 l 1,20,-1
 440 473 l 1,21,-1
 440 330 l 2,22,23
 440 251 440 251 470 213.5 c 128,-1,24
 500 176 500 176 563 176 c 0,25,26
 589 176 589 176 610 180 c 128,-1,27
 631 184 631 184 657 190 c 1,28,-1
 657 16 l 1,29,30
 605 -1 605 -1 547 -9.5 c 128,-1,31
 489 -18 489 -18 420 -18 c 0,0,1
EndSplineSet
EndChar

StartChar: longs
Encoding: 319 383 319
Width: 569
GlyphClass: 2
Flags: W
LayerCount: 2
Fore
SplineSet
142 1195 m 2,0,1
 142 1257 142 1257 157 1309.5 c 128,-1,2
 172 1362 172 1362 208 1401 c 128,-1,3
 244 1440 244 1440 305 1462 c 128,-1,4
 366 1484 366 1484 457 1484 c 0,5,6
 505 1484 505 1484 551.5 1479 c 128,-1,7
 598 1474 598 1474 635 1468 c 1,8,-1
 635 1287 l 1,9,10
 617 1291 617 1291 594.5 1293.5 c 128,-1,11
 572 1296 572 1296 553 1296 c 0,12,13
 514 1296 514 1296 488.5 1288 c 128,-1,14
 463 1280 463 1280 448.5 1264 c 128,-1,15
 434 1248 434 1248 428 1223.5 c 128,-1,16
 422 1199 422 1199 422 1167 c 2,17,-1
 422 0 l 1,18,-1
 142 0 l 1,19,-1
 142 1195 l 2,0,1
EndSplineSet
EndChar

StartChar: florin
Encoding: 320 402 320
Width: 1139
GlyphClass: 2
Flags: W
LayerCount: 2
Fore
SplineSet
993 1247 m 1,0,1
 984 1250 984 1250 970.5 1253 c 128,-1,2
 957 1256 957 1256 943 1258.5 c 128,-1,3
 929 1261 929 1261 915.5 1262.5 c 128,-1,4
 902 1264 902 1264 891 1264 c 0,5,6
 826 1264 826 1264 797.5 1231 c 128,-1,7
 769 1198 769 1198 757 1137 c 2,8,-1
 737 1030 l 1,9,-1
 949 1030 l 1,10,-1
 913 840 l 1,11,-1
 700 840 l 1,12,-1
 449 -425 l 1,13,-1
 168 -425 l 1,14,-1
 419 840 l 1,15,-1
 261 840 l 1,16,-1
 298 1030 l 1,17,-1
 456 1030 l 1,18,-1
 483 1165 l 2,19,20
 494 1227 494 1227 518.5 1279.5 c 128,-1,21
 543 1332 543 1332 586 1371 c 128,-1,22
 629 1410 629 1410 694 1432 c 128,-1,23
 759 1454 759 1454 851 1454 c 0,24,25
 874 1454 874 1454 899.5 1451.5 c 128,-1,26
 925 1449 925 1449 949.5 1445 c 128,-1,27
 974 1441 974 1441 996 1435.5 c 128,-1,28
 1018 1430 1018 1430 1033 1424 c 1,29,-1
 993 1247 l 1,0,1
EndSplineSet
EndChar

StartChar: circumflex
Encoding: 327 710 327
Width: 682
GlyphClass: 2
Flags: W
LayerCount: 2
Fore
SplineSet
737 1211 m 1,0,-1
 737 1183 l 1,1,-1
 578 1183 l 1,2,-1
 375 1375 l 1,3,-1
 371 1375 l 1,4,-1
 160 1183 l 1,5,-1
 0 1183 l 1,6,-1
 0 1211 l 1,7,-1
 258 1529 l 1,8,-1
 487 1529 l 1,9,-1
 737 1211 l 1,0,-1
EndSplineSet
EndChar

StartChar: caron
Encoding: 328 711 328
Width: 682
GlyphClass: 2
Flags: W
LayerCount: 2
Fore
SplineSet
487 1183 m 1,0,-1
 258 1183 l 1,1,-1
 0 1500 l 1,2,-1
 0 1529 l 1,3,-1
 160 1529 l 1,4,-1
 371 1336 l 1,5,-1
 375 1336 l 1,6,-1
 578 1529 l 1,7,-1
 737 1529 l 1,8,-1
 737 1500 l 1,9,-1
 487 1183 l 1,0,-1
EndSplineSet
EndChar

StartChar: uni02C9
Encoding: 329 713 329
Width: 682
GlyphClass: 2
Flags: W
LayerCount: 2
Fore
SplineSet
36 1371 m 1,0,-1
 648 1371 l 1,1,-1
 648 1203 l 1,2,-1
 36 1203 l 1,3,-1
 36 1371 l 1,0,-1
EndSplineSet
EndChar

StartChar: breve
Encoding: 330 728 330
Width: 682
GlyphClass: 2
Flags: W
LayerCount: 2
Fore
SplineSet
295 1183 m 0,0,1
 215 1183 215 1183 152 1208.5 c 128,-1,2
 89 1234 89 1234 44.5 1278.5 c 128,-1,3
 0 1323 0 1323 -26 1381.5 c 128,-1,4
 -52 1440 -52 1440 -57 1506 c 1,5,-1
 106 1506 l 1,6,7
 114 1467 114 1467 132 1436 c 128,-1,8
 150 1405 150 1405 175 1384 c 128,-1,9
 200 1363 200 1363 231.5 1351.5 c 128,-1,10
 263 1340 263 1340 297 1340 c 0,11,12
 333 1340 333 1340 364.5 1351.5 c 128,-1,13
 396 1363 396 1363 421 1384 c 128,-1,14
 446 1405 446 1405 463 1436 c 128,-1,15
 480 1467 480 1467 487 1506 c 1,16,-1
 651 1506 l 1,17,18
 643 1440 643 1440 617.5 1381.5 c 128,-1,19
 592 1323 592 1323 548.5 1278.5 c 128,-1,20
 505 1234 505 1234 442 1208.5 c 128,-1,21
 379 1183 379 1183 295 1183 c 0,0,1
EndSplineSet
EndChar

StartChar: dotaccent
Encoding: 331 729 331
Width: 682
GlyphClass: 2
Flags: W
LayerCount: 2
Fore
SplineSet
200 1277 m 1,0,-1
 200 1484 l 1,1,-1
 481 1484 l 1,2,-1
 481 1277 l 1,3,-1
 200 1277 l 1,0,-1
EndSplineSet
EndChar

StartChar: ring
Encoding: 332 730 332
Width: 682
GlyphClass: 2
Flags: W
LayerCount: 2
Fore
SplineSet
547 1390 m 0,0,1
 547 1337 547 1337 527 1290.5 c 128,-1,2
 507 1244 507 1244 472.5 1209.5 c 128,-1,3
 438 1175 438 1175 391.5 1155.5 c 128,-1,4
 345 1136 345 1136 293 1136 c 256,5,6
 241 1136 241 1136 194.5 1155.5 c 128,-1,7
 148 1175 148 1175 113.5 1209.5 c 128,-1,8
 79 1244 79 1244 59 1290.5 c 128,-1,9
 39 1337 39 1337 39 1390 c 0,10,11
 39 1442 39 1442 59 1488.5 c 128,-1,12
 79 1535 79 1535 113.5 1569.5 c 128,-1,13
 148 1604 148 1604 194.5 1624 c 128,-1,14
 241 1644 241 1644 293 1644 c 256,15,16
 345 1644 345 1644 391.5 1624 c 128,-1,17
 438 1604 438 1604 472.5 1569.5 c 128,-1,18
 507 1535 507 1535 527 1488.5 c 128,-1,19
 547 1442 547 1442 547 1390 c 0,0,1
420 1390 m 0,20,21
 420 1416 420 1416 410 1438.5 c 128,-1,22
 400 1461 400 1461 383 1478 c 128,-1,23
 366 1495 366 1495 342.5 1505 c 128,-1,24
 319 1515 319 1515 293 1515 c 256,25,26
 267 1515 267 1515 244 1505 c 128,-1,27
 221 1495 221 1495 204 1478 c 128,-1,28
 187 1461 187 1461 177.5 1438.5 c 128,-1,29
 168 1416 168 1416 168 1390 c 0,30,31
 168 1363 168 1363 177.5 1339.5 c 128,-1,32
 187 1316 187 1316 204 1299 c 128,-1,33
 221 1282 221 1282 244 1272 c 128,-1,34
 267 1262 267 1262 293 1262 c 256,35,36
 319 1262 319 1262 342.5 1272 c 128,-1,37
 366 1282 366 1282 383 1299 c 128,-1,38
 400 1316 400 1316 410 1339.5 c 128,-1,39
 420 1363 420 1363 420 1390 c 0,20,21
EndSplineSet
EndChar

StartChar: ogonek
Encoding: 333 731 333
Width: 682
GlyphClass: 2
Flags: W
LayerCount: 2
Fore
SplineSet
313 -425 m 0,0,1
 262 -425 262 -425 218.5 -412.5 c 128,-1,2
 175 -400 175 -400 143.5 -374.5 c 128,-1,3
 112 -349 112 -349 94 -312 c 128,-1,4
 76 -275 76 -275 76 -225 c 0,5,6
 76 -177 76 -177 92 -136.5 c 128,-1,7
 108 -96 108 -96 132 -65 c 128,-1,8
 156 -34 156 -34 183.5 -12.5 c 128,-1,9
 211 9 211 9 234 21 c 1,10,-1
 387 21 l 1,11,12
 324 -21 324 -21 291 -78.5 c 128,-1,13
 258 -136 258 -136 258 -189 c 0,14,15
 258 -231 258 -231 282.5 -256.5 c 128,-1,16
 307 -282 307 -282 352 -282 c 0,17,18
 383 -282 383 -282 409.5 -275 c 128,-1,19
 436 -268 436 -268 464 -255 c 1,20,-1
 464 -392 l 1,21,22
 401 -425 401 -425 313 -425 c 0,0,1
EndSplineSet
EndChar

StartChar: tilde
Encoding: 334 732 334
Width: 682
GlyphClass: 2
Flags: W
LayerCount: 2
Fore
SplineSet
543 1183 m 0,0,1
 499 1183 499 1183 454.5 1202 c 128,-1,2
 410 1221 410 1221 368 1244.5 c 128,-1,3
 326 1268 326 1268 288.5 1287 c 128,-1,4
 251 1306 251 1306 221 1306 c 0,5,6
 195 1306 195 1306 178 1297.5 c 128,-1,7
 161 1289 161 1289 150.5 1273 c 128,-1,8
 140 1257 140 1257 134 1234.5 c 128,-1,9
 128 1212 128 1212 123 1183 c 1,10,-1
 -14 1183 l 1,11,12
 -11 1228 -11 1228 -3 1279 c 128,-1,13
 5 1330 5 1330 28.5 1374 c 128,-1,14
 52 1418 52 1418 95 1447 c 128,-1,15
 138 1476 138 1476 211 1476 c 0,16,17
 256 1476 256 1476 301 1457 c 128,-1,18
 346 1438 346 1438 388 1414.5 c 128,-1,19
 430 1391 430 1391 466.5 1372 c 128,-1,20
 503 1353 503 1353 532 1353 c 0,21,22
 557 1353 557 1353 573.5 1361.5 c 128,-1,23
 590 1370 590 1370 601.5 1386 c 128,-1,24
 613 1402 613 1402 619.5 1425 c 128,-1,25
 626 1448 626 1448 631 1476 c 1,26,-1
 766 1476 l 1,27,28
 764 1431 764 1431 756 1380 c 128,-1,29
 748 1329 748 1329 725 1285 c 128,-1,30
 702 1241 702 1241 659 1212 c 128,-1,31
 616 1183 616 1183 543 1183 c 0,0,1
EndSplineSet
EndChar

StartChar: hungarumlaut
Encoding: 335 733 335
Width: 682
GlyphClass: 2
Flags: W
LayerCount: 2
Fore
SplineSet
50 1184 m 1,0,-1
 -92 1184 l 1,1,-1
 -92 1218 l 1,2,-1
 133 1484 l 1,3,-1
 368 1484 l 1,4,-1
 368 1441 l 1,5,-1
 50 1184 l 1,0,-1
456 1184 m 1,6,-1
 314 1184 l 1,7,-1
 314 1218 l 1,8,-1
 539 1484 l 1,9,-1
 774 1484 l 1,10,-1
 774 1441 l 1,11,-1
 456 1184 l 1,6,-1
EndSplineSet
EndChar

StartChar: tonos
Encoding: 336 900 336
Width: 682
GlyphClass: 2
Flags: W
LayerCount: 2
Fore
SplineSet
185 1183 m 1,0,-1
 185 1216 l 1,1,-1
 254 1508 l 1,2,-1
 511 1508 l 1,3,-1
 511 1471 l 1,4,-1
 290 1183 l 1,5,-1
 185 1183 l 1,0,-1
EndSplineSet
EndChar

StartChar: dieresistonos
Encoding: 337 901 337
Width: 952
GlyphClass: 2
Flags: W
LayerCount: 2
Fore
SplineSet
361 1190 m 1,0,-1
 361 1223 l 1,1,-1
 420 1621 l 1,2,-1
 657 1621 l 1,3,-1
 657 1584 l 1,4,-1
 476 1190 l 1,5,-1
 361 1190 l 1,0,-1
110 1231 m 1,6,-1
 110 1453 l 1,7,-1
 310 1453 l 1,8,-1
 310 1231 l 1,9,-1
 110 1231 l 1,6,-1
642 1231 m 1,10,-1
 642 1453 l 1,11,-1
 842 1453 l 1,12,-1
 842 1231 l 1,13,-1
 642 1231 l 1,10,-1
EndSplineSet
EndChar

StartChar: Gamma
Encoding: 349 915 349
Width: 1231
GlyphClass: 2
Flags: W
LayerCount: 2
Fore
SplineSet
1198 1409 m 1,0,-1
 1198 1181 l 1,1,-1
 432 1181 l 1,2,-1
 432 1 l 1,3,-1
 137 1 l 1,4,-1
 137 1409 l 1,5,-1
 1198 1409 l 1,0,-1
EndSplineSet
EndChar

StartChar: Delta
Encoding: 350 916 350
Width: 1472
GlyphClass: 2
Flags: W
LayerCount: 2
Fore
SplineSet
84 226 m 1,0,-1
 567 1409 l 1,1,-1
 912 1408 l 1,2,-1
 1388 226 l 1,3,-1
 1388 0 l 1,4,-1
 83 0 l 1,5,-1
 84 226 l 1,0,-1
1086 244 m 1,6,-1
 820 942 l 2,7,8
 805 983 805 983 790.5 1023.5 c 128,-1,9
 776 1064 776 1064 764.5 1098.5 c 128,-1,10
 753 1133 753 1133 746 1157.5 c 128,-1,11
 739 1182 739 1182 737 1189 c 1,12,13
 736 1182 736 1182 728 1157 c 128,-1,14
 720 1132 720 1132 709 1097 c 128,-1,15
 698 1062 698 1062 683.5 1021 c 128,-1,16
 669 980 669 980 654 940 c 2,17,-1
 391 244 l 1,18,-1
 1086 244 l 1,6,-1
EndSplineSet
EndChar

StartChar: Theta
Encoding: 354 920 354
Width: 1593
GlyphClass: 2
Flags: W
LayerCount: 2
Fore
SplineSet
502 827 m 1,0,-1
 1089 827 l 1,1,-1
 1089 599 l 1,2,-1
 502 599 l 1,3,-1
 502 827 l 1,0,-1
1507 711 m 0,4,5
 1507 546 1507 546 1458 411 c 128,-1,6
 1409 276 1409 276 1317 180 c 128,-1,7
 1225 84 1225 84 1092.5 32 c 128,-1,8
 960 -20 960 -20 793 -20 c 0,9,10
 616 -20 616 -20 483.5 34.5 c 128,-1,11
 351 89 351 89 262 186.5 c 128,-1,12
 173 284 173 284 128.5 418 c 128,-1,13
 84 552 84 552 84 711 c 0,14,15
 84 876 84 876 130.5 1009 c 128,-1,16
 177 1142 177 1142 267.5 1235.5 c 128,-1,17
 358 1329 358 1329 490.5 1379.5 c 128,-1,18
 623 1430 623 1430 795 1430 c 256,19,20
 967 1430 967 1430 1099.5 1379 c 128,-1,21
 1232 1328 1232 1328 1322.5 1234 c 128,-1,22
 1413 1140 1413 1140 1460 1007.5 c 128,-1,23
 1507 875 1507 875 1507 711 c 0,4,5
1206 711 m 0,24,25
 1206 822 1206 822 1179.5 911.5 c 128,-1,26
 1153 1001 1153 1001 1101 1065 c 128,-1,27
 1049 1129 1049 1129 972.5 1163.5 c 128,-1,28
 896 1198 896 1198 795 1198 c 0,29,30
 692 1198 692 1198 614.5 1163.5 c 128,-1,31
 537 1129 537 1129 485 1065 c 128,-1,32
 433 1001 433 1001 407 911.5 c 128,-1,33
 381 822 381 822 381 711 c 0,34,35
 381 601 381 601 407.5 509.5 c 128,-1,36
 434 418 434 418 486 352 c 128,-1,37
 538 286 538 286 615 249 c 128,-1,38
 692 212 692 212 793 212 c 0,39,40
 901 212 901 212 979 249.5 c 128,-1,41
 1057 287 1057 287 1107.5 353.5 c 128,-1,42
 1158 420 1158 420 1182 511.5 c 128,-1,43
 1206 603 1206 603 1206 711 c 0,24,25
EndSplineSet
EndChar

StartChar: Lambda
Encoding: 357 923 357
Width: 1366
GlyphClass: 2
Flags: W
LayerCount: 2
Fore
SplineSet
1352 1 m 1,0,-1
 1047 1 l 1,1,-1
 758 886 l 2,2,3
 744 934 744 934 730.5 981 c 128,-1,4
 717 1028 717 1028 707 1066 c 0,5,6
 696 1111 696 1111 686 1152 c 1,7,8
 675 1110 675 1110 663 1064 c 0,9,10
 652 1025 652 1025 639 978 c 128,-1,11
 626 931 626 931 612 886 c 2,12,-1
 322 1 l 1,13,-1
 14 1 l 1,14,-1
 535 1410 l 1,15,-1
 834 1410 l 1,16,-1
 1352 1 l 1,0,-1
EndSplineSet
EndChar

StartChar: Xi
Encoding: 360 926 360
Width: 1318
GlyphClass: 2
Flags: W
LayerCount: 2
Fore
SplineSet
119 1409 m 1,0,-1
 1200 1409 l 1,1,-1
 1200 1181 l 1,2,-1
 119 1181 l 1,3,-1
 119 1409 l 1,0,-1
1235 228 m 1,4,-1
 1235 0 l 1,5,-1
 84 0 l 1,6,-1
 84 228 l 1,7,-1
 1235 228 l 1,4,-1
1080 827 m 1,8,-1
 1080 599 l 1,9,-1
 239 599 l 1,10,-1
 239 827 l 1,11,-1
 1080 827 l 1,8,-1
EndSplineSet
EndChar

StartChar: Pi
Encoding: 362 928 362
Width: 1479
GlyphClass: 2
Flags: W
LayerCount: 2
Fore
SplineSet
1056 0 m 1,0,-1
 1056 1165 l 1,1,-1
 431 1165 l 1,2,-1
 431 0 l 1,3,-1
 137 0 l 1,4,-1
 137 1409 l 1,5,-1
 1341 1409 l 1,6,-1
 1341 0 l 1,7,-1
 1056 0 l 1,0,-1
EndSplineSet
EndChar

StartChar: Sigma
Encoding: 364 931 364
Width: 1229
GlyphClass: 2
Flags: W
LayerCount: 2
Fore
SplineSet
90 0 m 1,0,-1
 90 234 l 1,1,-1
 538 741 l 1,2,-1
 107 1176 l 1,3,-1
 107 1409 l 1,4,-1
 1106 1409 l 1,5,-1
 1106 1181 l 1,6,-1
 409 1181 l 1,7,-1
 780 808 l 1,8,-1
 780 674 l 1,9,-1
 386 228 l 1,10,-1
 1167 228 l 1,11,-1
 1167 0 l 1,12,-1
 90 0 l 1,0,-1
EndSplineSet
EndChar

StartChar: Phi
Encoding: 367 934 367
Width: 1681
GlyphClass: 2
Flags: W
LayerCount: 2
Fore
SplineSet
1322 730 m 0,0,1
 1322 882 1322 882 1243 967 c 128,-1,2
 1164 1052 1164 1052 999 1052 c 2,3,-1
 980 1052 l 1,4,-1
 980 397 l 1,5,-1
 1006 397 l 2,6,7
 1090 397 1090 397 1149.5 422 c 128,-1,8
 1209 447 1209 447 1247.5 491.5 c 128,-1,9
 1286 536 1286 536 1304 597 c 128,-1,10
 1322 658 1322 658 1322 730 c 0,0,1
702 -11 m 1,11,-1
 702 188 l 1,12,-1
 648 188 l 2,13,14
 500 188 500 188 390 232 c 128,-1,15
 280 276 280 276 207 351 c 128,-1,16
 134 426 134 426 98.5 525 c 128,-1,17
 63 624 63 624 63 734 c 0,18,19
 63 853 63 853 100 950.5 c 128,-1,20
 137 1048 137 1048 211.5 1117 c 128,-1,21
 286 1186 286 1186 398 1223.5 c 128,-1,22
 510 1261 510 1261 660 1261 c 2,23,-1
 702 1261 l 1,24,-1
 702 1419 l 1,25,-1
 980 1419 l 1,26,-1
 980 1261 l 1,27,-1
 1022 1261 l 2,28,29
 1172 1261 1172 1261 1284 1223.5 c 128,-1,30
 1396 1186 1396 1186 1470.5 1117 c 128,-1,31
 1545 1048 1545 1048 1582 950.5 c 128,-1,32
 1619 853 1619 853 1619 734 c 0,33,34
 1619 624 1619 624 1583.5 525 c 128,-1,35
 1548 426 1548 426 1475 351 c 128,-1,36
 1402 276 1402 276 1292.5 232 c 128,-1,37
 1183 188 1183 188 1034 188 c 2,38,-1
 980 188 l 1,39,-1
 980 -11 l 1,40,-1
 702 -11 l 1,11,-1
360 730 m 0,41,42
 360 658 360 658 378 597 c 128,-1,43
 396 536 396 536 434.5 491.5 c 128,-1,44
 473 447 473 447 532.5 422 c 128,-1,45
 592 397 592 397 676 397 c 2,46,-1
 702 397 l 1,47,-1
 702 1052 l 1,48,-1
 683 1052 l 2,49,50
 518 1052 518 1052 439 967 c 128,-1,51
 360 882 360 882 360 730 c 0,41,42
EndSplineSet
EndChar

StartChar: Psi
Encoding: 369 936 369
Width: 1657
GlyphClass: 2
Flags: W
LayerCount: 2
Fore
SplineSet
968 427 m 1,0,-1
 968 0 l 1,1,-1
 689 0 l 1,2,-1
 689 427 l 1,3,-1
 649 427 l 2,4,5
 505 427 505 427 400.5 460.5 c 128,-1,6
 296 494 296 494 228.5 559.5 c 128,-1,7
 161 625 161 625 128.5 722 c 128,-1,8
 96 819 96 819 96 946 c 2,9,-1
 96 1409 l 1,10,-1
 375 1409 l 1,11,-1
 375 942 l 2,12,13
 375 862 375 862 392.5 806 c 128,-1,14
 410 750 410 750 447 715 c 128,-1,15
 484 680 484 680 541.5 664 c 128,-1,16
 599 648 599 648 680 648 c 2,17,-1
 689 648 l 1,18,-1
 689 1409 l 1,19,-1
 968 1409 l 1,20,-1
 968 648 l 1,21,-1
 977 648 l 2,22,23
 1058 648 1058 648 1115.5 664 c 128,-1,24
 1173 680 1173 680 1210 715 c 128,-1,25
 1247 750 1247 750 1264.5 806 c 128,-1,26
 1282 862 1282 862 1282 942 c 2,27,-1
 1282 1409 l 1,28,-1
 1561 1409 l 1,29,-1
 1561 946 l 2,30,31
 1561 819 1561 819 1528.5 722 c 128,-1,32
 1496 625 1496 625 1428.5 559.5 c 128,-1,33
 1361 494 1361 494 1256.5 460.5 c 128,-1,34
 1152 427 1152 427 1008 427 c 2,35,-1
 968 427 l 1,0,-1
EndSplineSet
EndChar

StartChar: Omega
Encoding: 370 937 370
Width: 1642
GlyphClass: 2
Flags: W
LayerCount: 2
Fore
SplineSet
821 1430 m 256,0,1
 986 1430 986 1430 1117.5 1389 c 128,-1,2
 1249 1348 1249 1348 1341 1270 c 128,-1,3
 1433 1192 1433 1192 1482 1080.5 c 128,-1,4
 1531 969 1531 969 1531 828 c 0,5,6
 1531 726 1531 726 1507 637.5 c 128,-1,7
 1483 549 1483 549 1431 472.5 c 128,-1,8
 1379 396 1379 396 1298.5 332 c 128,-1,9
 1218 268 1218 268 1105 217 c 1,10,11
 1136 220 1136 220 1168 223 c 0,12,13
 1195 225 1195 225 1226 226.5 c 128,-1,14
 1257 228 1257 228 1283 228 c 2,15,-1
 1559 228 l 1,16,-1
 1559 0 l 1,17,-1
 888 0 l 1,18,-1
 888 309 l 1,19,20
 1069 395 1069 395 1150 510.5 c 128,-1,21
 1231 626 1231 626 1231 774 c 0,22,23
 1231 875 1231 875 1203.5 954 c 128,-1,24
 1176 1033 1176 1033 1123.5 1087 c 128,-1,25
 1071 1141 1071 1141 994 1169.5 c 128,-1,26
 917 1198 917 1198 819 1198 c 0,27,28
 720 1198 720 1198 643.5 1169.5 c 128,-1,29
 567 1141 567 1141 514 1087 c 128,-1,30
 461 1033 461 1033 433.5 954 c 128,-1,31
 406 875 406 875 406 774 c 0,32,33
 406 626 406 626 487.5 510.5 c 128,-1,34
 569 395 569 395 750 309 c 1,35,-1
 750 0 l 1,36,-1
 83 0 l 1,37,-1
 83 228 l 1,38,-1
 357 228 l 2,39,40
 383 228 383 228 414 226.5 c 128,-1,41
 445 225 445 225 472 223 c 0,42,43
 504 220 504 220 534 217 c 1,44,45
 422 268 422 268 341.5 332 c 128,-1,46
 261 396 261 396 210 472.5 c 128,-1,47
 159 549 159 549 135 638 c 128,-1,48
 111 727 111 727 111 829 c 0,49,50
 111 970 111 970 160 1081.5 c 128,-1,51
 209 1193 209 1193 301 1270.5 c 128,-1,52
 393 1348 393 1348 524.5 1389 c 128,-1,53
 656 1430 656 1430 821 1430 c 256,0,1
EndSplineSet
EndChar

StartChar: alpha
Encoding: 378 945 378
Width: 1259
GlyphClass: 2
Flags: W
LayerCount: 2
Fore
SplineSet
860 237 m 1,0,1
 834 181 834 181 801.5 134 c 128,-1,2
 769 87 769 87 726.5 52.5 c 128,-1,3
 684 18 684 18 628.5 -1 c 128,-1,4
 573 -20 573 -20 501 -20 c 0,5,6
 289 -20 289 -20 184.5 117.5 c 128,-1,7
 80 255 80 255 80 536 c 0,8,9
 80 820 80 820 193.5 961 c 128,-1,10
 307 1102 307 1102 527 1102 c 0,11,12
 600 1102 600 1102 658.5 1082.5 c 128,-1,13
 717 1063 717 1063 762.5 1028.5 c 128,-1,14
 808 994 808 994 841 947.5 c 128,-1,15
 874 901 874 901 895 847 c 1,16,-1
 898 847 l 1,17,18
 909 902 909 902 929 965.5 c 128,-1,19
 949 1029 949 1029 973 1082 c 1,20,-1
 1238 1082 l 1,21,22
 1212 1035 1212 1035 1185 968.5 c 128,-1,23
 1158 902 1158 902 1134 830 c 128,-1,24
 1110 758 1110 758 1092.5 686 c 128,-1,25
 1075 614 1075 614 1069 556 c 1,26,27
 1077 479 1077 479 1090 403.5 c 128,-1,28
 1103 328 1103 328 1121 257.5 c 128,-1,29
 1139 187 1139 187 1160 122 c 128,-1,30
 1181 57 1181 57 1205 0 c 1,31,-1
 935 0 l 1,32,33
 922 32 922 32 910.5 65 c 128,-1,34
 899 98 899 98 890 129.5 c 128,-1,35
 881 161 881 161 874.5 188.5 c 128,-1,36
 868 216 868 216 864 237 c 1,37,-1
 860 237 l 1,0,1
375 539 m 0,38,39
 375 442 375 442 385 373 c 128,-1,40
 395 304 395 304 417 259.5 c 128,-1,41
 439 215 439 215 473.5 194 c 128,-1,42
 508 173 508 173 556 173 c 0,43,44
 595 173 595 173 633 195.5 c 128,-1,45
 671 218 671 218 702.5 264 c 128,-1,46
 734 310 734 310 757.5 379.5 c 128,-1,47
 781 449 781 449 791 542 c 1,48,49
 782 616 782 616 764.5 682.5 c 128,-1,50
 747 749 747 749 719.5 799 c 128,-1,51
 692 849 692 849 653.5 878.5 c 128,-1,52
 615 908 615 908 564 908 c 0,53,54
 516 908 516 908 480 888 c 128,-1,55
 444 868 444 868 421 824 c 128,-1,56
 398 780 398 780 386.5 710 c 128,-1,57
 375 640 375 640 375 539 c 0,38,39
EndSplineSet
EndChar

StartChar: beta
Encoding: 379 946 379
Width: 1250
GlyphClass: 2
Flags: W
LayerCount: 2
Fore
SplineSet
1181 405 m 0,0,1
 1181 317 1181 317 1155 239.5 c 128,-1,2
 1129 162 1129 162 1073.5 104 c 128,-1,3
 1018 46 1018 46 932.5 13 c 128,-1,4
 847 -20 847 -20 728 -20 c 0,5,6
 627 -20 627 -20 553.5 7.5 c 128,-1,7
 480 35 480 35 425 74 c 1,8,-1
 416 74 l 1,9,10
 421 17 421 17 422.5 -29 c 128,-1,11
 424 -75 424 -75 424 -128 c 2,12,-1
 424 -425 l 1,13,-1
 142 -425 l 1,14,-1
 142 1027 l 2,15,16
 142 1264 142 1264 266.5 1374 c 128,-1,17
 391 1484 391 1484 638 1484 c 0,18,19
 746 1484 746 1484 829 1460.5 c 128,-1,20
 912 1437 912 1437 968.5 1392 c 128,-1,21
 1025 1347 1025 1347 1053.5 1282 c 128,-1,22
 1082 1217 1082 1217 1082 1135 c 0,23,24
 1082 1062 1082 1062 1064.5 1006.5 c 128,-1,25
 1047 951 1047 951 1016.5 910 c 128,-1,26
 986 869 986 869 945.5 841 c 128,-1,27
 905 813 905 813 859 795 c 1,28,29
 916 784 916 784 973.5 756.5 c 128,-1,30
 1031 729 1031 729 1077 682.5 c 128,-1,31
 1123 636 1123 636 1152 567.5 c 128,-1,32
 1181 499 1181 499 1181 405 c 0,0,1
424 255 m 1,33,34
 446 238 446 238 474.5 223 c 128,-1,35
 503 208 503 208 535.5 196.5 c 128,-1,36
 568 185 568 185 603 178.5 c 128,-1,37
 638 172 638 172 672 172 c 0,38,39
 730 172 730 172 774 189.5 c 128,-1,40
 818 207 818 207 847.5 239.5 c 128,-1,41
 877 272 877 272 892 317.5 c 128,-1,42
 907 363 907 363 907 419 c 256,43,44
 907 475 907 475 889 522 c 128,-1,45
 871 569 871 569 831 603 c 128,-1,46
 791 637 791 637 728 656.5 c 128,-1,47
 665 676 665 676 576 676 c 1,48,-1
 576 874 l 1,49,50
 703 896 703 896 759.5 953 c 128,-1,51
 816 1010 816 1010 816 1109 c 0,52,53
 816 1145 816 1145 805.5 1176.5 c 128,-1,54
 795 1208 795 1208 773 1231.5 c 128,-1,55
 751 1255 751 1255 717.5 1268 c 128,-1,56
 684 1281 684 1281 637 1281 c 0,57,58
 583 1281 583 1281 543 1265.5 c 128,-1,59
 503 1250 503 1250 476.5 1215.5 c 128,-1,60
 450 1181 450 1181 437 1125.5 c 128,-1,61
 424 1070 424 1070 424 991 c 2,62,-1
 424 255 l 1,33,34
EndSplineSet
EndChar

StartChar: gamma
Encoding: 380 947 380
Width: 1139
GlyphClass: 2
Flags: W
LayerCount: 2
Fore
SplineSet
8 1082 m 1,0,-1
 306 1082 l 1,1,-1
 518 442 l 2,2,3
 521 433 521 433 529.5 402 c 128,-1,4
 538 371 538 371 547 332.5 c 128,-1,5
 556 294 556 294 563.5 254.5 c 128,-1,6
 571 215 571 215 572 188 c 1,7,8
 576 219 576 219 584 255.5 c 128,-1,9
 592 292 592 292 601 327.5 c 128,-1,10
 610 363 610 363 619 394.5 c 128,-1,11
 628 426 628 426 635 447 c 2,12,-1
 836 1082 l 1,13,-1
 1131 1082 l 1,14,-1
 736 54 l 2,15,16
 715 -1 715 -1 696.5 -56 c 128,-1,17
 678 -111 678 -111 662.5 -169.5 c 128,-1,18
 647 -228 647 -228 634.5 -291 c 128,-1,19
 622 -354 622 -354 613 -424 c 1,20,-1
 323 -424 l 1,21,22
 343 -290 343 -290 369.5 -183.5 c 128,-1,23
 396 -77 396 -77 424 11 c 1,24,-1
 8 1082 l 1,0,-1
EndSplineSet
EndChar

StartChar: delta
Encoding: 381 948 381
Width: 1242
GlyphClass: 2
Flags: W
LayerCount: 2
Fore
SplineSet
866 487 m 0,0,1
 866 556 866 556 850 614.5 c 128,-1,2
 834 673 834 673 806.5 724 c 128,-1,3
 779 775 779 775 743 819 c 128,-1,4
 707 863 707 863 667 903 c 1,5,6
 600 879 600 879 546.5 841 c 128,-1,7
 493 803 493 803 455 750.5 c 128,-1,8
 417 698 417 698 396.5 631 c 128,-1,9
 376 564 376 564 376 481 c 0,10,11
 376 415 376 415 390 359 c 128,-1,12
 404 303 404 303 433 262.5 c 128,-1,13
 462 222 462 222 506.5 199 c 128,-1,14
 551 176 551 176 612 176 c 0,15,16
 682 176 682 176 730.5 199.5 c 128,-1,17
 779 223 779 223 809 264 c 128,-1,18
 839 305 839 305 852.5 362.5 c 128,-1,19
 866 420 866 420 866 487 c 0,0,1
734 1294 m 2,20,21
 721 1294 721 1294 701.5 1295 c 128,-1,22
 682 1296 682 1296 660.5 1297 c 128,-1,23
 639 1298 639 1298 619.5 1299 c 128,-1,24
 600 1300 600 1300 587 1301 c 1,25,-1
 910 1008 l 2,26,27
 968 955 968 955 1014 898 c 128,-1,28
 1060 841 1060 841 1091.5 777 c 128,-1,29
 1123 713 1123 713 1139.5 640 c 128,-1,30
 1156 567 1156 567 1156 483 c 0,31,32
 1156 375 1156 375 1120.5 282.5 c 128,-1,33
 1085 190 1085 190 1016 123 c 128,-1,34
 947 56 947 56 846.5 18 c 128,-1,35
 746 -20 746 -20 617 -20 c 0,36,37
 490 -20 490 -20 391 14.5 c 128,-1,38
 292 49 292 49 224.5 113.5 c 128,-1,39
 157 178 157 178 121.5 271 c 128,-1,40
 86 364 86 364 86 481 c 0,41,42
 86 591 86 591 122.5 677 c 128,-1,43
 159 763 159 763 222.5 829 c 128,-1,44
 286 895 286 895 370.5 942.5 c 128,-1,45
 455 990 455 990 551 1023 c 1,46,-1
 239 1337 l 1,47,-1
 239 1484 l 1,48,-1
 1092 1484 l 1,49,-1
 1092 1294 l 1,50,-1
 734 1294 l 2,20,21
EndSplineSet
EndChar

StartChar: epsilon
Encoding: 382 949 382
Width: 972
GlyphClass: 2
Flags: W
LayerCount: 2
Fore
SplineSet
526 168 m 256,0,1
 601 168 601 168 669.5 206.5 c 128,-1,2
 738 245 738 245 796 305 c 1,3,-1
 939 165 l 1,4,5
 906 131 906 131 867.5 98 c 128,-1,6
 829 65 829 65 777.5 39 c 128,-1,7
 726 13 726 13 657.5 -3.5 c 128,-1,8
 589 -20 589 -20 497 -20 c 0,9,10
 390 -20 390 -20 311 3.5 c 128,-1,11
 232 27 232 27 180 69 c 128,-1,12
 128 111 128 111 102.5 169 c 128,-1,13
 77 227 77 227 77 297 c 0,14,15
 77 354 77 354 98 400.5 c 128,-1,16
 119 447 119 447 157.5 480 c 128,-1,17
 196 513 196 513 249 533 c 128,-1,18
 302 553 302 553 365 558 c 1,19,-1
 365 560 l 1,20,21
 304 566 304 566 256.5 587 c 128,-1,22
 209 608 209 608 176.5 641 c 128,-1,23
 144 674 144 674 127 717.5 c 128,-1,24
 110 761 110 761 110 812 c 0,25,26
 110 875 110 875 138 928 c 128,-1,27
 166 981 166 981 220 1019.5 c 128,-1,28
 274 1058 274 1058 352.5 1080 c 128,-1,29
 431 1102 431 1102 533 1102 c 0,30,31
 603 1102 603 1102 660 1092.5 c 128,-1,32
 717 1083 717 1083 764 1063 c 128,-1,33
 811 1043 811 1043 850 1010.5 c 128,-1,34
 889 978 889 978 923 933 c 1,35,-1
 761 810 l 1,36,37
 719 867 719 867 668.5 895 c 128,-1,38
 618 923 618 923 549 923 c 0,39,40
 465 923 465 923 421 890.5 c 128,-1,41
 377 858 377 858 377 801 c 0,42,43
 377 753 377 753 402.5 723.5 c 128,-1,44
 428 694 428 694 472 678 c 128,-1,45
 516 662 516 662 576 657 c 128,-1,46
 636 652 636 652 705 652 c 1,47,-1
 705 475 l 1,48,49
 639 475 639 475 577.5 471.5 c 128,-1,50
 516 468 516 468 469 452.5 c 128,-1,51
 422 437 422 437 394 404.5 c 128,-1,52
 366 372 366 372 366 314 c 0,53,54
 366 242 366 242 408.5 205 c 128,-1,55
 451 168 451 168 526 168 c 256,0,1
EndSplineSet
EndChar

StartChar: zeta
Encoding: 383 950 383
Width: 943
GlyphClass: 2
Flags: W
LayerCount: 2
Fore
SplineSet
324 422 m 0,0,1
 324 366 324 366 344 331.5 c 128,-1,2
 364 297 364 297 399.5 275.5 c 128,-1,3
 435 254 435 254 483.5 239.5 c 128,-1,4
 532 225 532 225 588 209 c 0,5,6
 642 194 642 194 699.5 175 c 128,-1,7
 757 156 757 156 804 122.5 c 128,-1,8
 851 89 851 89 881 35.5 c 128,-1,9
 911 -18 911 -18 911 -102 c 0,10,11
 911 -144 911 -144 901 -187.5 c 128,-1,12
 891 -231 891 -231 876.5 -271.5 c 128,-1,13
 862 -312 862 -312 846 -346 c 128,-1,14
 830 -380 830 -380 817 -401 c 1,15,-1
 634 -327 l 1,16,17
 643 -312 643 -312 652.5 -293.5 c 128,-1,18
 662 -275 662 -275 670 -255 c 128,-1,19
 678 -235 678 -235 683.5 -214 c 128,-1,20
 689 -193 689 -193 689 -172 c 0,21,22
 689 -135 689 -135 671.5 -109.5 c 128,-1,23
 654 -84 654 -84 621.5 -66 c 128,-1,24
 589 -48 589 -48 543 -34.5 c 128,-1,25
 497 -21 497 -21 439 -6 c 0,26,27
 375 8 375 8 308.5 27.5 c 128,-1,28
 242 47 242 47 188 84 c 128,-1,29
 134 121 134 121 100 182 c 128,-1,30
 66 243 66 243 66 339 c 0,31,32
 66 419 66 419 89 502.5 c 128,-1,33
 112 586 112 586 152 670.5 c 128,-1,34
 192 755 192 755 245.5 838.5 c 128,-1,35
 299 922 299 922 360.5 1002 c 128,-1,36
 422 1082 422 1082 487.5 1156 c 128,-1,37
 553 1230 553 1230 617 1295 c 1,38,-1
 617 1299 l 1,39,40
 605 1298 605 1298 588 1297.5 c 128,-1,41
 571 1297 571 1297 553 1296.5 c 128,-1,42
 535 1296 535 1296 518 1295.5 c 128,-1,43
 501 1295 501 1295 490 1295 c 2,44,-1
 175 1295 l 1,45,-1
 175 1484 l 1,46,-1
 876 1484 l 1,47,-1
 876 1294 l 1,48,49
 814 1233 814 1233 748.5 1163 c 128,-1,50
 683 1093 683 1093 621.5 1018.5 c 128,-1,51
 560 944 560 944 506 866.5 c 128,-1,52
 452 789 452 789 411.5 713 c 128,-1,53
 371 637 371 637 347.5 563 c 128,-1,54
 324 489 324 489 324 422 c 0,0,1
EndSplineSet
EndChar

StartChar: eta
Encoding: 384 951 384
Width: 1251
GlyphClass: 2
Flags: W
LayerCount: 2
Fore
SplineSet
845 -424 m 1,0,-1
 845 629 l 2,1,2
 845 704 845 704 835.5 754.5 c 128,-1,3
 826 805 826 805 804 835.5 c 128,-1,4
 782 866 782 866 746.5 879 c 128,-1,5
 711 892 711 892 659 892 c 0,6,7
 606 892 606 892 562.5 871.5 c 128,-1,8
 519 851 519 851 488.5 811 c 128,-1,9
 458 771 458 771 441.5 713.5 c 128,-1,10
 425 656 425 656 425 581 c 2,11,-1
 425 0 l 1,12,-1
 143 0 l 1,13,-1
 143 851 l 2,14,15
 143 919 143 919 132 979.5 c 128,-1,16
 121 1040 121 1040 107 1082 c 1,17,-1
 376 1082 l 1,18,19
 385 1061 385 1061 392 1037 c 128,-1,20
 399 1013 399 1013 404 988.5 c 128,-1,21
 409 964 409 964 411.5 940.5 c 128,-1,22
 414 917 414 917 414 897 c 1,23,-1
 417 897 l 1,24,25
 444 944 444 944 476 982 c 128,-1,26
 508 1020 508 1020 550 1046.5 c 128,-1,27
 592 1073 592 1073 646 1087.5 c 128,-1,28
 700 1102 700 1102 772 1102 c 0,29,30
 865 1102 865 1102 931.5 1080 c 128,-1,31
 998 1058 998 1058 1040.5 1012 c 128,-1,32
 1083 966 1083 966 1103.5 894 c 128,-1,33
 1124 822 1124 822 1124 721 c 2,34,-1
 1124 -424 l 1,35,-1
 845 -424 l 1,0,-1
EndSplineSet
EndChar

StartChar: theta
Encoding: 385 952 385
Width: 1107
GlyphClass: 2
Flags: W
LayerCount: 2
Fore
SplineSet
1017 733 m 0,0,1
 1017 352 1017 352 897 166 c 128,-1,2
 777 -20 777 -20 549 -20 c 0,3,4
 441 -20 441 -20 355.5 26 c 128,-1,5
 270 72 270 72 211 165 c 128,-1,6
 152 258 152 258 121 399.5 c 128,-1,7
 90 541 90 541 90 733 c 0,8,9
 90 1107 90 1107 206.5 1295 c 128,-1,10
 323 1483 323 1483 555 1483 c 0,11,12
 676 1483 676 1483 763.5 1436.5 c 128,-1,13
 851 1390 851 1390 907 1296 c 128,-1,14
 963 1202 963 1202 990 1061.5 c 128,-1,15
 1017 921 1017 921 1017 733 c 0,0,1
550 162 m 0,16,17
 589 162 589 162 623 185.5 c 128,-1,18
 657 209 657 209 683 264.5 c 128,-1,19
 709 320 709 320 725 413 c 128,-1,20
 741 506 741 506 743 644 c 1,21,-1
 366 644 l 1,22,23
 368 506 368 506 384 413.5 c 128,-1,24
 400 321 400 321 425.5 265 c 128,-1,25
 451 209 451 209 483.5 185.5 c 128,-1,26
 516 162 516 162 550 162 c 0,16,17
557 1300 m 0,27,28
 518 1300 518 1300 484 1277.5 c 128,-1,29
 450 1255 450 1255 424.5 1201 c 128,-1,30
 399 1147 399 1147 383 1057.5 c 128,-1,31
 367 968 367 968 365 834 c 1,32,-1
 743 834 l 1,33,34
 741 968 741 968 725.5 1057.5 c 128,-1,35
 710 1147 710 1147 685.5 1201 c 128,-1,36
 661 1255 661 1255 628 1277.5 c 128,-1,37
 595 1300 595 1300 557 1300 c 0,27,28
EndSplineSet
EndChar

StartChar: iota
Encoding: 386 953 386
Width: 569
GlyphClass: 2
Flags: W
LayerCount: 2
Fore
SplineSet
199 0 m 1,0,1
 184 16 184 16 172 42.5 c 128,-1,2
 160 69 160 69 152.5 101 c 128,-1,3
 145 133 145 133 141 168 c 128,-1,4
 137 203 137 203 137 236 c 2,5,-1
 137 1082 l 1,6,-1
 419 1082 l 1,7,-1
 419 227 l 2,8,9
 419 195 419 195 425 163 c 128,-1,10
 431 131 431 131 441.5 101 c 128,-1,11
 452 71 452 71 466.5 45.5 c 128,-1,12
 481 20 481 20 499 0 c 1,13,-1
 199 0 l 1,0,1
EndSplineSet
EndChar

StartChar: kappa
Encoding: 387 954 387
Width: 1142
GlyphClass: 2
Flags: W
LayerCount: 2
Fore
SplineSet
842 0 m 1,0,-1
 551 455 l 1,1,-1
 424 349 l 1,2,-1
 424 0 l 1,3,-1
 143 0 l 1,4,-1
 143 1082 l 1,5,-1
 424 1082 l 1,6,-1
 424 588 l 1,7,-1
 821 1082 l 1,8,-1
 1112 1082 l 1,9,-1
 732 620 l 1,10,-1
 1141 0 l 1,11,-1
 842 0 l 1,0,-1
EndSplineSet
EndChar

StartChar: lambda
Encoding: 388 955 388
Width: 1139
GlyphClass: 2
Flags: W
LayerCount: 2
Fore
SplineSet
1108 0 m 1,0,-1
 814 0 l 1,1,-1
 678 462 l 2,2,3
 674 475 674 475 667.5 497.5 c 128,-1,4
 661 520 661 520 653 548.5 c 128,-1,5
 645 577 645 577 636 608 c 128,-1,6
 627 639 627 639 620 668 c 128,-1,7
 613 697 613 697 607.5 721 c 128,-1,8
 602 745 602 745 600 759 c 1,9,10
 593 732 593 732 579.5 688.5 c 128,-1,11
 566 645 566 645 550 597.5 c 128,-1,12
 534 550 534 550 517.5 504.5 c 128,-1,13
 501 459 501 459 488 429 c 2,14,-1
 306 0 l 1,15,-1
 9 0 l 1,16,-1
 483 1006 l 1,17,-1
 457 1079 l 2,18,19
 430 1148 430 1148 408 1196 c 128,-1,20
 386 1244 386 1244 364.5 1274.5 c 128,-1,21
 343 1305 343 1305 319 1318.5 c 128,-1,22
 295 1332 295 1332 263 1332 c 0,23,24
 243 1332 243 1332 216 1326.5 c 128,-1,25
 189 1321 189 1321 170 1313 c 1,26,-1
 122 1507 l 1,27,28
 153 1518 153 1518 202.5 1527.5 c 128,-1,29
 252 1537 252 1537 309 1537 c 0,30,31
 390 1537 390 1537 448 1515.5 c 128,-1,32
 506 1494 506 1494 550.5 1448 c 128,-1,33
 595 1402 595 1402 630.5 1331 c 128,-1,34
 666 1260 666 1260 700 1162 c 2,35,-1
 1108 0 l 1,0,-1
EndSplineSet
EndChar

StartChar: mu
Encoding: 389 956 389
Width: 1253
GlyphClass: 2
Flags: W
LayerCount: 2
Fore
SplineSet
849 0 m 1,0,1
 848 12 848 12 845.5 34 c 128,-1,2
 843 56 843 56 841 82.5 c 128,-1,3
 839 109 839 109 837.5 136 c 128,-1,4
 836 163 836 163 836 184 c 1,5,-1
 833 184 l 1,6,7
 795 85 795 85 734 32.5 c 128,-1,8
 673 -20 673 -20 587 -20 c 0,9,10
 535 -20 535 -20 491.5 4 c 128,-1,11
 448 28 448 28 425 70 c 1,12,-1
 421 70 l 1,13,14
 424 38 424 38 424.5 10.5 c 128,-1,15
 425 -17 425 -17 425 -45 c 2,16,-1
 425 -416 l 1,17,-1
 144 -416 l 1,18,-1
 144 1082 l 1,19,-1
 425 1082 l 1,20,-1
 425 477 l 2,21,22
 425 413 425 413 434.5 361 c 128,-1,23
 444 309 444 309 465.5 271.5 c 128,-1,24
 487 234 487 234 522 213.5 c 128,-1,25
 557 193 557 193 609 193 c 0,26,27
 659 193 659 193 699 215.5 c 128,-1,28
 739 238 739 238 768 278.5 c 128,-1,29
 797 319 797 319 812.5 376.5 c 128,-1,30
 828 434 828 434 828 504 c 2,31,-1
 828 1082 l 1,32,-1
 1109 1082 l 1,33,-1
 1109 242 l 2,34,35
 1109 208 1109 208 1109.5 171.5 c 128,-1,36
 1110 135 1110 135 1111.5 101.5 c 128,-1,37
 1113 68 1113 68 1114.5 41 c 128,-1,38
 1116 14 1116 14 1117 0 c 1,39,-1
 849 0 l 1,0,1
EndSplineSet
EndChar

StartChar: nu
Encoding: 390 957 390
Width: 1139
GlyphClass: 2
Flags: W
LayerCount: 2
Fore
SplineSet
1047 846 m 0,0,1
 1047 747 1047 747 1015.5 638 c 128,-1,2
 984 529 984 529 930 418.5 c 128,-1,3
 876 308 876 308 805.5 201 c 128,-1,4
 735 94 735 94 657 0 c 1,5,-1
 390 0 l 1,6,-1
 0 1082 l 1,7,-1
 297 1082 l 1,8,-1
 558 239 l 1,9,10
 614 319 614 319 653.5 393 c 128,-1,11
 693 467 693 467 718 539.5 c 128,-1,12
 743 612 743 612 754.5 685.5 c 128,-1,13
 766 759 766 759 766 837 c 0,14,15
 766 918 766 918 751.5 977.5 c 128,-1,16
 737 1037 737 1037 717 1082 c 1,17,-1
 997 1082 l 1,18,19
 1020 1037 1020 1037 1033.5 980.5 c 128,-1,20
 1047 924 1047 924 1047 846 c 0,0,1
EndSplineSet
EndChar

StartChar: xi
Encoding: 391 958 391
Width: 912
GlyphClass: 2
Flags: W
LayerCount: 2
Fore
SplineSet
324 420 m 0,0,1
 324 367 324 367 344 333 c 128,-1,2
 364 299 364 299 399.5 276.5 c 128,-1,3
 435 254 435 254 483.5 239 c 128,-1,4
 532 224 532 224 588 209 c 0,5,6
 642 194 642 194 699.5 175 c 128,-1,7
 757 156 757 156 804 122.5 c 128,-1,8
 851 89 851 89 881 35.5 c 128,-1,9
 911 -18 911 -18 911 -102 c 0,10,11
 911 -144 911 -144 901 -187.5 c 128,-1,12
 891 -231 891 -231 876.5 -271.5 c 128,-1,13
 862 -312 862 -312 846 -346 c 128,-1,14
 830 -380 830 -380 817 -401 c 1,15,-1
 634 -327 l 1,16,17
 643 -312 643 -312 652.5 -293.5 c 128,-1,18
 662 -275 662 -275 670 -255 c 128,-1,19
 678 -235 678 -235 683.5 -214 c 128,-1,20
 689 -193 689 -193 689 -172 c 0,21,22
 689 -135 689 -135 671.5 -109.5 c 128,-1,23
 654 -84 654 -84 621.5 -66 c 128,-1,24
 589 -48 589 -48 543 -34.5 c 128,-1,25
 497 -21 497 -21 439 -6 c 0,26,27
 375 8 375 8 308.5 27.5 c 128,-1,28
 242 47 242 47 188 84 c 128,-1,29
 134 121 134 121 100 182 c 128,-1,30
 66 243 66 243 66 339 c 0,31,32
 66 415 66 415 92 491 c 128,-1,33
 118 567 118 567 173.5 631.5 c 128,-1,34
 229 696 229 696 317 743.5 c 128,-1,35
 405 791 405 791 529 810 c 1,36,-1
 529 812 l 1,37,38
 462 817 462 817 402.5 834 c 128,-1,39
 343 851 343 851 299.5 881 c 128,-1,40
 256 911 256 911 230.5 954 c 128,-1,41
 205 997 205 997 205 1052 c 0,42,43
 205 1109 205 1109 230 1150 c 128,-1,44
 255 1191 255 1191 294.5 1220 c 128,-1,45
 334 1249 334 1249 382.5 1266.5 c 128,-1,46
 431 1284 431 1284 478 1293 c 1,47,-1
 478 1301 l 1,48,49
 466 1300 466 1300 432 1299 c 128,-1,50
 398 1298 398 1298 358 1296.5 c 128,-1,51
 318 1295 318 1295 280 1294 c 128,-1,52
 242 1293 242 1293 224 1293 c 2,53,-1
 148 1293 l 1,54,-1
 148 1484 l 1,55,-1
 802 1484 l 1,56,-1
 802 1299 l 1,57,58
 733 1292 733 1292 668 1278 c 128,-1,59
 603 1264 603 1264 552.5 1240 c 128,-1,60
 502 1216 502 1216 471.5 1179 c 128,-1,61
 441 1142 441 1142 441 1088 c 0,62,63
 441 1037 441 1037 467.5 1004.5 c 128,-1,64
 494 972 494 972 538.5 952 c 128,-1,65
 583 932 583 932 640.5 922 c 128,-1,66
 698 912 698 912 759 907 c 1,67,-1
 759 716 l 1,68,69
 659 704 659 704 578.5 686 c 128,-1,70
 498 668 498 668 441.5 635.5 c 128,-1,71
 385 603 385 603 354.5 551.5 c 128,-1,72
 324 500 324 500 324 420 c 0,0,1
EndSplineSet
EndChar

StartChar: pi
Encoding: 393 960 393
Width: 1568
GlyphClass: 2
Flags: W
LayerCount: 2
Fore
SplineSet
1240 892 m 1,0,-1
 1240 303 l 2,1,2
 1240 231 1240 231 1268 203.5 c 128,-1,3
 1296 176 1296 176 1344 176 c 0,4,5
 1370 176 1370 176 1396 180 c 128,-1,6
 1422 184 1422 184 1442 188 c 1,7,-1
 1462 4 l 1,8,9
 1418 -6 1418 -6 1360.5 -13 c 128,-1,10
 1303 -20 1303 -20 1239 -20 c 0,11,12
 1098 -20 1098 -20 1029.5 54.5 c 128,-1,13
 961 129 961 129 961 265 c 2,14,-1
 961 892 l 1,15,-1
 598 892 l 1,16,-1
 598 768 l 2,17,18
 598 638 598 638 591.5 529 c 128,-1,19
 585 420 585 420 573 327 c 128,-1,20
 561 234 561 234 545 154 c 128,-1,21
 529 74 529 74 510 0 c 1,22,-1
 223 0 l 1,23,24
 242 76 242 76 260 157.5 c 128,-1,25
 278 239 278 239 292.5 331 c 128,-1,26
 307 423 307 423 315.5 529 c 128,-1,27
 324 635 324 635 324 760 c 2,28,-1
 324 892 l 1,29,30
 227 892 227 892 152.5 883.5 c 128,-1,31
 78 875 78 875 42 855 c 1,32,-1
 42 1053 l 1,33,34
 57 1060 57 1060 79 1065.5 c 128,-1,35
 101 1071 101 1071 125.5 1074.5 c 128,-1,36
 150 1078 150 1078 175.5 1080 c 128,-1,37
 201 1082 201 1082 224 1082 c 2,38,-1
 1513 1082 l 1,39,-1
 1513 892 l 1,40,-1
 1240 892 l 1,0,-1
EndSplineSet
EndChar

StartChar: rho
Encoding: 394 961 394
Width: 1267
GlyphClass: 2
Flags: W
LayerCount: 2
Fore
SplineSet
1187 516 m 0,0,1
 1187 398 1187 398 1155 299.5 c 128,-1,2
 1123 201 1123 201 1063.5 130 c 128,-1,3
 1004 59 1004 59 919 19.5 c 128,-1,4
 834 -20 834 -20 727 -20 c 0,5,6
 672 -20 672 -20 626.5 -9.5 c 128,-1,7
 581 1 581 1 542.5 19.5 c 128,-1,8
 504 38 504 38 473 63 c 128,-1,9
 442 88 442 88 416 117 c 1,10,-1
 412 117 l 1,11,12
 414 87 414 87 415 59.5 c 128,-1,13
 416 32 416 32 416 0 c 2,14,-1
 416 -425 l 1,15,-1
 121 -425 l 1,16,-1
 121 581 l 2,17,18
 121 700 121 700 155.5 796.5 c 128,-1,19
 190 893 190 893 256 961 c 128,-1,20
 322 1029 322 1029 417.5 1066 c 128,-1,21
 513 1103 513 1103 634 1103 c 0,22,23
 748 1103 748 1103 848.5 1063.5 c 128,-1,24
 949 1024 949 1024 1024 949 c 128,-1,25
 1099 874 1099 874 1143 765 c 128,-1,26
 1187 656 1187 656 1187 516 c 0,0,1
893 526 m 0,27,28
 893 616 893 616 874.5 687 c 128,-1,29
 856 758 856 758 822 807.5 c 128,-1,30
 788 857 788 857 740.5 883 c 128,-1,31
 693 909 693 909 636 909 c 0,32,33
 577 909 577 909 535.5 886 c 128,-1,34
 494 863 494 863 467.5 819.5 c 128,-1,35
 441 776 441 776 428.5 713.5 c 128,-1,36
 416 651 416 651 416 572 c 2,37,-1
 416 300 l 1,38,39
 468 243 468 243 534 208.5 c 128,-1,40
 600 174 600 174 677 174 c 0,41,42
 730 174 730 174 770.5 199 c 128,-1,43
 811 224 811 224 838 269.5 c 128,-1,44
 865 315 865 315 879 380 c 128,-1,45
 893 445 893 445 893 526 c 0,27,28
EndSplineSet
EndChar

StartChar: sigma1
Encoding: 395 962 395
Width: 1065
GlyphClass: 2
Flags: W
LayerCount: 2
Fore
SplineSet
340 445 m 0,0,1
 340 387 340 387 362 350 c 128,-1,2
 384 313 384 313 422.5 287.5 c 128,-1,3
 461 262 461 262 514 243.5 c 128,-1,4
 567 225 567 225 629 204 c 0,5,6
 669 192 669 192 710.5 180 c 128,-1,7
 752 168 752 168 791.5 152 c 128,-1,8
 831 136 831 136 866 114.5 c 128,-1,9
 901 93 901 93 927 61 c 128,-1,10
 953 29 953 29 968.5 -15 c 128,-1,11
 984 -59 984 -59 984 -120 c 0,12,13
 984 -159 984 -159 973 -200 c 128,-1,14
 962 -241 962 -241 945.5 -279 c 128,-1,15
 929 -317 929 -317 910.5 -349 c 128,-1,16
 892 -381 892 -381 878 -401 c 1,17,-1
 700 -327 l 1,18,19
 709 -312 709 -312 718.5 -294 c 128,-1,20
 728 -276 728 -276 736 -256 c 128,-1,21
 744 -236 744 -236 749.5 -215 c 128,-1,22
 755 -194 755 -194 755 -173 c 0,23,24
 755 -136 755 -136 734 -111 c 128,-1,25
 713 -86 713 -86 675 -68 c 128,-1,26
 637 -50 637 -50 585.5 -36.5 c 128,-1,27
 534 -23 534 -23 472 -8 c 0,28,29
 427 4 427 4 380.5 18 c 128,-1,30
 334 32 334 32 290 53.5 c 128,-1,31
 246 75 246 75 208 105.5 c 128,-1,32
 170 136 170 136 141 180.5 c 128,-1,33
 112 225 112 225 95.5 286 c 128,-1,34
 79 347 79 347 79 428 c 0,35,36
 79 487 79 487 90 559.5 c 128,-1,37
 101 632 101 632 126 707 c 128,-1,38
 151 782 151 782 192 853.5 c 128,-1,39
 233 925 233 925 293.5 980.5 c 128,-1,40
 354 1036 354 1036 435 1069.5 c 128,-1,41
 516 1103 516 1103 621 1103 c 0,42,43
 736 1103 736 1103 824.5 1065.5 c 128,-1,44
 913 1028 913 1028 972 962 c 1,45,-1
 833 813 l 1,46,47
 815 832 815 832 794 850 c 128,-1,48
 773 868 773 868 748 882 c 128,-1,49
 723 896 723 896 694 904.5 c 128,-1,50
 665 913 665 913 631 913 c 0,51,52
 576 913 576 913 533.5 889 c 128,-1,53
 491 865 491 865 458.5 826.5 c 128,-1,54
 426 788 426 788 403.5 738 c 128,-1,55
 381 688 381 688 367 636 c 128,-1,56
 353 584 353 584 346.5 534 c 128,-1,57
 340 484 340 484 340 445 c 0,0,1
EndSplineSet
EndChar

StartChar: sigma
Encoding: 396 963 396
Width: 1401
GlyphClass: 2
Flags: W
LayerCount: 2
Fore
SplineSet
1170 458 m 0,0,1
 1170 353 1170 353 1136 265 c 128,-1,2
 1102 177 1102 177 1034.5 114 c 128,-1,3
 967 51 967 51 865.5 15.5 c 128,-1,4
 764 -20 764 -20 628 -20 c 256,5,6
 492 -20 492 -20 389.5 17 c 128,-1,7
 287 54 287 54 218 123.5 c 128,-1,8
 149 193 149 193 114.5 294 c 128,-1,9
 80 395 80 395 80 524 c 0,10,11
 80 668 80 668 127.5 773 c 128,-1,12
 175 878 175 878 259.5 947 c 128,-1,13
 344 1016 344 1016 461.5 1049 c 128,-1,14
 579 1082 579 1082 719 1082 c 2,15,-1
 1361 1082 l 1,16,-1
 1361 892 l 1,17,-1
 1166 892 l 2,18,19
 1156 892 1156 892 1136.5 892.5 c 128,-1,20
 1117 893 1117 893 1093.5 894 c 128,-1,21
 1070 895 1070 895 1045.5 896 c 128,-1,22
 1021 897 1021 897 1002 898 c 1,23,-1
 1002 894 l 1,24,25
 1033 854 1033 854 1063 807 c 128,-1,26
 1093 760 1093 760 1117 706 c 128,-1,27
 1141 652 1141 652 1155.5 590 c 128,-1,28
 1170 528 1170 528 1170 458 c 0,0,1
876 492 m 0,29,30
 876 555 876 555 867.5 612 c 128,-1,31
 859 669 859 669 845 719.5 c 128,-1,32
 831 770 831 770 812.5 813 c 128,-1,33
 794 856 794 856 774 892 c 1,34,-1
 700 892 l 2,35,36
 632 892 632 892 573 869.5 c 128,-1,37
 514 847 514 847 470 801.5 c 128,-1,38
 426 756 426 756 400.5 687 c 128,-1,39
 375 618 375 618 375 524 c 0,40,41
 375 347 375 347 437.5 259.5 c 128,-1,42
 500 172 500 172 621 172 c 0,43,44
 686 172 686 172 733.5 194 c 128,-1,45
 781 216 781 216 813 257.5 c 128,-1,46
 845 299 845 299 860.5 358 c 128,-1,47
 876 417 876 417 876 492 c 0,29,30
EndSplineSet
EndChar

StartChar: tau
Encoding: 397 964 397
Width: 914
GlyphClass: 2
Flags: W
LayerCount: 2
Fore
SplineSet
270 892 m 2,0,1
 231 892 231 892 191.5 889 c 128,-1,2
 152 886 152 886 117.5 880.5 c 128,-1,3
 83 875 83 875 56.5 868.5 c 128,-1,4
 30 862 30 862 18 855 c 1,5,-1
 18 1053 l 1,6,7
 30 1059 30 1059 51.5 1064.5 c 128,-1,8
 73 1070 73 1070 98.5 1074 c 128,-1,9
 124 1078 124 1078 151 1080 c 128,-1,10
 178 1082 178 1082 201 1082 c 2,11,-1
 880 1082 l 1,12,-1
 880 892 l 1,13,-1
 575 892 l 1,14,-1
 575 312 l 2,15,16
 575 272 575 272 583 246 c 128,-1,17
 591 220 591 220 605.5 204.5 c 128,-1,18
 620 189 620 189 641.5 183 c 128,-1,19
 663 177 663 177 690 177 c 0,20,21
 707 177 707 177 731 179.5 c 128,-1,22
 755 182 755 182 771 185 c 1,23,-1
 795 7 l 1,24,25
 778 2 778 2 753 -3 c 128,-1,26
 728 -8 728 -8 700.5 -12 c 128,-1,27
 673 -16 673 -16 645.5 -18.5 c 128,-1,28
 618 -21 618 -21 596 -21 c 0,29,30
 441 -21 441 -21 369 49 c 128,-1,31
 297 119 297 119 297 251 c 2,32,-1
 297 892 l 1,33,-1
 270 892 l 2,0,1
EndSplineSet
EndChar

StartChar: upsilon
Encoding: 398 965 398
Width: 1192
GlyphClass: 2
Flags: W
LayerCount: 2
Fore
SplineSet
1108 571 m 0,0,1
 1108 435 1108 435 1078.5 325.5 c 128,-1,2
 1049 216 1049 216 986.5 139 c 128,-1,3
 924 62 924 62 827 21 c 128,-1,4
 730 -20 730 -20 594 -20 c 0,5,6
 354 -20 354 -20 240.5 90.5 c 128,-1,7
 127 201 127 201 127 433 c 2,8,-1
 127 1082 l 1,9,-1
 408 1082 l 1,10,-1
 408 460 l 2,11,12
 408 324 408 324 455.5 255.5 c 128,-1,13
 503 187 503 187 611 187 c 0,14,15
 670 187 670 187 711 210 c 128,-1,16
 752 233 752 233 778 283.5 c 128,-1,17
 804 334 804 334 815.5 413 c 128,-1,18
 827 492 827 492 827 603 c 0,19,20
 827 666 827 666 815.5 735 c 128,-1,21
 804 804 804 804 786 868.5 c 128,-1,22
 768 933 768 933 746 989 c 128,-1,23
 724 1045 724 1045 703 1082 c 1,24,-1
 989 1082 l 1,25,26
 1009 1042 1009 1042 1030 985.5 c 128,-1,27
 1051 929 1051 929 1068.5 862 c 128,-1,28
 1086 795 1086 795 1097 720.5 c 128,-1,29
 1108 646 1108 646 1108 571 c 0,0,1
EndSplineSet
EndChar

StartChar: phi
Encoding: 399 966 399
Width: 1465
GlyphClass: 2
Flags: W
LayerCount: 2
Fore
SplineSet
1386 565 m 0,0,1
 1386 414 1386 414 1345.5 306.5 c 128,-1,2
 1305 199 1305 199 1232.5 129 c 128,-1,3
 1160 59 1160 59 1061 23.5 c 128,-1,4
 962 -12 962 -12 845 -18 c 1,5,-1
 845 -425 l 1,6,-1
 607 -425 l 1,7,-1
 607 -20 l 1,8,9
 486 -15 486 -15 388.5 21 c 128,-1,10
 291 57 291 57 222.5 126 c 128,-1,11
 154 195 154 195 117 299 c 128,-1,12
 80 403 80 403 80 544 c 0,13,14
 80 677 80 677 110 775 c 128,-1,15
 140 873 140 873 197 940.5 c 128,-1,16
 254 1008 254 1008 337.5 1048 c 128,-1,17
 421 1088 421 1088 529 1106 c 1,18,-1
 550 927 l 1,19,20
 499 914 499 914 462 879 c 128,-1,21
 425 844 425 844 401 792.5 c 128,-1,22
 377 741 377 741 366 677.5 c 128,-1,23
 355 614 355 614 355 544 c 0,24,25
 355 451 355 451 372.5 382 c 128,-1,26
 390 313 390 313 422.5 266.5 c 128,-1,27
 455 220 455 220 502 195.5 c 128,-1,28
 549 171 549 171 607 167 c 1,29,-1
 607 702 l 2,30,31
 607 900 607 900 694 1002 c 128,-1,32
 781 1104 781 1104 967 1104 c 0,33,34
 1062 1104 1062 1104 1139.5 1066 c 128,-1,35
 1217 1028 1217 1028 1272 957.5 c 128,-1,36
 1327 887 1327 887 1356.5 787.5 c 128,-1,37
 1386 688 1386 688 1386 565 c 0,0,1
1111 567 m 0,38,39
 1111 758 1111 758 1073.5 844 c 128,-1,40
 1036 930 1036 930 968 930 c 0,41,42
 911 930 911 930 878 875.5 c 128,-1,43
 845 821 845 821 845 699 c 2,44,-1
 845 166 l 1,45,46
 973 172 973 172 1042 272 c 128,-1,47
 1111 372 1111 372 1111 567 c 0,38,39
EndSplineSet
EndChar

StartChar: chi
Encoding: 400 967 400
Width: 1179
GlyphClass: 2
Flags: W
LayerCount: 2
Fore
SplineSet
233 1104 m 0,0,1
 293 1104 293 1104 338 1083 c 128,-1,2
 383 1062 383 1062 422.5 1015 c 128,-1,3
 462 968 462 968 500.5 893 c 128,-1,4
 539 818 539 818 586 710 c 2,5,-1
 606 664 l 2,6,7
 608 659 608 659 612.5 644.5 c 128,-1,8
 617 630 617 630 620 618 c 1,9,10
 625 632 625 632 633 651.5 c 128,-1,11
 641 671 641 671 649.5 691 c 128,-1,12
 658 711 658 711 666 729 c 128,-1,13
 674 747 674 747 679 757 c 2,14,-1
 834 1082 l 1,15,-1
 1131 1082 l 1,16,-1
 756 392 l 1,17,-1
 1169 -424 l 1,18,-1
 869 -424 l 1,19,-1
 674 8 l 2,20,21
 667 23 667 23 656.5 48 c 128,-1,22
 646 73 646 73 635.5 100.5 c 128,-1,23
 625 128 625 128 616 154 c 128,-1,24
 607 180 607 180 602 198 c 1,25,26
 597 181 597 181 587 155 c 128,-1,27
 577 129 577 129 566 102.5 c 128,-1,28
 555 76 555 76 544.5 51.5 c 128,-1,29
 534 27 534 27 527 13 c 2,30,-1
 313 -424 l 1,31,-1
 13 -424 l 1,32,-1
 465 405 l 1,33,-1
 346 648 l 2,34,35
 309 724 309 724 281.5 773 c 128,-1,36
 254 822 254 822 231 850 c 128,-1,37
 208 878 208 878 186.5 888.5 c 128,-1,38
 165 899 165 899 138 899 c 0,39,40
 97 899 97 899 57 883 c 1,41,-1
 17 1074 l 1,42,43
 48 1085 48 1085 102.5 1094.5 c 128,-1,44
 157 1104 157 1104 233 1104 c 0,0,1
EndSplineSet
EndChar

StartChar: psi
Encoding: 401 968 401
Width: 1543
GlyphClass: 2
Flags: W
LayerCount: 2
Fore
SplineSet
901 176 m 1,0,1
 967 177 967 177 1012.5 191.5 c 128,-1,2
 1058 206 1058 206 1086.5 240.5 c 128,-1,3
 1115 275 1115 275 1127.5 332 c 128,-1,4
 1140 389 1140 389 1140 474 c 2,5,-1
 1140 1082 l 1,6,-1
 1415 1082 l 1,7,-1
 1415 458 l 2,8,9
 1415 336 1415 336 1387.5 246.5 c 128,-1,10
 1360 157 1360 157 1298.5 98.5 c 128,-1,11
 1237 40 1237 40 1140 10.5 c 128,-1,12
 1043 -19 1043 -19 903 -20 c 1,13,-1
 903 -425 l 1,14,-1
 644 -425 l 1,15,-1
 644 -20 l 1,16,17
 508 -19 508 -19 410.5 10.5 c 128,-1,18
 313 40 313 40 250.5 98.5 c 128,-1,19
 188 157 188 157 158.5 246.5 c 128,-1,20
 129 336 129 336 129 458 c 2,21,-1
 129 1082 l 1,22,-1
 404 1082 l 1,23,-1
 404 475 l 2,24,25
 404 390 404 390 418.5 333.5 c 128,-1,26
 433 277 433 277 462.5 242.5 c 128,-1,27
 492 208 492 208 537.5 193.5 c 128,-1,28
 583 179 583 179 644 177 c 1,29,-1
 644 1340 l 1,30,-1
 901 1340 l 1,31,-1
 901 176 l 1,0,1
EndSplineSet
EndChar

StartChar: omega
Encoding: 402 969 402
Width: 1730
GlyphClass: 2
Flags: W
LayerCount: 2
Fore
SplineSet
995 474 m 2,0,1
 995 332 995 332 1042 254 c 128,-1,2
 1089 176 1089 176 1174 176 c 0,3,4
 1228 176 1228 176 1264.5 200 c 128,-1,5
 1301 224 1301 224 1323 269 c 128,-1,6
 1345 314 1345 314 1354 377.5 c 128,-1,7
 1363 441 1363 441 1363 519 c 0,8,9
 1363 591 1363 591 1348.5 656.5 c 128,-1,10
 1334 722 1334 722 1303.5 775 c 128,-1,11
 1273 828 1273 828 1225 864.5 c 128,-1,12
 1177 901 1177 901 1109 914 c 1,13,-1
 1132 1103 l 1,14,15
 1253 1085 1253 1085 1349 1038.5 c 128,-1,16
 1445 992 1445 992 1511.5 918.5 c 128,-1,17
 1578 845 1578 845 1613.5 744.5 c 128,-1,18
 1649 644 1649 644 1649 517 c 0,19,20
 1649 389 1649 389 1620 289 c 128,-1,21
 1591 189 1591 189 1535.5 120.5 c 128,-1,22
 1480 52 1480 52 1399 16 c 128,-1,23
 1318 -20 1318 -20 1214 -20 c 0,24,25
 1140 -20 1140 -20 1083 -4 c 128,-1,26
 1026 12 1026 12 984 42 c 128,-1,27
 942 72 942 72 913 116.5 c 128,-1,28
 884 161 884 161 867 218 c 1,29,-1
 863 218 l 1,30,31
 846 161 846 161 817 116.5 c 128,-1,32
 788 72 788 72 746 42 c 128,-1,33
 704 12 704 12 647 -4 c 128,-1,34
 590 -20 590 -20 516 -20 c 0,35,36
 412 -20 412 -20 331 16 c 128,-1,37
 250 52 250 52 194.5 120.5 c 128,-1,38
 139 189 139 189 110 289 c 128,-1,39
 81 389 81 389 81 517 c 0,40,41
 81 644 81 644 116.5 744.5 c 128,-1,42
 152 845 152 845 218.5 918.5 c 128,-1,43
 285 992 285 992 381 1038.5 c 128,-1,44
 477 1085 477 1085 597 1103 c 1,45,-1
 620 916 l 1,46,47
 552 903 552 903 504 866 c 128,-1,48
 456 829 456 829 425 776.5 c 128,-1,49
 394 724 394 724 380 658.5 c 128,-1,50
 366 593 366 593 366 521 c 0,51,52
 366 443 366 443 375 379.5 c 128,-1,53
 384 316 384 316 406 271 c 128,-1,54
 428 226 428 226 464 201.5 c 128,-1,55
 500 177 500 177 554 177 c 0,56,57
 640 177 640 177 688.5 255 c 128,-1,58
 737 333 737 333 737 474 c 2,59,-1
 737 661 l 1,60,-1
 995 661 l 1,61,-1
 995 474 l 2,0,1
EndSplineSet
EndChar

StartChar: afii10051
Encoding: 409 1026 409
Width: 1813
GlyphClass: 2
Flags: W
LayerCount: 2
Fore
SplineSet
773 1181 m 1,0,-1
 773 845 l 1,1,2
 809 860 809 860 860.5 878 c 128,-1,3
 912 896 912 896 975 911.5 c 128,-1,4
 1038 927 1038 927 1109.5 937.5 c 128,-1,5
 1181 948 1181 948 1256 948 c 0,6,7
 1373 948 1373 948 1458.5 921 c 128,-1,8
 1544 894 1544 894 1599.5 839 c 128,-1,9
 1655 784 1655 784 1681.5 699.5 c 128,-1,10
 1708 615 1708 615 1708 500 c 2,11,-1
 1708 446 l 2,12,13
 1708 338 1708 338 1687 252 c 128,-1,14
 1666 166 1666 166 1615 105.5 c 128,-1,15
 1564 45 1564 45 1479.5 12.5 c 128,-1,16
 1395 -20 1395 -20 1267 -20 c 0,17,18
 1193 -20 1193 -20 1134 -8.5 c 128,-1,19
 1075 3 1075 3 1027.5 25.5 c 128,-1,20
 980 48 980 48 942 81.5 c 128,-1,21
 904 115 904 115 872 158 c 1,22,-1
 1074 329 l 1,23,24
 1091 307 1091 307 1109.5 286 c 128,-1,25
 1128 265 1128 265 1150 248.5 c 128,-1,26
 1172 232 1172 232 1198 222 c 128,-1,27
 1224 212 1224 212 1255 212 c 0,28,29
 1309 212 1309 212 1342.5 228.5 c 128,-1,30
 1376 245 1376 245 1394 276.5 c 128,-1,31
 1412 308 1412 308 1418 354.5 c 128,-1,32
 1424 401 1424 401 1424 461 c 2,33,-1
 1424 470 l 2,34,35
 1424 537 1424 537 1412 585.5 c 128,-1,36
 1400 634 1400 634 1370 665.5 c 128,-1,37
 1340 697 1340 697 1289.5 712 c 128,-1,38
 1239 727 1239 727 1161 727 c 0,39,40
 1107 727 1107 727 1052 721 c 128,-1,41
 997 715 997 715 946 705 c 128,-1,42
 895 695 895 695 850.5 683.5 c 128,-1,43
 806 672 806 672 773 661 c 1,44,-1
 773 0 l 1,45,-1
 478 0 l 1,46,-1
 478 1181 l 1,47,-1
 23 1181 l 1,48,-1
 23 1409 l 1,49,-1
 1229 1409 l 1,50,-1
 1229 1181 l 1,51,-1
 773 1181 l 1,0,-1
EndSplineSet
EndChar

StartChar: afii10053
Encoding: 411 1028 411
Width: 1457
GlyphClass: 2
Flags: W
LayerCount: 2
Fore
SplineSet
787 212 m 0,0,1
 868 212 868 212 928 235.5 c 128,-1,2
 988 259 988 259 1031 297 c 128,-1,3
 1074 335 1074 335 1103 383 c 128,-1,4
 1132 431 1132 431 1151 480 c 1,5,-1
 1403 383 l 1,6,7
 1372 307 1372 307 1323 234 c 128,-1,8
 1274 161 1274 161 1200 105 c 128,-1,9
 1126 49 1126 49 1024 14.5 c 128,-1,10
 922 -20 922 -20 784 -20 c 0,11,12
 604 -20 604 -20 472 34.5 c 128,-1,13
 340 89 340 89 254 186.5 c 128,-1,14
 168 284 168 284 126 418 c 128,-1,15
 84 552 84 552 84 711 c 0,16,17
 84 876 84 876 125.5 1009 c 128,-1,18
 167 1142 167 1142 252 1235.5 c 128,-1,19
 337 1329 337 1329 466.5 1379.5 c 128,-1,20
 596 1430 596 1430 771 1430 c 0,21,22
 907 1430 907 1430 1009 1401 c 128,-1,23
 1111 1372 1111 1372 1185.5 1319.5 c 128,-1,24
 1260 1267 1260 1267 1308.5 1195.5 c 128,-1,25
 1357 1124 1357 1124 1385 1038 c 1,26,-1
 1130 967 l 1,27,28
 1116 1012 1116 1012 1087.5 1053.5 c 128,-1,29
 1059 1095 1059 1095 1015.5 1127 c 128,-1,30
 972 1159 972 1159 913.5 1178.5 c 128,-1,31
 855 1198 855 1198 780 1198 c 0,32,33
 689 1198 689 1198 618 1173 c 128,-1,34
 547 1148 547 1148 497.5 1100.5 c 128,-1,35
 448 1053 448 1053 420 984.5 c 128,-1,36
 392 916 392 916 387 829 c 1,37,-1
 933 829 l 1,38,-1
 933 601 l 1,39,-1
 386 601 l 1,40,41
 392 512 392 512 420 440 c 128,-1,42
 448 368 448 368 498 317.5 c 128,-1,43
 548 267 548 267 620.5 239.5 c 128,-1,44
 693 212 693 212 787 212 c 0,0,1
EndSplineSet
EndChar

